<?xml version="1.0" encoding="UTF-8"?>
<svg width="114.95mm" height="114.95mm" version="1.1" viewBox="0 0 407.29 407.29" xmlns="http://www.w3.org/2000/svg" xmlns:xlink="http://www.w3.org/1999/xlink">
<defs>
<linearGradient id="a" x1="2.2896" x2="409.58" y1="-9.9418" y2="397.35" gradientTransform="translate(0 -2.9567)" gradientUnits="userSpaceOnUse">
<stop stop-color="#b047fb" offset="0"/>
<stop stop-color="#5002c9" offset=".49836"/>
<stop stop-color="#3e7edc" offset="1"/>
</linearGradient>
</defs>
<g transform="translate(-2.2896 12.898)">
<rect x="2.2896" y="-12.898" width="407.29" height="407.29" ry="36.843" fill="url(#a)" opacity=".998" stroke-linecap="square" stroke-width="2.8346" style="paint-order:stroke fill markers"/>
<path d="m156.62 186.15h-26.144v-37.341h-16.969v37.341h-26.842l-0.09063-96.246h26.932v35.8h16.969v-35.8h26.144zm119.79 0.45316c26.96-0.014 48.9-22.407 48.893-49.374-7e-3 -27.532-21.933-48.914-48.893-48.935-26.925-0.0211-40.688 19.8-44.083 27.804 0.0277-12.012-11.81-26.186-25.656-26.207h-44.613v96.225l41.594 0.014c16.774 0 28.703-14.529 28.724-26.988 3.8275 7.8433 17.109 27.469 44.034 27.462zm-76.244-39.154c3.8484 0 6.8812 3.7996 6.8812 8.1291 0 4.3295-3.0328 8.1361-6.8812 8.1361h-13.226v-16.265zm0.0488-36.128c3.8484 0 6.8812 3.7996 6.8812 8.1291 0 4.3295-3.0328 8.1292-6.8812 8.1292h-13.226v-16.258zm17.611 25.928c3.0328-0.38345 8.0803-3.8484 9.8651-6.0655-0.62744 2.7469-0.67623 10.688 0.0555 13.428-2.0288-3.1303-6.8394-6.9788-9.9209-7.3622zm34.106 0c0-13.525 10.967-24.492 24.492-24.492 13.532 0 24.499 10.967 24.499 24.492s-10.967 24.492-24.499 24.492c-13.525 0-24.492-10.967-24.492-24.492zm24.492 19.256c10.639 0 19.256-8.6241 19.256-19.256 0-10.632-8.6172-19.256-19.256-19.256-10.632 0-19.256 8.6241-19.256 19.256 0 10.632 8.6241 19.256 19.256 19.256" fill="#fff"/>
<path d="m220.03 291.05c-16.87-1.7793-29.609-12.011-34.859-28-2.0299-6.1818-2.7429-11.203-2.7315-19.237 9e-3 -6.0981 0.21378-8.3132 1.2143-13.111 4.1222-19.766 18.392-32.45 37.847-33.642 10.369-0.63505 19.767 1.668 27.328 6.6966l1.8883 1.2558 0.32218-1.0094c0.40894-1.2814 1.7562-3.0708 3.0616-4.0665 1.6988-1.2957 2.8164-1.4934 8.4415-1.4934 4.5447 0 5.0366 0.0395 5.392 0.43212 0.36104 0.39895 0.39106 3.9167 0.39106 45.805 0 43.657-0.0163 45.388-0.43212 45.764-0.37487 0.33924-1.1185 0.39033-5.6121 0.38546-4.8805-5e-3 -5.2575-0.0376-6.5217-0.55749-2.5007-1.0285-4.2912-2.9712-4.926-5.3444-0.15645-0.58483-0.32139-1.1944-0.36661-1.3546-0.0512-0.1815-0.81089 0.1965-2.0156 1.0028-7.6162 5.0978-18.327 7.5371-28.421 6.4725zm11.238-18.131c8.4436-2.2592 14.529-8.2429 17.298-17.01 2.2549-7.138 2.2126-16.819-0.10478-24.029-1.3325-4.1455-3.3431-7.5064-6.2361-10.425-3.069-3.0957-6.5688-5.1003-10.957-6.2762-2.3273-0.62363-8.0072-0.85648-10.633-0.43589-3.6859 0.59051-7.4465 2.0982-10.321 4.1381-1.7455 1.2386-4.6545 4.2613-5.8696 6.0992-2.1351 3.2292-3.7882 7.6385-4.5788 12.213-0.5567 3.2215-0.53952 10.653 0.032 13.826 2.2013 12.222 9.1537 19.984 19.898 22.214 2.4452 0.5075 9.0789 0.32531 11.472-0.31507zm-173.42 17.417c-1.5409-0.59223-3.6903-2.5224-4.4178-3.9672-0.30052-0.59677-0.66594-1.6485-0.81208-2.3372-0.35489-1.6726-0.36704-51.642-0.01336-55.696 1.1214-12.859 7.5813-22.691 18.246-27.769 13.729-6.5375 32.484-4.3003 42.404 5.0583 0.91096 0.85933 1.7338 1.5624 1.8286 1.5624 0.0948 0 0.92606-0.69779 1.8472-1.5506 11.708-10.84 33.747-11.868 47.265-2.205 6.7022 4.7909 10.72 11.252 12.75 20.503 0.49181 2.2416 0.50025 2.7397 0.58012 34.209 0.0737 29.071 0.047 31.968-0.29835 32.314-0.32522 0.32522-1.1187 0.37938-5.5585 0.37938-4.5649 0-5.3231-0.0547-6.3933-0.46135-2.3893-0.90786-4.0302-2.5163-5.0738-4.9735-0.43371-1.0212-0.45652-2.1788-0.57518-29.183l-0.12356-28.119-0.54239-1.7684c-1.8901-6.1624-6.3766-10.177-12.835-11.486-2.3785-0.48195-7.6316-0.3553-9.7692 0.23552-6.0231 1.6648-10.009 5.6818-11.747 11.837l-0.53359 1.8904-0.12162 30.786c-0.10674 27.015-0.16506 30.815-0.4761 31.017-0.21197 0.13804-2.5388 0.20579-5.7893 0.16854-5.4076-0.0619-5.4416-0.0655-6.7732-0.71947-1.7813-0.87477-3.1832-2.3155-4.0742-4.1869l-0.7312-1.5359-0.12326-28.119c-0.13807-31.516 9e-3 -28.993-1.9214-32.964-1.8681-3.8421-5.7795-6.9346-10.361-8.1918-2.1786-0.59783-8.6829-0.60878-10.87-0.0184-6.0218 1.626-10.169 5.7745-11.87 11.873l-0.52714 1.8904-0.1225 30.786c-0.10752 27.019-0.1659 30.814-0.47695 31.01-0.19675 0.12435-2.6675 0.22015-5.553 0.21532-4.6314-8e-3 -5.3338-0.0607-6.4375-0.48488zm215.49 0.21724c-0.15595-0.15595-0.28356-0.47822-0.28356-0.71617 0-0.23792 6.18-9.5803 13.733-20.761 7.8142-11.567 13.934-20.857 14.199-21.554 0.62206-1.6372 0.52114-4.7506-0.20449-6.3075-0.27254-0.58484-6.6229-10.147-14.112-21.249-7.4889-11.102-13.616-20.358-13.616-20.57 0-0.91642 0.31591-0.95166 8.5291-0.95166 7.2462 0 8.097 0.0418 9.4637 0.46412 1.7498 0.54079 3.351 1.5022 4.6184 2.7733 0.49519 0.49657 4.2678 5.8994 8.3836 12.006 4.1158 6.1069 7.8088 11.552 8.2067 12.099 1.6931 2.3305 5.0304 2.7478 7.0906 0.8865 0.47738-0.43129 4.3196-5.9199 8.5382-12.197 4.7871-7.1228 8.1758-11.928 9.0152-12.783 0.93463-0.952 1.9077-1.6386 3.19-2.2509l1.8451-0.88104 8.469-0.0703c8.5419-0.0709 9.1352-0.0212 9.1352 0.76578 0 0.15575-6.1283 9.3672-13.619 20.47-7.4902 11.103-13.895 20.772-14.232 21.486-0.87915 1.863-0.87994 4.7434-3e-3 6.6315 0.33631 0.72315 6.7039 10.346 14.15 21.385 7.4463 11.039 13.584 20.24 13.639 20.448 0.0551 0.20807-0.0753 0.55365-0.28969 0.76797-0.34571 0.34576-1.239 0.38968-7.9227 0.38968-4.5704 0-8.0255-0.10239-8.7852-0.26033-1.9908-0.41387-4.1282-1.5839-5.5457-3.0358-0.74675-0.76483-4.5634-6.1886-9.1538-13.008-5.8435-8.6816-8.1097-11.864-8.7914-12.346-1.8132-1.2812-4.3927-1.0717-6.0072 0.48806-0.49523 0.47842-4.4255 6.104-8.7338 12.501-8.154 12.108-8.9973 13.173-11.388 14.384-2.3128 1.172-3.2627 1.2771-11.537 1.2771-5.6746 0-7.7756-0.0746-7.9845-0.28356z" fill="#fefefe"/>
</g>
</svg>
