<?xml version="1.0" encoding="UTF-8"?>
<svg version="1.1" viewBox="186 38 76 76" xmlns="http://www.w3.org/2000/svg">
<path d="m244 114 18-18h-18v18z" fill="#EA4335"/>
<path d="M262 56h-18v40h18V56z" fill="#FBBC04"/>
<path d="M244 96h-40v18h40V96z" fill="#34A853"/>
<path d="M186 96v12c0 3.315 2.685 6 6 6h12V96h-18z" fill="#188038"/>
<path d="M262 56V44c0-3.315-2.685-6-6-6h-12v18h18z" fill="#1967D2"/>
<path d="M244 38h-52c-3.315 0 -6 2.685-6 6v52h18V56h40V38z" fill="#4285F4"/>
<path d="m212.2 87.03c-1.495-1.01-2.53-2.485-3.095-4.435l3.47-1.43c0.315 1.2 0.865 2.13 1.65 2.79 0.78 0.66 1.73 0.985 2.84 0.985 1.135 0 2.11-0.345 2.925-1.035s1.225-1.57 1.225-2.635c0-1.09-0.43-1.98-1.29-2.67s-1.94-1.035-3.23-1.035h-2.005v-3.435h1.8c1.11 0 2.045-0.3 2.805-0.9s1.14-1.42 1.14-2.465c0-0.93-0.34-1.67-1.02-2.225s-1.54-0.835-2.585-0.835c-1.02 0-1.83 0.27-2.43 0.815a4.784 4.784 0 0 0-1.31 2.005l-3.435-1.43c0.455-1.29 1.29-2.43 2.515-3.415s2.79-1.48 4.69-1.48c1.405 0 2.67 0.27 3.79 0.815s2 1.3 2.635 2.26c0.635 0.965 0.95 2.045 0.95 3.245 0 1.225-0.295 2.26-0.885 3.11s-1.315 1.5-2.175 1.955v0.205a6.605 6.605 0 0 1 2.79 2.175c0.725 0.975 1.09 2.14 1.09 3.5s-0.345 2.575-1.035 3.64-1.645 1.905-2.855 2.515c-1.215 0.61-2.58 0.92-4.095 0.92-1.755 5e-3 -3.375-0.5-4.87-1.51zm21.315-17.22-3.81 2.755-1.905-2.89 6.835-4.93h2.62v23.255h-3.74v-18.19z" fill="#4285F4"/>
</svg>