<?xml version="1.0" encoding="UTF-8"?>
<svg width="114.95mm" height="114.95mm" version="1.1" viewBox="0 0 407.29 407.29" xmlns="http://www.w3.org/2000/svg" xmlnsRdf="http://www.w3.org/1999/02/22-rdf-syntax-ns#">
<g transform="matrix(1 0 0 1 -2.2895 9.9417)" fill="#23234b">
<rect x="2.2896" y="-9.9418" width="407.29" height="407.29" ry="36.843" fill="#23234b"/>
</g>
<g transform="matrix(3.4858 0 0 3.4858 64.168 116.53)">
<path fill="#00A8E1" d="m1.15 29.2c-0.215 0.01-0.426-0.061-0.59-0.2-0.14-0.167-0.205-0.384-0.18-0.6v-20.4c-0.025-0.216 0.04-0.433 0.18-0.6 0.166-0.126 0.372-0.186 0.58-0.17h2.22c0.42-0.042 0.798 0.253 0.86 0.67l0.22 0.8c0.639-0.617 1.394-1.103 2.22-1.43 0.845-0.342 1.748-0.519 2.66-0.52 1.818-0.06 3.556 0.749 4.68 2.18 1.238 1.706 1.853 3.785 1.74 5.89 0.034 1.528-0.259 3.045-0.86 4.45-0.496 1.17-1.302 2.183-2.33 2.93-0.994 0.678-2.177 1.028-3.38 1-0.817 4e-3 -1.629-0.131-2.4-0.4-0.709-0.238-1.364-0.612-1.93-1.1v6.72c0.022 0.214-0.038 0.429-0.17 0.6-0.171 0.132-0.386 0.192-0.6 0.17zm6.73-9.36c0.988 0.071 1.944-0.371 2.53-1.17 0.623-1.118 0.905-2.394 0.81-3.67 0.096-1.288-0.182-2.576-0.8-3.71-0.588-0.807-1.554-1.25-2.55-1.17-1.057 1e-3 -2.093 0.287-3 0.83v8.05c0.9 0.56 1.94 0.854 3 0.85z"/>
<path fill="#00A8E1" d="m19.54 22.88c-0.358 0.067-0.703-0.169-0.77-0.528-0.015-0.08-0.015-0.162 0-0.242v-14.11c-0.025-0.216 0.04-0.433 0.18-0.6 0.166-0.126 0.372-0.186 0.58-0.17h2.21c0.42-0.042 0.798 0.253 0.86 0.67l0.4 1.64c0.657-0.769 1.442-1.419 2.32-1.92 0.716-0.375 1.512-0.57 2.32-0.57h0.43c0.217-0.019 0.434 0.041 0.61 0.17 0.14 0.167 0.205 0.384 0.18 0.6v2.58c0.017 0.208-0.043 0.414-0.17 0.58-0.167 0.14-0.384 0.205-0.6 0.18h-0.55-0.86c-0.578 0.012-1.154 0.079-1.72 0.2-0.59 0.109-1.166 0.28-1.72 0.51v10.25c0.016 0.208-0.044 0.414-0.17 0.58-0.167 0.14-0.384 0.205-0.6 0.18z"/>
<path fill="#00A8E1" d="m33.29 4.79c-0.682 0.034-1.351-0.195-1.87-0.64-0.482-0.451-0.741-1.091-0.71-1.75-0.034-0.663 0.225-1.307 0.71-1.76 1.096-0.877 2.654-0.877 3.75 0 0.482 0.451 0.741 1.091 0.71 1.75 0.031 0.659-0.228 1.299-0.71 1.75-0.52 0.451-1.193 0.684-1.88 0.65zm-1.47 18.1c-0.358 0.067-0.703-0.169-0.77-0.528-0.015-0.08-0.015-0.162 0-0.242v-14.12c-0.025-0.216 0.04-0.433 0.18-0.6 0.166-0.126 0.372-0.186 0.58-0.17h2.95c0.214-0.022 0.429 0.038 0.6 0.17 0.132 0.171 0.192 0.386 0.17 0.6v14.12c0.017 0.208-0.043 0.414-0.17 0.58-0.167 0.14-0.384 0.205-0.6 0.18z"/>
<path fill="#00A8E1" d="m40.1 22.88c-0.358 0.067-0.703-0.169-0.77-0.528-0.015-0.08-0.015-0.162 0-0.242v-14.11c-0.025-0.216 0.04-0.433 0.18-0.6 0.166-0.126 0.372-0.186 0.58-0.17h2.21c0.42-0.042 0.798 0.253 0.86 0.67l0.25 0.83c0.91-0.627 1.894-1.137 2.93-1.52 0.855-0.298 1.754-0.453 2.66-0.46 1.576-0.135 3.09 0.642 3.9 2 0.913-0.628 1.905-1.132 2.95-1.5 0.922-0.307 1.888-0.462 2.86-0.46 1.228-0.074 2.432 0.36 3.33 1.2 0.828 0.908 1.254 2.113 1.18 3.34v10.79c0.016 0.208-0.044 0.414-0.17 0.58-0.167 0.14-0.384 0.205-0.6 0.18h-2.91c-0.358 0.067-0.703-0.169-0.77-0.528-0.015-0.08-0.015-0.162 0-0.242v-9.84c0-1.393-0.623-2.09-1.87-2.09-1.162 0.013-2.307 0.287-3.35 0.8v11.14c0.017 0.208-0.043 0.414-0.17 0.58-0.167 0.14-0.384 0.205-0.6 0.18h-2.94c-0.358 0.067-0.703-0.169-0.77-0.528-0.015-0.08-0.015-0.162 0-0.242v-9.84c0-1.393-0.623-2.09-1.87-2.09-1.176 7e-3 -2.334 0.292-3.38 0.83v11.1c0.016 0.208-0.044 0.414-0.17 0.58-0.167 0.14-0.384 0.205-0.6 0.18z"/>
<path fill="#00A8E1" d="m73.92 23.34c-2.155 0.141-4.272-0.615-5.85-2.09-1.443-1.652-2.164-3.813-2-6-0.144-2.267 0.586-4.504 2.04-6.25 1.515-1.564 3.636-2.393 5.81-2.27 1.608-0.096 3.196 0.395 4.47 1.38 1.078 0.92 1.672 2.285 1.61 3.7 0.073 1.385-0.588 2.707-1.74 3.48-1.551 0.886-3.328 1.296-5.11 1.18-1.01 0.012-2.018-0.102-3-0.34 6e-3 1.106 0.452 2.164 1.24 2.94 0.933 0.662 2.069 0.977 3.21 0.89 0.558 0 1.116-0.037 1.67-0.11 0.762-0.118 1.516-0.279 2.26-0.48h0.33c0.347 0 0.52 0.237 0.52 0.71v1.41c0.019 0.239-0.029 0.478-0.14 0.69-0.142 0.167-0.33 0.288-0.54 0.35-1.53 0.563-3.15 0.838-4.78 0.81zm-1-9.63c0.787 0.057 1.574-0.109 2.27-0.48 0.478-0.327 0.748-0.882 0.71-1.46 0-1.287-0.767-1.93-2.3-1.93-1.967 0-3.103 1.207-3.41 3.62 0.893 0.171 1.801 0.255 2.71 0.25z"/>
<path fill="#00A8E1" d="m72.31 40.11c-8.76 6.46-21.46 9.89-32.39 9.89-14.606 0.078-28.716-5.295-39.57-15.07-0.82-0.74-0.09-1.75 0.9-1.18 12.058 6.885 25.705 10.501 39.59 10.49 10.361-0.055 20.61-2.152 30.16-6.17 1.52-0.63 2.76 0.93 1.31 2.04z"/>
<path fill="#00A8E1" d="m76 36c-1.12-1.43-7.4-0.68-10.23-0.34-0.86 0.1-1-0.64-0.22-1.18 5-3.52 13.23-2.5 14.18-1.32s-0.25 9.41-5 13.34c-0.72 0.6-1.41 0.28-1.09-0.52 1.07-2.69 3.44-8.59 2.36-9.98z"/>
</g>
</svg>
