<?xml version="1.0" encoding="UTF-8"?>
<svg width="114.95mm" height="114.95mm" version="1.1" viewBox="0 0 407.29 407.29" xmlns="http://www.w3.org/2000/svg"> 
<defs>
<linearGradient id="a" x1="23.748" x2="23.748" y1="7.3803" y2="47.234" gradientTransform="scale(1.4761 .67747)" gradientUnits="userSpaceOnUse">
<stop stop-color="#EFEFEE" offset="0"/>
<stop stop-color="#84827E" offset="1"/>
</linearGradient>
</defs>
<g transform="matrix(1 0 0 1 -2.2895 9.9417)" fill="#171a21">
<rect x="2.2896" y="-9.9418" width="407.29" height="407.29" ry="36.843" fill="#171a21" opacity=".998" stroke-linecap="square" stroke-width="2.8346" style="paint-order:stroke fill markers"/>
</g>
<g transform="matrix(9.2787 0 0 9.2787 -238.35 31.99)" stroke-width=".10104">
<path d="m56.542 5c-4.371 0-7.926 3.555-7.926 7.925 0 0.035 0 0.07 2e-3 0.103l-5.106 7.404c-0.827-0.036-1.657 0.108-2.444 0.432-0.347 0.141-0.672 0.315-0.977 0.515l-23.011-9.512c-0.387-1.791-1.612-3.372-3.428-4.13-2.945-1.226-6.339 0.172-7.567 3.118-1.227 2.944 0.172 6.338 3.117 7.565 1.426 0.594 2.998 0.597 4.428 0.01 0.329-0.136 0.639-0.304 0.935-0.491l23.062 9.534c0.398 1.774 1.618 3.332 3.418 4.081 2.945 1.229 6.34-0.171 7.566-3.113 0.318-0.768 0.467-1.575 0.445-2.38l7.306-5.212c0.06 2e-3 0.12 3e-3 0.18 3e-3 4.371 0 7.925-3.557 7.925-7.927s-3.554-7.925-7.925-7.925m-46.831 12.199c-1.712-0.713-2.747-2.376-2.747-4.126 0-0.572 0.11-1.151 0.344-1.709 0.945-2.273 3.564-3.352 5.835-2.406 1.072 0.446 1.871 1.264 2.325 2.241l-2.641-1.092c-1.674-0.697-3.598 0.095-4.297 1.77-0.697 1.676 0.096 3.602 1.77 4.299l2.649 1.094c-1.055 0.385-2.197 0.365-3.238-0.071m37.681 10.731c-0.949 2.272-3.565 3.351-5.839 2.405-1.049-0.437-1.841-1.236-2.298-2.189l2.58 1.068c1.677 0.698 3.601-0.096 4.298-1.77 0.699-1.675-0.094-3.599-1.77-4.297l-2.667-1.103c1.029-0.39 2.199-0.404 3.292 0.05 1.102 0.458 1.957 1.319 2.41 2.421 0.454 1.102 0.452 2.317-6e-3 3.415m9.15-9.723c-2.911 0-5.28-2.37-5.28-5.282 0-2.91 2.369-5.28 5.28-5.28s5.281 2.37 5.281 5.28c0 2.912-2.37 5.282-5.281 5.282m8e-3 -1.324c-2.189 0-3.965-1.775-3.965-3.966s1.776-3.968 3.965-3.968c2.191 0 3.968 1.777 3.968 3.968s-1.777 3.966-3.968 3.966" fill="url(#a)" stroke-width=".011345"/>
</g>
</svg>

