<?xml version="1.0" encoding="UTF-8"?>
<svg width="114.95mm" height="114.95mm" version="1.1" viewBox="0 0 407.29 407.29" xmlns="http://www.w3.org/2000/svg" xmlns:xlink="http://www.w3.org/1999/xlink">
<defs>
<linearGradient id="b" x1="-496.53" x2="-820.27" y1="1010.3" y2="966.4" gradientTransform="matrix(.1845 0 0 .1845 176.96 -162.35)" gradientUnits="userSpaceOnUse">
<stop stop-color="#0cffff" stop-opacity=".99608" offset="0"/>
<stop stop-color="#0069e3" stop-opacity=".61176" offset=".47445"/>
<stop stop-color="#0066e2" stop-opacity="0" offset="1"/>
</linearGradient>
<linearGradient id="a" x1="216.05" x2="217.45" y1="-7.465" y2="432.22" gradientUnits="userSpaceOnUse">
<stop stop-color="#0a0e36" offset="0"/>
<stop stop-color="#1d3d8c" offset="1"/>
</linearGradient>
</defs>
<g transform="translate(-2.2896 9.9418)" fill="url(#a)">
<rect x="2.2896" y="-9.9418" width="407.29" height="407.29" ry="36.843" fill="url(#a)" opacity=".998" stroke-linecap="square" stroke-width="2.8346" style="paint-order:stroke fill markers"/>
</g>
<g transform="matrix(3.5476 0 0 3.699 25.746 96.629)" stroke-width=".25878">
<path d="m69.415 35.701c-1.2558 0.29452-4.5722 0.45813-4.5722 0.45813l-0.40785 1.3308s1.6421-0.14181 2.8442-0.0218c0 0 0.38638-0.0327 0.42932 0.43632 0.0215 0.47995-0.0322 0.9817-0.0322 0.9817s-0.0322 0.29452-0.42932 0.37087c-0.46152 0.0764-3.5741 0.21817-3.5741 0.21817l-0.50444 1.7235s-0.18246 0.39265 0.23612 0.28357c0.38638-0.10905 3.6492-0.74173 4.0785-0.65446 0.45078 0.10907 0.96597 0.74175 0.8157 1.309-0.17173 0.68721-3.4345 2.8034-5.4094 2.6616 0 0-1.0411 0.0654-1.9105-1.3635-0.83716-1.3635 0.28979-3.9269 0.28979-3.9269s-0.50445-1.1999-0.1288-1.6362c0 0 0.21466-0.18545 0.85864-0.23999l0.80496-1.6798s-0.91229 0.0546-1.4489-0.62174c-0.49371-0.65446-0.53664-0.93808-0.15026-1.1126 0.40786-0.21816 4.1858-0.90535 6.7832-0.81808 0 0 0.91229-0.10909 1.7173 1.4944 0 0 0.36492 0.65449-0.27905 0.8072m-9.7991 6.4575c-0.32199 0.79629-1.2128 1.6362-2.2861 1.1235-1.0948-0.5236-2.8228-4.1014-2.8228-4.1014s-0.64396-1.3308-0.77276-1.2871c0 0-0.13953-0.26179-0.21465 1.1999-0.10733 1.4508 0.02148 4.2759-0.56884 4.7231-0.53665 0.43633-1.1806 0.25089-1.5455-0.26178-0.30052-0.51267-0.42932-1.7453-0.25759-3.8941 0.1932-2.1489 0.67618-4.4395 1.288-5.1486 0.64398-0.71992 1.1592-0.19634 1.3523 0 0 0 0.82643 0.76357 2.2217 3.0215l0.23612 0.4145s1.2665 2.1489 1.3953 2.138c0 0 0.10733 0.10908 0.1932 0.0219 0.12879-0.0327 0.0859-0.73083 0.0859-0.73083s-0.23613-2.3234-1.4168-6.2503c0 0-0.17172-0.50175-0.0536-0.98171 0.10733-0.43634 0.56885-0.21816 0.56885-0.21816s1.7816 0.87264 2.651 3.8178c0.85863 2.9451 0.27906 5.6176-0.043 6.4139m-8.7473-7.5592c-0.17173 0.30543-0.24686 0.73083-0.98743 0.85082 0 0-7.191 0.51268-7.5452 1.0254 0 0-0.23612 0.30541 0.15026 0.38177 0.40785 0.0873 2.0393 0.30543 2.812 0.34906 0.83717 0 3.6492 0.0218 4.6795 1.309 0 0 0.59031 0.61085 0.56884 1.9961-0.02148 1.418-0.26832 1.9198-0.8157 2.4325-0.56884 0.47996-5.4416 2.7052-8.5863-0.69812 0 0-1.4382-1.6362 0.50445-2.8797 0 0 1.3953-0.87264 4.9693 0.14179 0 0 1.0733 0.39269 1.0304 0.79629-0.0644 0.43631-0.89083 0.87264-2.0929 0.85082-1.1592-0.0327-2.0178-0.59993-1.8461-0.50177 0.16099 0.0545-1.2558-0.69811-1.6958-0.18543-0.42931 0.47997-0.32198 0.76356 0.10733 1.0581 1.0733 0.63266 5.2913 0.4036 6.5471-1.0253 0 0 0.50445-0.57812-0.25759-1.0472-0.7513-0.43631-2.9408-0.70902-3.7887-0.74174-0.80497-0.0436-3.8209 0-4.2717-0.79629 0 0-0.42932-0.56721 0.04296-2.1161 0.49371-1.6362 4.0034-2.2689 5.5274-2.3998 0 0 4.1858-0.17453 4.9693 0.69811 0 0 0.10733 0.19634-0.02148 0.49086m-11.871 9.599c-0.50444 0.3818-1.5777 0.21818-1.889-0.21813-0.30052-0.38179-0.40785-1.8871-0.35419-4.2541 0.07513-2.4216 0.10733-5.3885 0.64398-5.8685 0.53664-0.46904 0.85863-0.0545 1.0733 0.26179 0.21465 0.32723 0.49371 0.68722 0.53664 1.4398 0.0644 0.76357 0.24686 4.6904 0.24686 4.6904s0.23612 3.5778-0.24686 3.9486m1.0626-12.762c-1.4811 0.51267-2.49 0.34906-3.3487-0.0327-0.37565 0.68722-0.60104 0.89447-0.8801 0.9381-0.42932 0.0436-0.80497-0.65448-0.85863-0.87264-0.08586-0.16361-0.28979-0.45811-0.04296-1.1235-0.83716-0.76356-0.90156-1.7889-0.7513-2.4761 0.19319-0.80718 1.6099-3.8396 5.9031-4.1995 0 0 2.1036-0.15272 2.4686 0.98169h0.0644s2.0392 0 1.9963 1.8544c0 1.8543-2.2539 4.1668-4.5508 4.9631m1.9105-5.3122c-1.3523 0.21818-3.4345 2.0507-4.4327 3.5669 1.5348 0.2836 4.218 0.17452 5.4201-2.2907 0 0 0.56884-1.5489-0.98743-1.2762m-5.9353 1.1999c-0.42932 0.70903-0.45078 1.1344-0.24686 1.418 0.50445-0.76356 1.3953-1.9634 2.7369-2.9015-1.0304 0.10907-1.8997 0.54538-2.49 1.4835m36.567 16.766c-0.98743 2.4652-1.8246 4.9631-2.3076 8.7045 0 0-0.10733 0.73085-0.69764 0.49089-0.59031-0.21817-1.5563-1.1999-1.7709-2.5852-0.21465-1.8107 0.57959-4.865 2.2002-8.3773-0.47225-0.76357-0.80496-1.898-0.53664-3.4906 0 0 0.42932-2.9452 3.3272-5.6067 0 0 0.34345-0.29451 0.53664-0.19633 0.23613 0.10906 0.13953 1.0472-0.0536 1.5271-0.17172 0.45814-1.4597 2.727-1.4597 2.727s-0.80497 1.5489-0.57958 2.7597c1.5241-2.378 4.9908-7.1993 7.1374-5.6721 1.3631 0.98171 1.3631 4.145 0.34346 5.9776-0.80497 1.4508-3.0804 4.4504-6.1178 3.7523m4.4649-7.4174c-0.79424 0.87262-2.211 2.5306-3.3272 4.7777 1.1806-0.13089 2.329-0.79626 2.6832-1.1344 0.56885-0.51268 1.8783-1.898 1.6743-3.7305 0 0-0.1288-0.95991-1.0304 0.0873m-48.083 8.6936c-3.7994 1.1781-7.3842 0.63266-9.3376 0.1091-0.05364 0.80717-0.13953 1.1453-0.26832 1.2762-0.15026 0.17453-1.3953 0.89443-2.0822-0.1309-0.30052-0.49087-0.45077-1.3744-0.53664-2.1816-4.4005-2.0289-6.4397-5.0177-6.5041-5.1267-0.10732-0.10906-1.1055-1.1672-0.10732-2.4761 0.93377-1.178 4.0248-2.367 6.7939-2.836 0.10732-2.3998 0.36491-4.2541 0.69764-5.0722 0.39711-0.98174 0.90156-0.1091 1.3523 0.54538 0.36492 0.49085 0.59031 2.5961 0.61178 4.2759 1.8031-0.0873 2.8979 0.0436 4.9049 0.43631 2.6403 0.45816 4.4005 1.8325 4.261 3.3815-0.1288 1.5271-1.5026 2.1598-2.0393 2.2034-0.53664 0.0436-1.3953-0.35999-1.3953-0.35999-0.60104-0.2836-0.05364-0.54538 0.64398-0.85081 0.77277-0.38177 0.60104-0.76356 0.60104-0.76356-0.27906-0.87263-3.7029-1.4508-7.1052-1.4508 0 1.9089 0.07513 5.0722 0.1288 6.9156 2.3827 0.45812 4.1644 0.35996 4.1644 0.35996s8.6937-0.25088 8.9405-5.8903c0.26832-5.6503-8.6937-11.061-15.294-12.762-6.59-1.7562-10.325-0.51268-10.647-0.34904-0.35419 0.17452-0.03222 0.23996-0.03222 0.23996s0.35419 0.0545 0.99816 0.27271c0.64397 0.21814 0.1288 0.54539 0.1288 0.54539-1.127 0.3927-2.3827 0.16362-2.6296-0.35996-0.24687-0.51267 0.161-0.98172 0.64396-1.6689 0.45078-0.70901 0.96596-0.68719 0.96596-0.68719 8.157-2.8906 18.117 2.2907 18.117 2.2907 9.3162 4.7777 10.905 10.395 10.733 12.577-0.15026 2.1489-0.96596 5.7812-6.7081 7.5483m-17.924-7.8101c-0.92302 0.43634-0.27904 1.1344-0.27904 1.1344 1.7387 1.8871 3.8638 3.076 5.9031 3.8178 0.23612-3.2724 0.21465-4.4395 0.21465-6.0866-3.1555 0.21817-4.98 0.74176-5.8387 1.1344" fill="#fff"/>
<path d="m87.624 30.706c-0.34894 0-0.65886 0.27762-0.62985 0.6198 0.15848 1.8703 0.3031 3.5841 0.40349 5.2683h-4.8715c-0.34894 0-0.62986 0.27644-0.62986 0.6198v1.0847c0 0.34336 0.28092 0.61978 0.62986 0.61978h4.9798c0.0513 1.6393 0.0523 3.2919-0.0393 5.0649-0.0177 0.34292 0.28092 0.6198 0.62985 0.6198h1.1416c0.34893 0 0.60497-0.27731 0.62985-0.6198 0.12237-1.6844 0.17355-3.3762 0.14762-5.0649h5.1864c0.34893 0 0.62985-0.27642 0.62985-0.61978v-1.0847c0-0.34336-0.28092-0.6198-0.62985-0.6198h-5.2848c-0.11111-1.7666-0.30823-3.524-0.63969-5.2683-0.0641-0.33751-0.28091-0.6198-0.62985-0.6198z" fill="#fff" fill-rule="evenodd"/>
<path d="m53.735 2.4659c-15.047 0-27.785 7.7422-32.079 18.419l2.4021 1.571c2.4217-9.3967 14.721-17.859 29.776-17.859 16.416 0 29.181 13.77 31.66 22.773l2.1115-0.0202c-0.9897-7.393-14.414-24.884-33.871-24.884z" fill="url(#b)" fill-rule="evenodd" stroke-width="0"/>
</g>
</svg>
