<?xml version="1.0" encoding="UTF-8"?>
<svg width="114.95mm" height="114.95mm" version="1.1" viewBox="0 0 407.29 407.29" xmlns="http://www.w3.org/2000/svg">
<g transform="translate(-2.2896 9.9418)" fill="#010101">
<rect x="2.2896" y="-9.9418" width="407.29" height="407.29" ry="36.843" fill="#010101" opacity=".998" />
</g>
<path d="m199.46 69.894c-82.424 0-145.47 62.576-145.47 145 0 65.903 41.479 122.3 100.73 142.15 7.6065 1.3668 10.281-3.3278 10.281-7.1905 0-3.6844-0.17829-24.008-0.17829-36.488 0 0-41.598 8.9139-50.334-17.709 0 0-6.7746-17.293-16.52-21.75 0 0-13.609-9.3299 0.95082-9.1516 0 0 14.797 1.1885 22.938 15.332 13.014 22.938 34.824 16.342 43.322 12.42 1.3668-9.5082 5.2295-16.104 9.5082-20.027-33.219-3.6844-66.735-8.4979-66.735-65.666 0-16.342 4.5164-24.543 14.025-35.002-1.5451-3.8627-6.5963-19.789 1.5451-40.35 12.42-3.8627 41.004 16.045 41.004 16.045 11.885-3.3279 24.662-5.0512 37.32-5.0512 12.658 0 25.434 1.7234 37.32 5.0512 0 0 28.584-19.967 41.004-16.045 8.1414 20.621 3.0902 36.488 1.5451 40.35 9.5082 10.518 15.332 18.719 15.332 35.002 0 57.346-35.002 61.922-68.221 65.666 5.4672 4.6947 10.102 13.609 10.102 27.574 0 20.027-0.17828 44.807-0.17828 49.68 0 3.8627 2.7336 8.5573 10.281 7.1905 59.426-19.729 99.717-76.125 99.717-142.03 0-82.424-66.854-145-149.28-145z" fill="#f8f8ff"/>
</svg>
