<?xml version="1.0" encoding="UTF-8"?>
<svg width="114.95mm" height="114.95mm" version="1.1" viewBox="0 0 407.29 407.29" xmlns="http://www.w3.org/2000/svg">
<g transform="matrix(1 0 0 1 .32026 12.466)">
<rect x="-.32026" y="-12.466" width="407.29" height="407.29" ry="36.843" fill="#102010" stroke-linecap="square"/>
</g>
<path d="m203.65 68.245c-74.78 0-135.4 60.622-135.4 135.4 0 74.783 60.624 135.4 135.4 135.4 74.788 0 135.41-60.618 135.41-135.4 0-74.775-60.618-135.4-135.41-135.4zm62.095 195.29c-2.4253 3.9776-7.6318 5.2388-11.609 2.7972-31.791-19.419-71.813-23.817-118.95-13.048-4.5418 1.0348-9.0691-1.8109-10.104-6.3544-1.0396-4.5435 1.7947-9.0708 6.3479-10.106 51.579-11.784 95.822-6.7101 131.51 15.102 3.9775 2.4415 5.2388 7.6318 2.7971 11.609zm16.573-36.869c-3.056 4.9671-9.5558 6.5355-14.52 3.4796-36.397-22.371-91.877-28.85-134.93-15.783-5.5832 1.6864-11.48-1.46-13.175-7.0335-1.6816-5.5831 1.4665-11.469 7.04-13.166 49.175-14.921 110.31-7.6932 152.1 17.991 4.9638 3.056 6.5323 9.5559 3.4763 14.513zm1.4229-38.392c-43.64-25.921-115.64-28.304-157.31-15.658-6.6908 2.0292-13.766-1.7479-15.794-8.4386-2.0275-6.694 1.7463-13.765 8.4418-15.799 47.83-14.52 127.34-11.714 177.58 18.113 6.0311 3.5717 8.0036 11.344 4.4302 17.354-3.5572 6.0181-11.351 8.002-17.349 4.4287z" fill="#1ed760" stroke-width=".9375"/>
</svg>
