<svg version="1.1" viewBox="0 0 48 48" xml:space="preserve" xmlns="http://www.w3.org/2000/svg"><defs><clipPath id="a"><path d="m0 0h400.01v400h-400.01z"/></clipPath></defs><g transform="matrix(.12 0 0 -.12 -.000408 48)"><g clip-path="url(#a)"><g transform="translate(400 381.45)"><path d="m0 0v-362.89c0-9.908-8.565-18.563-17.966-18.563h-363.26c-10.207 0-18.78 8.655-18.78 18.563v362.89c0 10.299 8.573 18.55 18.78 18.55h363.26c9.401 0 17.966-8.251 17.966-18.55" fill="#08a9bd"/></g><g transform="translate(163.79 248.15)"><path d="m0 0c0 4.941-3.205 8.127-8.141 8.127h-6.445c-5.585 0-8.094-2.781-9.983-11.078l-18.241-79.257h-4.061c-6.151 0-8.725 1.547-10.904 10.227l-18.223 69.094-0.202 0.756c-1.391 5.281-2.704 10.258-8.997 10.258h-6.828c-5.497 0-8.522-2.882-8.522-8.127 0-3.189 0.866-7.933 2.725-14.981l19.366-69.069c3.472-13.034 10.544-18.605 23.629-18.605h7.767c-0.82-4.336-2.574-13.269-3.669-16.662-3.551-11.056-9.053-13.377-18.528-13.377-7.823 0-12.956 0.604-16.704 1.041-2.252 0.258-4.047 0.473-5.696 0.473-4.451 0-6.994-2.688-6.994-7.375v-4.553c0-5.206 2.675-6.801 5.379-7.951 4.612-2.092 10.405-3.224 27.81-3.224 17.458 0 30.415 9.356 34.641 25.057 7.671 28.482 28.27 114.98 28.473 115.82 0 0 2.348 9.15 2.348 13.408" fill="#fff"/></g><g transform="translate(215.43 296.74)"><path d="m0 0c0 8.929-0.92 17.629-11.939 17.629h-16.317c-2.946 0-10.793 0-10.793-7.753v-7.22c0-3.037 1.501-8.125 11.543-8.125h4.015v-135.74c0-7.249 1.478-11.17 9.268-11.17h5.317c7.391 0 8.906 4.462 8.906 11.17z" fill="#fff"/></g><g transform="translate(316.69 212.12)"><path d="m0 0-49.486-0.041c0.746 20.386 8.501 29.11 25.53 29.121 16.774 4e-3 23.459-9.922 23.956-29.08m21.594-4.923c0 22.171-5.097 52.134-45.959 52.134-34.241 0-49.51-18.675-49.51-60.528 0-40.793 14.246-55.958 52.549-55.958 17.091 0 28.315 2.339 32.694 4.345 2.748 1.166 5.423 2.734 5.423 7.974v4.162c0 4.697-2.545 7.377-6.992 7.377-1.561 0-3.155-0.314-5.167-0.709-3.935-0.774-9.876-1.948-21.409-1.948-28.741 0-32.336 5.186-33.16 28.911h54.285c13.079 0 17.246 5.689 17.246 14.24" fill="#fff"/></g></g></g></svg>

