<?xml version="1.0" encoding="UTF-8"?>
<svg width="25.042mm" height="25.042mm" version="1.1" viewBox="0 0 25.042 25.042" xmlns="http://www.w3.org/2000/svg">
<g transform="translate(-83.73 -108.24)">
<g stroke-linecap="round">
<path d="m87.635 108.24c-0.95006-7e-5 -1.8612 0.3774-2.5332 1.049-1.4001 1.3994-1.4001 3.6685 0 5.0679l6.0834 6.3112-6.4053 6.1743c-1.4001 1.3994-1.4001 3.6685 0 5.0679 1.3994 1.4001 3.669 1.4001 5.0684 0l6.3102-6.0828 6.1738 6.4048c1.3994 1.4001 3.669 1.4001 5.0684 0 1.4001-1.3994 1.4001-3.669 0-5.0684l-6.0823-6.3097 6.4053-6.1743c0.67211-0.67243 1.0491-1.584 1.0485-2.5347 7e-5 -0.95006-0.37688-1.8612-1.0485-2.5332-1.3994-1.4001-3.669-1.4001-5.0684 0l-6.3102 6.0828-6.1748-6.4058c-0.67243-0.67211-1.5845-1.0496-2.5352-1.049z" color="#000000" fill="#fff" style="paint-order:stroke fill markers"/>
<path d="m87.636 111.82 17.23 17.23" color="#000000" fill="#a50000" fill-opacity=".21467" stroke-width="7.166" style="paint-order:stroke fill markers"/>
</g>
<path d="m104.87 131.02-17.23 17.23" color="#000000" fill="#a50000" fill-opacity=".21467" stroke-linecap="round" stroke-width="7.166" style="paint-order:stroke fill markers"/>
</g>
</svg>
