<?xml version="1.0" encoding="UTF-8"?>
<svg width="114.95mm" height="114.95mm" version="1.1" viewBox="0 0 407.29 407.29" xmlns="http://www.w3.org/2000/svg">
<g transform="matrix(1 0 0 1 -2.2895 9.9417)" fill="#1e1e20">
<rect x="2.2896" y="-9.9418" width="407.29" height="407.29" ry="36.843" fill="#1e1e20"/>
</g>
<g transform="matrix(.9488 0 0 .9488 108.77 61.326)">
<path fill="#0acf83" d="m50 300c27.6 0 50-22.4 50-50v-50h-50c-27.6 0-50 22.4-50 50s22.4 50 50 50z"/>
<path fill="#a259ff" d="m0 150c0-27.6 22.4-50 50-50h50v100h-50c-27.6 0-50-22.4-50-50z"/>
<path fill="#f24e1e" d="m0 50c0-27.6 22.4-50 50-50h50v100h-50c-27.6 0-50-22.4-50-50z"/>
<path fill="#ff7262" d="m100 0h50c27.6 0 50 22.4 50 50s-22.4 50-50 50h-50z"/>
<path fill="#1abcfe" d="m200 150c0 27.6-22.4 50-50 50s-50-22.4-50-50 22.4-50 50-50 50 22.4 50 50z"/>
</g>
</svg>
