<?xml version="1.0" encoding="UTF-8"?>
<svg width="114.95mm" height="114.95mm" version="1.1" viewBox="0 0 407.29 407.29" xmlns="http://www.w3.org/2000/svg"><title>Habitica</title><g transform="matrix(1 0 0 1 -2.2891 9.9417)" fill="#3b2264"><rect x="2.2896" y="-9.9418" width="407.29" height="407.29" ry="36.843" fill="#3b2264" opacity=".998" strokeLinecap="square" strokeWidth="2.8346" style="paint-order:stroke fill markers"/></g><g transform="matrix(9.5545 0 0 9.5545 75.202 70.852)" fill="#fff" fill-rule="evenodd"><path d="m24.052 26.3c-0.832-0.09-0.841-0.462-0.832-5.421 0 0-0.083-0.312 0.395-0.582 0.477-0.27 1.93-2.679 1.037-4.734-0.892-2.056-0.248-1.952 0.125-1.744 0.374 0.208 0.554-0.055 0.332-1.183-0.457-2.325-1.17-3.113-2.851-4.162-1.104-0.69-0.704-1.94 0.866-1.848 0.766 0.045 0.766 0.046 0.862-0.555 0.152-0.947-0.15-2.565-1.327-2.788-0.81-0.154-1.817 0.713-3.015 0.109s-3.178 0.904-3.988 1.254-1.479 0.354-2.403 0.331c-0.925-0.022 0.49 1.531 1.906 1.881 1.216 0.3 0.743 0.516 0.674 1.51-0.078 1.113 0.24 1.59-0.279 1.707-0.796 0.178-1.686-1.961-3.052-2.857-3.102-2.035-4.942-1.066-10.352-7.017-0.939-1.031-0.558 2.159 0.02 3.862 1.543 4.55 4.532 5.153 5.942 5.29 1.18 0.116 1.984-0.158 1.984 0.297 0 0.33-1.391 0.48-1.93 0.482a9.469 9.469 0 0 1-1.762-0.173c-1.073-0.2 0.569 2.535 1.624 3.402 1.78 1.465 3.818 2.014 5.456 2.18 0.473 0.048 1.146 0.04 1.146 0.41 0 0.352-0.354 0.438-0.773 0.441-2.294 0.017-3.612 1.849-3.986 3.967-0.237 1.346-0.06 2.868-0.035 4.005l0.09 0.812c0.18 1.426-4.948 1.975-5.627-0.322-0.743-2.51 3.309-3.837 3.383-6.232 0.047-1.509-1.333-2.194-1.333-2.194v-2.204h-1.589v-1.587h-1.586v-1.587h-1.587v4.761h1.587v1.589h2.613c0.594 0 1.07 0.392 1.015 1.24-0.137 2.093-4.589 3.379-3.365 6.716 0.884 2.41 4.696 2.441 8.513 2.441l7.118-6e-3c0.222 0 0.534-0.107 0.08-1.255-0.367-0.927-1.632-0.276-2.706-0.276-1.137 0-1.176-0.96-0.446-1.973 0.446-0.618 1.014-1.078 1.979-1.527 1.486-0.693 2.617 0.198 3.174 0.963 0.8 1.099 1.054 2.355 0.348 2.552-0.851 0.238-1.113 0.27-1.141 1.08-0.022 0.581 0.256 0.422 1.595 0.422h4.445c0.688 0 0.637-0.53-0.055-1.45-0.491-0.653-1.028 0.11-2.289-0.027z"/><path d="m0 10.827h1.587v-1.587h-1.587z"/></g></svg>

