<?xml version="1.0" encoding="UTF-8"?>
<svg width="114.95mm" height="114.95mm" version="1.1" viewBox="0 0 407.29 407.29" xmlns="http://www.w3.org/2000/svg"  xmlnsRdf="http://www.w3.org/1999/02/22-rdf-syntax-ns#" xmlnsXlink="http://www.w3.org/1999/xlink">
<defs>
<rect id="d" width="252.03" height="238.7"/>
<rect id="b" width="252.03" height="238.7"/>
</defs>
<g transform="matrix(1 0 0 1 -2.2895 9.9417)" fill="#ff671f">
<rect x="2.2896" y="-9.9418" width="407.29" height="407.29" ry="36.843" fill="#ff671f"/>
</g>
<g transform="matrix(2.592 0 0 2.592 -127.95 -65.956)" fill="#fff">
<clipPath id="c">
<use width="100%" height="100%" xlinkHref="#d"/>
</clipPath>
<path d="m114.49 113.43h-17.13l8.56-24.74zm26.5 26.15-24.59-69.45h-20.95l-24.59 69.44h17.45l4.25-12.29h26.72l4.25 12.29h17.46z"/>
<clipPath id="a">
<use width="100%" height="100%" xlinkHref="#b"/>
</clipPath>
<path class="st1" d="m185.06 89.22c0-13.39-10.66-20.87-25.93-20.87-14.77 0-26.17 7.65-26.17 21.19v2.18h15.62c0-6.47 4.39-9.36 10.36-9.36 5.49 0 9.38 2.93 9.38 7.41 0 3.57-2.04 5.99-6.57 8.54-6.57 3.7-10.58 8.03-10.58 18.38v1.54h15.7v-0.63c0-5.55 1.57-7.67 7.35-11.49 5.24-3.47 10.84-8.14 10.84-16.89" clipPath="url(#a)" fill="#fff"/>
<rect x="151.15" y="123.86" width="15.72" height="15.72"/>
</g>
</svg>