<?xml version="1.0" encoding="UTF-8"?>
<svg width="114.95mm" height="114.95mm" version="1.1" viewBox="0 0 407.29 407.29" xmlns="http://www.w3.org/2000/svg">
<title>Pirate Logo</title>
<path d="m335.66 356.06c-2.2895-0.55312-7.4683-3.0093-9.4985-4.5048-2.952-2.1746-4.4376-6.7948-5.2209-16.236-0.93448-11.264-1.3219-12.452-4.5197-13.858-2.8332-1.2452-18.248-5.4059-33.212-8.9646-18.25-4.3399-33.818-7.9974-41.524-9.755-4.2929-0.97921-13.325-3.0628-20.072-4.6304-18.467-4.2908-17.466-4.3034-39.873 0.49857-18.66 3.9989-48.525 10.561-68.374 15.024-14.426 3.2434-24.072 5.8364-25.714 6.9121-2.4376 1.5972-3.1781 3.4686-4.5106 11.398-2.1129 12.574-5.5414 17.62-13.681 20.134-5.9106 1.8256-9.3454 1.6235-14.736-0.8668-8.0428-3.716-12.188-8.7383-12.217-14.802-0.01658-3.8092 1.3441-8.1791 4.699-15.072 3.9486-8.1128 3.8562-9.6312-1.0316-16.953l-3.812-5.71 0.30031-5.0196c0.33359-5.576 2.0092-9.7155 5.3401-13.192 7.2664-7.5845 21.537-8.6188 26.905-1.9502 0.82824 1.0288 2.1821 3.7334 3.0085 6.0103 0.82647 2.2768 1.8348 4.351 2.2407 4.6091 2.2041 1.4017 16.545-0.13052 51.629-5.5149 11.249-1.7264 13.306-2.1293 12.907-2.5278-0.14502-0.145-3.6002-0.96615-7.6783-1.8248-41.448-8.7278-65.922-13.16-76.114-13.785-5.7113-0.35008-6.5003-0.25925-9.0514 1.0422-3.7913 1.9342-5.8041 4.0888-11.556 12.37-2.6997 3.8871-5.6275 7.5712-6.5062 8.1869-4.6901 3.2867-12.553 3.3047-19.176 0.0443-4.6689-2.2985-7.8254-5.758-9.6399-10.566-2.5734-6.818-0.75442-12.3 7.1934-21.678 7.5411-8.8987 7.3264-7.8685 3.7707-18.09-2.5251-7.2586-3.0246-9.439-3.0602-13.358-0.03651-4.0269 0.20662-5.1327 1.7357-7.8914 2.2827-4.1182 6.061-7.7514 10.398-9.9985 3.0439-1.5772 4.0732-1.7771 9.0541-1.7592 6.3373 0.0238 9.0981 1.0687 12.577 4.7643 2.8314 3.0075 4.1879 6.1497 6.1561 14.26 1.8761 7.7307 3.6903 11.991 6.0383 14.18 4.1006 3.8224 15.667 7.3213 50.159 15.173 13.48 3.0686 45.448 9.8766 58.384 12.434 3.606 0.7128 12.793 2.5394 20.417 4.0593l13.86 2.7633 10.805-2.1051c5.9426-1.1578 16.565-3.2236 23.605-4.5905 41.217-8.0028 95.2-20.138 107.43-24.15 7.4923-2.4581 10.74-6.4988 14.582-18.145 3.201-9.702 6.1297-12.581 14.232-13.992 10.42-1.8146 20.872 3.2758 23.264 11.33 1.5414 5.1906 1.244 8.1103-1.5267 14.982-1.3737 3.4072-2.4977 7.1066-2.4977 8.2208 0 2.4839 1.6248 5.5968 5.689 10.899 5.012 6.5392 6.1751 9.3342 6.1751 14.84 0 5.3063-1.2039 8.4694-4.5944 12.071-3.2746 3.4782-5.9007 4.4723-11.815 4.4723-6.4643 0-11.009-1.2885-13.567-3.8462-1.0696-1.0696-2.9724-4.0839-4.2285-6.6984-2.5427-5.2925-6.3328-9.8308-9.2261-11.047-3.0918-1.2998-5.7624-0.86649-48.047 7.7959-44.244 9.0635-50.266 10.347-50.266 10.716 0 0.38765 18.547 3.6828 38.714 6.878 18.51 2.9327 19.412 3.0394 22.314 2.6416 3.1338-0.42953 3.5393-0.90788 7.9953-9.4311 3.3486-6.405 6.8315-10.317 10.233-11.494 3.5217-1.2185 13.647-1.0384 16.28 0.28957 2.6107 1.3168 5.4306 3.8163 7.284 6.4564 3.0276 4.3129 4.6454 14.21 3.346 20.469-0.86472 4.1653-3.1422 7.0344-9.7709 12.309-4.0496 3.2224-6.4789 6.394-6.4789 8.4588 0 0.65582 1.1592 4.8375 2.5761 9.2927 4.0702 12.799 3.5315 18.227-2.3188 23.363-1.2728 1.1175-3.5814 2.575-5.1302 3.2389-2.841 1.2178-8.7433 1.9753-11.05 1.4181zm-260.41-118.25c-7.0809-0.81074-13.474-5.2938-16.527-11.589-1.3538-2.7915-1.554-4.275-1.9776-14.658-0.25926-6.3535-0.30189-18.577-0.09481-27.162 0.36014-14.93 0.44104-15.722 1.8542-18.163l1.4777-2.5526v-95.352l2.0294-4.0631c2.6741-5.354 6.1769-8.9697 10.771-11.119l3.7465-1.7524 256.01-0.36368 3.5855 1.9431c4.1746 2.2623 7.5857 5.3944 10.181 9.3477l1.8444 2.8099 0.3896 48.705c0.21434 26.788 0.60514 49.407 0.86857 50.266 0.26347 0.8586 0.92967 2.0807 1.4805 2.7158 1.1665 1.345 1.8288 12.632 1.856 31.627 0.0255 17.881-0.63275 24.904-2.6586 28.361-2.2073 3.7664-6.3509 7.6619-10.465 9.838l-3.3353 1.7643-128.63-0.0853c-70.747-0.0469-130.33-0.2799-132.41-0.51775zm63.397-7.359c3.4234-1.72 5.1786-4.8246 4.8317-8.5461-0.23863-2.559-0.67131-3.4351-2.5442-5.1515-1.8654-1.7095-2.7509-2.0681-5.1068-2.0681-5.4622 0-9.0255 3.4205-9.03 8.668-1e-3 2.3992 0.33335 3.0716 2.7254 5.4637 3.1014 3.1014 5.3881 3.5109 9.1238 1.634zm140.43-1.2621c1.362-1.2957 2.6693-3.124 2.9049-4.0629 1.0816-4.3093-1.7885-9.1249-6.1573-10.331-5.4236-1.4975-10.444 2.5833-10.389 8.4453 0.0259 2.7734 0.92977 4.6062 3.1 6.2857 2.0605 1.5946 2.9835 1.9107 5.7496 1.9696 1.8602 0.0396 2.8021-0.4137 4.7918-2.3065zm-106.07-4.5203c0.94634-0.6739 2.185-2.3858 2.7526-3.8042 0.85772-2.1436 0.90642-2.9618 0.2886-4.8473-1.5666-4.7803-3.7272-6.3271-8.8382-6.3271-2.0459 0-2.9007 0.4227-4.9022 2.4242-2.106 2.106-2.4242 2.7974-2.4242 5.2669 0 4.9301 2.0112 8.1486 5.5789 8.9277 0.88113 0.1921 1.883 0.42536 2.2264 0.51775 0.90225 0.24266 3.3306-0.74272 5.3182-2.1579zm72.208 0.57166c2.9807-1.8422 4.1686-4.4306 3.7989-8.278-0.2509-2.6113-0.67895-3.4821-2.558-5.2042-1.9067-1.7474-2.7181-2.0647-5.2319-2.046-3.3524 0.0247-5.128 0.82422-6.8862 3.1-2.8641 3.7071-2.1979 8.7246 1.5708 11.831 2.8233 2.3272 6.1606 2.5413 9.3064 0.59709zm-99.553-64.72c4.8236-2.1656 7.8253-5.005 10.027-9.4849 1.8787-3.8228 2.0083-4.5136 1.9991-10.65-8e-3 -6.2544-0.10872-6.7453-2.1126-10.458-2.3095-4.2784-5.875-7.5753-10.504-9.7128-2.377-1.0976-4.1264-1.3777-8.6035-1.3777-4.8439 0-6.0945 0.23314-9.0583 1.6888-9.6244 4.7268-15.162 16.382-12.154 25.578 2.3649 7.2291 5.757 11.153 12.427 14.373 3.4973 1.6889 4.2243 1.8124 9.41 1.5991 3.9896-0.1643 6.4756-0.61532 8.57-1.5557zm136.63-0.27262c3.3149-1.9489 6.866-5.3827 9.5698-9.2536 1.9115-2.7365 1.9627-2.9894 1.9627-9.6785 0-5.765-0.22144-7.3481-1.3777-9.8524-3.5176-7.6183-10.045-12.204-18.203-12.788-15.897-1.1374-27.851 14.76-22.119 29.414 2.3482 6.0034 6.7727 10.49 12.871 13.052 1.9952 0.83812 3.9925 1.053 8.5543 0.92017 5.1172-0.14917 6.3423-0.40325 8.7419-1.814zm-48.656-15.587c0.2952-0.46587 0.54102-6.1156 0.5463-12.555l8e-3 -11.708h-59.321v12.445c0 12.4 7e-3 12.446 1.4049 12.748 0.77271 0.16658 13.874 0.21594 29.114 0.10991 22.489-0.15642 27.81-0.35232 28.246-1.0398z" fill="#fff" style="paint-order:stroke fill markers"/>
</svg>
