<?xml version="1.0" encoding="UTF-8"?>
<svg width="114.95mm" height="114.95mm" version="1.1" viewBox="0 0 407.29 407.29" xmlns="http://www.w3.org/2000/svg">
<title>Pirate theater</title>
<defs>
<linearGradient id="a" x1="-58.368" x2="399.63" y1="33.19" y2="229.93" gradientUnits="userSpaceOnUse">
<stop stop-color="#620000" offset="0"/>
<stop stop-color="#c00" offset="1"/>
</linearGradient>
</defs>
<path d="m36.843 0c-20.399-8.8764e-15 -36.821 16.412-36.841 36.806v333.68c0.019883 20.381 16.423 36.784 36.804 36.804h333.68c20.394-0.01989 36.806-16.442 36.806-36.841v-333.61c0-20.411-16.432-36.843-36.843-36.843h-333.61z" fill="url(#a)" stroke-width="7.6642" style="paint-order:stroke fill markers"/>
<path d="m228.12 84.841c0 7.2424-10.955 3.5164-24.469 3.5164s-24.469 3.7261-24.469-3.5164c0-7.2424 10.955-13.114 24.469-13.114s24.469 5.8711 24.469 13.114z" fill="#fff" stroke-width="7.6642" style="paint-order:stroke fill markers"/>
<rect x="48.143" y="87.018" width="311.01" height="233.26" ry="23.323" fill="#a50000" fill-opacity=".21467" stroke="#fff" stroke-width="7.6642"/>
<path d="m267.28 285.56c-1.1036-0.26662-3.5999-1.4505-4.5785-2.1714-1.4229-1.0482-2.139-3.2753-2.5166-7.8262-0.45044-5.4297-0.63719-6.0022-2.1786-6.6797-1.3656-0.60022-8.7959-2.6058-16.009-4.3212-8.7967-2.0919-16.301-3.8549-20.016-4.7021-2.0693-0.472-6.423-1.4764-9.675-2.232-8.9017-2.0683-8.4189-2.0743-19.22 0.24032-8.9945 1.9276-23.39 5.0907-32.958 7.2418-6.9537 1.5634-11.603 2.8133-12.395 3.3318-1.175 0.76986-1.5319 1.672-2.1742 5.494-1.0185 6.0612-2.6711 8.4933-6.5944 9.7051-2.8491 0.87997-4.5047 0.78257-7.1029-0.41782-3.8768-1.7912-5.875-4.212-5.889-7.1347-8e-3 -1.8362 0.64788-3.9425 2.265-7.2652 1.9033-3.9106 1.8588-4.6425-0.49727-8.1716l-1.8375-2.7523 0.14476-2.4196c0.1608-2.6878 0.96849-4.6831 2.574-6.3589 3.5026-3.6559 10.381-4.1544 12.969-0.94003 0.39923 0.49591 1.0518 1.7996 1.4502 2.8971 0.39838 1.0975 0.8844 2.0973 1.08 2.2217 1.0624 0.67564 7.9752-0.0629 24.886-2.6583 5.4221-0.83219 6.4137-1.0264 6.2217-1.2184-0.0699-0.0699-1.7354-0.46571-3.7011-0.87962-19.979-4.207-31.776-6.3435-36.688-6.6446-2.753-0.16875-3.1333-0.12496-4.363 0.50237-1.8275 0.93234-2.7977 1.9709-5.5701 5.9626-1.3013 1.8736-2.7126 3.6495-3.1361 3.9463-2.2607 1.5842-6.0508 1.593-9.2434 0.0213-2.2505-1.1079-3.772-2.7755-4.6467-5.0929-1.2404-3.2864-0.36365-5.9288 3.4674-10.449 3.635-4.2894 3.5315-3.7928 1.8176-8.7196-1.2172-3.4988-1.4579-4.5498-1.4751-6.4387-0.0176-1.9411 0.0996-2.4741 0.83667-3.8038 1.1003-1.9851 2.9216-3.7364 5.012-4.8195 1.4672-0.76023 1.9634-0.85662 4.3643-0.84795 3.0547 0.0115 4.3855 0.51513 6.0625 2.2965 1.3648 1.4497 2.0187 2.9643 2.9674 6.8738 0.90432 3.7264 1.7788 5.78 2.9106 6.835 1.9766 1.8425 7.5518 3.529 24.178 7.3139 6.4975 1.4792 21.907 4.7608 28.142 5.9932 1.7382 0.34358 6.1667 1.2241 9.8412 1.9566l6.6809 1.332 5.2081-1.0147c2.8644-0.5581 7.9847-1.5538 11.378-2.2127 19.868-3.8575 45.889-9.7071 51.782-11.641 3.6115-1.1849 5.1767-3.1326 7.0289-8.7463 1.5429-4.6766 2.9547-6.0646 6.8601-6.7446 5.0229-0.87469 10.061 1.579 11.214 5.4615 0.743 2.502 0.59961 3.9093-0.73589 7.2217-0.66217 1.6424-1.2039 3.4256-1.2039 3.9626 0 1.1973 0.78318 2.6978 2.7422 5.2538 2.4159 3.152 2.9765 4.4993 2.9765 7.1532 0 2.5578-0.58031 4.0824-2.2146 5.8184-1.5784 1.6766-2.8443 2.1558-5.6949 2.1558-3.1159 0-5.3067-0.62108-6.5396-1.854-0.51557-0.51557-1.4328-1.9685-2.0382-3.2288-1.2256-2.5511-3.0526-4.7386-4.4472-5.3249-1.4903-0.62655-2.7776-0.41767-23.16 3.7578-21.326 4.3688-24.229 4.9877-24.229 5.1652 0 0.18685 8.9403 1.7752 18.661 3.3153 8.9225 1.4136 9.357 1.4651 10.756 1.2733 1.5106-0.20704 1.706-0.43762 3.8539-4.546 1.6141-3.0874 3.2929-4.973 4.9326-5.5403 1.6975-0.58734 6.5781-0.50052 7.8471 0.13958 1.2584 0.63473 2.6177 1.8396 3.511 3.1121 1.4594 2.0789 2.2392 6.8495 1.6128 9.8666-0.41681 2.0078-1.5146 3.3908-4.7098 5.9332-1.952 1.5533-3.123 3.082-3.123 4.0773 0 0.31612 0.55877 2.3318 1.2417 4.4793 1.9619 6.1693 1.7022 8.7856-1.1177 11.262-0.61351 0.53866-1.7263 1.2412-2.4729 1.5612-1.3694 0.58702-4.2145 0.95214-5.3262 0.68356zm-125.53-56.997c-3.4132-0.3908-6.4949-2.5518-7.9666-5.5863-0.65257-1.3456-0.74905-2.0606-0.95327-7.0653-0.12497-3.0625-0.14552-8.9543-0.0457-13.093 0.17359-7.1964 0.21259-7.5783 0.89378-8.755l0.71229-1.2304v-45.962l0.9782-1.9585c1.289-2.5807 2.9774-4.3236 5.192-5.3594l1.8059-0.84468 123.4-0.1753 1.7283 0.9366c2.0122 1.0905 3.6565 2.6002 4.9073 4.5058l0.88903 1.3544 0.1878 23.477c0.10332 12.912 0.29169 23.815 0.41867 24.229 0.127 0.41387 0.44812 1.003 0.71363 1.3091 0.56227 0.64833 0.88152 6.089 0.89461 15.245 0.0123 8.6192-0.305 12.004-1.2815 13.67-1.064 1.8155-3.0613 3.6932-5.0442 4.7421l-1.6077 0.85042-62.003-0.0411c-34.102-0.0226-62.822-0.13492-63.824-0.24957zm30.559-3.5472c1.6502-0.82906 2.4962-2.3256 2.329-4.1194-0.11502-1.2335-0.32358-1.6558-1.2264-2.4831-0.89917-0.82403-1.326-0.99688-2.4616-0.99688-2.6329 0-4.3505 1.6487-4.3526 4.1782-9e-4 1.1565 0.16068 1.4806 1.3137 2.6336 1.4949 1.4949 2.5972 1.6924 4.3979 0.78763zm67.692-0.60835c0.65654-0.62457 1.2867-1.5058 1.4002-1.9584 0.52134-2.0772-0.86211-4.3984-2.968-4.9799-2.6143-0.72182-5.0341 1.2452-5.0077 4.0708 0.0125 1.3368 0.44817 2.2203 1.4943 3.0298 0.99321 0.76861 1.4381 0.92102 2.7714 0.94941 0.89667 0.0191 1.3507-0.19942 2.3098-1.1118zm-51.127-2.1789c0.45616-0.32483 1.0532-1.15 1.3268-1.8337 0.41344-1.0333 0.43692-1.4277 0.13911-2.3365-0.75513-2.3042-1.7966-3.0498-4.2602-3.0498-0.98616 0-1.3982 0.20375-2.363 1.1685-1.0151 1.0152-1.1685 1.3484-1.1685 2.5388 0 2.3764 0.96946 3.9278 2.6891 4.3033 0.42472 0.0926 0.90766 0.20504 1.0732 0.24957 0.43491 0.11697 1.6054-0.35801 2.5635-1.0402zm34.806 0.27555c1.4368-0.88799 2.0093-2.1356 1.8311-3.9902-0.12094-1.2587-0.32727-1.6784-1.233-2.5085-0.91908-0.84228-1.3102-0.99522-2.5219-0.98621-1.616 0.0119-2.4718 0.39729-3.3193 1.4943-1.3805 1.7869-1.0594 4.2055 0.75719 5.7029 1.3609 1.1218 2.9696 1.225 4.4859 0.28781zm-47.987-31.196c2.3251-1.0438 3.772-2.4125 4.8332-4.572 0.90556-1.8427 0.96805-2.1757 0.96362-5.1337-4e-3 -3.0148-0.0524-3.2514-1.0183-5.041-1.1132-2.0623-2.8319-3.6515-5.0633-4.6818-1.1458-0.52905-1.989-0.66408-4.1471-0.66408-2.3349 0-2.9377 0.11238-4.3663 0.81403-4.6392 2.2784-7.3086 7.8964-5.8585 12.329 1.1399 3.4846 2.775 5.3758 5.99 6.9283 1.6858 0.81408 2.0362 0.87361 4.5358 0.77079 1.9231-0.0792 3.1214-0.2966 4.131-0.74987zm65.858-0.13141c1.5978-0.93942 3.3096-2.5946 4.6129-4.4604 0.92136-1.319 0.94608-1.441 0.94608-4.6653 0-2.7788-0.10674-3.542-0.66408-4.7491-1.6956-3.6722-4.842-5.8826-8.774-6.164-7.6625-0.54825-13.425 7.1146-10.662 14.178 1.1319 2.8938 3.2646 5.0565 6.2041 6.2913 0.96175 0.40399 1.9245 0.50755 4.1234 0.44354 2.4666-0.0719 3.0572-0.19437 4.2138-0.87438zm-23.453-7.5135c0.14229-0.22456 0.26078-2.9479 0.26333-6.0518l4e-3 -5.6435h-28.594v5.9988c0 5.9771 3e-3 5.9993 0.67722 6.1447 0.37246 0.0803 6.6876 0.10409 14.034 0.053 10.84-0.0754 13.405-0.16983 13.615-0.50122z" fill="#fff" style="paint-order:stroke fill markers"/>
<path d="m186.71 80.151-58.082-44.783" fill="#fff" stroke="#fff" stroke-linecap="round" stroke-width="7.6642" style="paint-order:stroke fill markers"/>
<path d="m219.96 80.016 58.29-44.512" fill="#fff" stroke="#fff" stroke-linecap="round" stroke-width="7.6642" style="paint-order:stroke fill markers"/>
<path d="m75.586 346.32 27.759-25.829" stroke="#fff" stroke-linecap="round" stroke-width="8.0225" style="paint-order:stroke fill markers"/>
<path d="m331.71 346.32-27.759-25.829" stroke="#fff" stroke-linecap="round" stroke-width="8.0225" style="paint-order:stroke fill markers"/>
</svg>
