<?xml version="1.0" encoding="UTF-8"?>
<svg width="114.95mm" height="114.95mm" version="1.1" viewBox="0 0 407.29 407.29" xmlns="http://www.w3.org/2000/svg">
<title>Pirate theater</title>
<defs>
<linearGradient id="a" x1="-58.368" x2="399.63" y1="33.19" y2="229.93" gradientUnits="userSpaceOnUse">
<stop stop-color="#620000" offset="0"/>
<stop stop-color="#c00" offset="1"/>
</linearGradient>
</defs>
<path d="m36.843 0c-20.399-8.8764e-15 -36.821 16.412-36.841 36.806v333.68c0.019883 20.381 16.423 36.784 36.804 36.804h333.68c20.394-0.01989 36.806-16.442 36.806-36.841v-333.61c0-20.411-16.432-36.843-36.843-36.843h-333.61z" fill="url(#a)" stroke-width="7.6642" style="paint-order:stroke fill markers"/>
<path d="m302.37 326.08c-1.7122-0.41364-5.585-2.2504-7.1032-3.3688-2.2076-1.6262-3.3186-5.0814-3.9043-12.142-0.69883-8.4238-0.98856-9.3121-3.38-10.363-2.1187-0.93121-13.646-4.0427-24.837-6.704-13.648-3.2455-25.29-5.9807-31.053-7.2951-3.2103-0.73228-9.9649-2.2905-15.01-3.4627-13.81-3.2088-13.061-3.2182-29.818 0.37285-13.954 2.9905-36.288 7.8979-51.132 11.235-10.788 2.4256-18.002 4.3646-19.23 5.1691-1.8229 1.1944-2.3767 2.594-3.3731 8.5236-1.5801 9.4035-4.144 13.177-10.231 15.057-4.4201 1.3652-6.9888 1.2141-11.02-0.64822-6.0146-2.779-9.1147-6.5347-9.1365-11.069-0.01241-2.8487 1.0051-6.1166 3.5141-11.271 2.9529-6.067 2.8838-7.2025-0.77148-12.678l-2.8507-4.2701 0.22459-3.7538c0.24947-4.1699 1.5026-7.2655 3.9935-9.8655 5.434-5.6719 16.106-6.4454 20.121-1.4584 0.61938 0.76937 1.6318 2.7919 2.2498 4.4947 0.61806 1.7027 1.3721 3.2538 1.6756 3.4468 1.6483 1.0482 12.373-0.0976 38.609-4.1242 8.412-1.2911 9.9505-1.5924 9.6526-1.8903-0.10845-0.10844-2.6923-0.72252-5.742-1.3647-30.996-6.5269-49.298-9.8416-56.92-10.309-4.2711-0.2618-4.8611-0.19387-6.7689 0.7794-2.8353 1.4465-4.3405 3.0577-8.6417 9.2506-2.0189 2.9068-4.2084 5.6619-4.8655 6.1224-3.5074 2.4579-9.3874 2.4714-14.341 0.0331-3.4916-1.7189-5.8521-4.306-7.209-7.9013-1.9244-5.0987-0.56418-9.1981 5.3794-16.212 5.6395-6.6547 5.4789-5.8843 2.8198-13.528-1.8883-5.4282-2.2619-7.0587-2.2885-9.9893-0.0273-3.0115 0.15452-3.8384 1.298-5.9014 1.7071-3.0797 4.5326-5.7967 7.7759-7.4772 2.2763-1.1794 3.046-1.329 6.7709-1.3155 4.7392 0.0178 6.8038 0.79919 9.4056 3.5628 2.1174 2.2491 3.1318 4.5989 4.6037 10.664 1.403 5.7813 2.7597 8.9673 4.5156 10.604 3.0666 2.8585 11.716 5.4751 37.51 11.347 10.08 2.2948 33.987 7.386 43.661 9.2982 2.6967 0.53305 9.5673 1.8991 15.268 3.0356l10.365 2.0665 8.08-1.5742c4.444-0.86586 12.388-2.4107 17.653-3.4329 30.823-5.9847 71.194-15.06 80.337-18.06 5.603-1.8383 8.0314-4.86 10.905-13.569 2.3938-7.2554 4.584-9.4088 10.643-10.464 7.7927-1.357 15.609 2.4497 17.398 8.4732 1.1527 3.8817 0.93026 6.0651-1.1417 11.204-1.0273 2.548-1.8678 5.3145-1.8678 6.1477 0 1.8576 1.2151 4.1855 4.2544 8.1509 3.7482 4.8902 4.6179 6.9804 4.6179 11.098 0 3.9682-0.90031 6.3337-3.4358 9.0268-2.4488 2.6011-4.4127 3.3445-8.8353 3.3445-4.8342 0-8.233-0.96356-10.146-2.8763-0.79987-0.79988-2.2229-3.054-3.1622-5.0093-1.9015-3.9579-4.7359-7.3517-6.8995-8.2613-2.3121-0.97205-4.3093-0.64799-35.931 5.83-33.087 6.778-37.59 7.7381-37.59 8.0135 0 0.28989 13.87 2.7541 28.952 5.1435 13.843 2.1931 14.517 2.273 16.687 1.9755 2.3435-0.32121 2.6468-0.67894 5.9791-7.0528 2.5042-4.7899 5.1088-7.7154 7.6527-8.5955 2.6336-0.91122 10.205-0.77652 12.174 0.21655 1.9524 0.98475 4.0612 2.854 5.4472 4.8283 2.2641 3.2253 3.474 10.627 2.5022 15.307-0.64666 3.115-2.3498 5.2606-7.3069 9.2051-3.0284 2.4098-4.8451 4.7816-4.8451 6.3257 0 0.49044 0.8669 3.6176 1.9264 6.9493 3.0438 9.5712 2.6409 13.63-1.7341 17.472-0.95182 0.8357-2.6782 1.9257-3.8365 2.4222-2.1246 0.91073-6.5385 1.4772-8.2633 1.0605zm-194.75-88.427c-5.2953-0.6063-10.076-3.9589-12.36-8.6667-1.0124-2.0876-1.1621-3.197-1.4789-10.961-0.19388-4.7514-0.22576-13.892-0.0709-20.313 0.26932-11.165 0.32982-11.757 1.3866-13.583l1.1051-1.9089v-71.307l1.5176-3.0385c1.9998-4.0038 4.6192-6.7078 8.0551-8.3148l2.8018-1.3105 191.45-0.27197 2.6814 1.4531c3.1219 1.6918 5.6728 4.0341 7.6134 6.9904l1.3793 2.1013 0.29136 36.423c0.16029 20.033 0.45254 36.948 0.64954 37.59 0.19703 0.64209 0.69523 1.556 1.1072 2.031 0.87233 1.0058 1.3676 9.4467 1.3879 23.652 0.0191 13.372-0.47319 18.624-1.9882 21.209-1.6507 2.8166-4.7494 5.7298-7.8258 7.3571l-2.4943 1.3194-96.194-0.0638c-52.907-0.0351-97.465-0.20932-99.019-0.38719zm47.41-5.5033c2.5601-1.2862 3.8727-3.608 3.6133-6.391-0.17845-1.9137-0.50202-2.5689-1.9026-3.8524-1.395-1.2784-2.0572-1.5466-3.819-1.5466-4.0848 0-6.7495 2.5579-6.7529 6.4822-1e-3 1.7942 0.24929 2.297 2.0381 4.0859 2.3193 2.3193 4.0294 2.6256 6.8231 1.222zm105.02-0.94382c1.0186-0.96898 1.9962-2.3362 2.1724-3.0383 0.80883-3.2226-1.3375-6.8239-4.6046-7.726-4.0559-1.1199-7.8101 1.9319-7.7692 6.3156 0.0194 2.074 0.69531 3.4447 2.3183 4.7006 1.5409 1.1924 2.2312 1.4289 4.2997 1.473 1.3911 0.0296 2.0955-0.30938 3.5834-1.7249zm-79.32-3.3804c0.7077-0.50396 1.634-1.7842 2.0584-2.8449 0.64143-1.6031 0.67785-2.215 0.21582-3.625-1.1715-3.5749-2.7873-4.7316-6.6094-4.7316-1.53 0-2.1692 0.31611-3.666 1.8129-1.5749 1.575-1.8129 2.092-1.8129 3.9388 0 3.6869 1.504 6.0938 4.172 6.6764 0.65893 0.14366 1.4082 0.3181 1.665 0.38719 0.67473 0.18147 2.4908-0.55543 3.9771-1.6138zm53.999 0.4275c2.2291-1.3777 3.1174-3.3133 2.8409-6.1906-0.18763-1.9528-0.50774-2.604-1.913-3.8918-1.4259-1.3068-2.0327-1.544-3.9126-1.53-2.5071 0.0185-3.8348 0.61637-5.1497 2.3183-2.1418 2.7722-1.6436 6.5245 1.1747 8.8476 2.1113 1.7403 4.6071 1.9005 6.9596 0.44652zm-74.448-48.399c3.6072-1.6195 5.852-3.7429 7.4984-7.0931 1.4049-2.8588 1.5019-3.3754 1.495-7.9647-6e-3 -4.6772-0.0813-5.0443-1.5799-7.8209-1.7271-3.1995-4.3935-5.665-7.8555-7.2635-1.7776-0.82079-3.0858-1.0303-6.434-1.0303-3.6224 0-4.5577 0.17435-6.7741 1.2629-7.1974 3.5349-11.339 12.251-9.0891 19.128 1.7685 5.4061 4.3053 8.3402 9.2931 10.749 2.6154 1.263 3.159 1.3554 7.037 1.1958 2.9836-0.12287 4.8426-0.46016 6.4089-1.1634zm102.17-0.20387c2.479-1.4574 5.1346-4.0253 7.1566-6.9201 1.4294-2.0464 1.4678-2.2356 1.4678-7.2379 0-4.3112-0.1656-5.4951-1.0303-7.3679-2.6306-5.6972-7.512-9.1266-13.612-9.563-11.888-0.85058-20.828 11.038-16.542 21.997 1.756 4.4896 5.0648 7.8449 9.6252 9.7606 1.4921 0.62677 2.9857 0.78743 6.3971 0.68813 3.8268-0.11155 4.743-0.30156 6.5374-1.3566zm-36.386-11.657c0.22076-0.34839 0.40459-4.5734 0.40854-9.389l6e-3 -8.7555h-44.362v9.3067c0 9.2731 5e-3 9.3076 1.0507 9.5331 0.57785 0.12458 10.375 0.16149 21.772 0.0822 16.818-0.11698 20.797-0.26348 21.123-0.77761z" fill="#fff" style="paint-order:stroke fill markers"/>
</svg>
