<?xml version="1.0" encoding="UTF-8"?>
<svg width="28.514mm" height="32.813mm" version="1.1" viewBox="0 0 28.514 32.813" xmlns="http://www.w3.org/2000/svg">
<g transform="translate(-81.957 -110.77)">
<path d="m85.559 110.77c-0.29215 5e-3 -0.58485 0.0449-0.87178 0.12196-0.9177 0.24582-1.7004 0.84597-2.1756 1.6686-0.35214 0.60958-0.50362 1.2798-0.47697 1.9348-0.01624 0.12645-0.02629 0.25427-0.02894 0.38293l-0.04858 24.827c-0.0097 0.47412 0.07428 0.92804 0.23306 1.3456 0.07789 0.25231 0.18375 0.50013 0.32143 0.73846 0.98934 1.7146 3.1818 2.3017 4.8958 1.3116l21.27-12.806c1.1292-0.65157 1.7694-1.8248 1.7921-3.0396 0.0331-1.271-0.61338-2.5196-1.7921-3.1998l-21.27-12.806c-0.56614-0.32668-1.2057-0.48935-1.8485-0.47904z" color="#000000" fill="#fff" stroke-linecap="round" style="paint-order:stroke fill markers"/>
<path d="m104.87 131.02-17.23 17.23" color="#000000" fill="#a50000" fill-opacity=".21467" stroke-linecap="round" stroke-width="7.166" style="paint-order:stroke fill markers"/>
</g>
</svg>
