<?xml version="1.0" encoding="UTF-8"?>
<svg width="114.95mm" height="114.95mm" version="1.1" viewBox="0 0 407.29 407.29" xmlns="http://www.w3.org/2000/svg">
<g transform="matrix(1 0 0 1 -2.2895 9.9417)" fill="#010101">
<rect x="2.2896" y="-9.9418" width="407.29" height="407.29" ry="36.843" fill="#010101" opacity=".998" stroke-linecap="square" stroke-width="2.8346" style="paint-order:stroke fill markers"/>
</g>
<path d="m69.714 185.81h18.32c2.8525 0 5.3775 0.855 7.5662 2.5625 2.19 1.7112 3.285 3.3825 3.285 5.0088 0 1.1512-0.405 2.0938-1.21 2.8288-0.80875 0.73875-1.7025 1.1025-2.68 1.1025-1.2688 0-2.4238-0.57625-3.4662-1.7325-1.0438-1.1525-2.135-1.73-3.2738-1.73h-18.034c-1.7725 0-2.6562 0.7225-2.6562 2.1712 0 1.015 0.57875 1.7838 1.7388 2.3088l21.228 9.5588c2.16 0.9525 3.9288 2.4862 5.3112 4.5962 1.3812 2.1162 2.0725 4.46 2.0725 7.0338 0 3.435-1.2162 6.3412-3.6438 8.7238-2.4312 2.3862-5.1875 3.5762-8.2688 3.5762h-16.198c-2.7975 0-5.3938-0.8425-7.7912-2.5375-2.4-1.695-3.5962-3.3425-3.5962-4.9362 0-1.055 0.3875-1.9888 1.1625-2.8025 0.77625-0.815 1.7838-1.2238 3.0175-1.2238 1.0138 0 2.0988 0.5775 3.255 1.7325 1.1575 1.155 2.8275 1.7325 5.0162 1.7325h14.874c1.1725 0 2.1538-0.45 2.9462-1.3562 0.79125-0.9025 1.1888-1.9412 1.1888-3.1138 0-1.8075-0.8625-3.11-2.5838-3.8988l-21.478-9.67c-2.065-0.92375-3.6525-2.2562-4.7638-4.0075-1.11-1.7475-1.6662-3.5262-1.6662-5.3412 0-2.8612 0.99-5.34 2.975-7.4388 1.9825-2.0975 4.4338-3.1475 7.3525-3.1475" fill="#ed1f24"/>
<path d="m138.16 190.25c-3.39-3.05-6.88-4.5425-10.474-4.48h-9.4025c-3.8175 0-7.3562 1.55-10.619 4.6475-3.26 3.1012-4.8912 6.4012-4.8912 9.895v16.928c0 3.4962 1.67 6.7925 5.0112 9.8938 3.3388 3.0988 6.84 4.6488 10.499 4.6488h9.4025c3.5938 0 7.0838-1.5288 10.474-4.5788 3.3875-3.0512 5.0812-6.3725 5.0812-9.9638v-16.928c0-3.655-1.6938-7.0075-5.0812-10.062m-25.735 7.1738 2.7112-2.33c0.9825-0.8575 2.375-1.2862 4.185-1.2862h8.275c1.2675 0 2.3738 0.3975 3.3288 1.1875l2.8038 2.24c0.98375 0.76125 1.4762 1.9362 1.4762 3.5212v16.179c0 1.3638-0.4925 2.4288-1.4762 3.1912l-2.425 2.1425c-1.1075 0.98375-2.345 1.4762-3.7075 1.4762h-9.275c-1.205 0-2.1412-0.2875-2.805-0.85875l-2.9938-2.5688c-1.0488-0.8575-1.5712-2.0188-1.5712-3.475v-16.181c0-1.3312 0.49-2.41 1.4738-3.2375" fill="#ed1f24"/>
<path d="m149.93 227.81v-38c0-1.1138 0.39375-2.0575 1.1862-2.8338 0.79-0.7825 1.7512-1.1712 2.88-1.1712 2.0988 0 3.4212 1.06 3.9725 3.175 2.2125-2.115 4.68-3.175 7.4038-3.175 3.195 0 5.8188 1.3788 7.8762 4.1375 2.53-2.7588 5.315-4.1375 8.3538-4.1375 2.4662 0 4.61 0.88125 6.43 2.64 1.8188 1.7625 2.7925 4.0038 2.9188 6.7338l1.2475 32.641c0 1.075-0.40375 2.0138-1.2025 2.8075-0.80375 0.795-1.7488 1.1862-2.8388 1.1862-1.12 0-2.0838-0.39125-2.885-1.1862-0.80125-0.78625-1.22-1.7225-1.25-2.7988l-0.97-31.282c-0.0662-1.7075-0.59125-2.565-1.5788-2.565-0.54375 0-1.1012 0.23875-1.675 0.715l-4.785 4.0012v29.218c0 1.0788-0.39 1.9975-1.1725 2.76-0.78125 0.7625-1.73 1.1388-2.845 1.1388-1.0862 0-2.0288-0.38375-2.825-1.1625-0.7975-0.78125-1.1962-1.7188-1.1962-2.8312v-31.792c0-1.365-0.5825-2.0462-1.7462-2.0462-0.56625 0-1.0825 0.20875-1.5538 0.61875l-5.7062 4.8588v28.372c0 1.0775-0.385 2.01-1.1512 2.8025-0.76625 0.78875-1.6912 1.18-2.7725 1.18-1.1188 0-2.0812-0.39125-2.8962-1.1888-0.81375-0.795-1.2188-1.735-1.2188-2.815" fill="#ed1f24"/>
<path d="m201.01 206.54c-2.375 2.36-3.5662 5.2012-3.5662 8.535v4.6588c0 3.3638 1.175 6.2175 3.5288 8.565 2.3512 2.3462 5.2175 3.5162 8.6012 3.5162h13.544l6.7712-4.0575c0 1.1288 0.4 2.0875 1.2012 2.8775 0.8 0.78875 1.7825 1.18 2.9325 1.18 1.0912 0 2.0362-0.38375 2.8388-1.165 0.8-0.78125 1.2025-1.7262 1.2025-2.8388l-0.96875-29.988c-0.0962-3.3688-1.3175-6.2138-3.665-8.5338-2.3462-2.3212-5.1788-3.4825-8.4962-3.4825h-15.275c-1.1212 0-2.0725 0.39125-2.86 1.175-0.7875 0.78125-1.1775 1.7275-1.1775 2.8425 0 1.0862 0.4 2.0288 1.1975 2.8238 0.80375 0.7975 1.7462 1.1975 2.8338 1.1975h15.249c1.1125 0 2.0638 0.38875 2.845 1.165 0.77875 0.77875 1.1725 1.7262 1.1725 2.8338l0.18375 5.6738c-1.6288-0.3525-2.8712-0.525-3.735-0.525h-15.749c-3.3675 0-6.23 1.1775-8.6088 3.5462m19.881 16.965h-11.264c-1.0788 0-2.0212-0.3925-2.8162-1.165-0.795-0.77375-1.19-1.6925-1.19-2.75v-4.375c0-1.085 0.39-2.0075 1.1662-2.7638 0.78-0.76375 1.73-1.145 2.84-1.145h15.73c1.1088 0 2.0412 0.37375 2.8012 1.12 0.7625 0.745 1.16 1.6775 1.1925 2.795l0.2375 3.305z" fill="#ed1f24"/>
<path d="m283.53 193.85v33.97c0 1.1112-0.40125 2.055-1.205 2.8338-0.80125 0.78-1.745 1.165-2.8362 1.165-1.155 0-2.1312-0.385-2.9338-1.165-0.8-0.77875-1.2025-1.7225-1.2025-2.8338v-33.97h-4.0675c-1.1025 0-2.04-0.4-2.81-1.1975-0.77625-0.795-1.16-1.7388-1.16-2.8238 0-1.0512 0.3475-1.9825 1.0512-2.7975 0.7025-0.81375 1.6575-1.2212 2.8762-1.2212h4.11v-3.0938c0-4.0938 1.415-7.4862 4.2438-10.184 2.8238-2.6975 6.3438-4.0462 10.566-4.0462h9.4375c1.1175 0 2.0662 0.4025 2.85 1.2038s1.1762 1.7812 1.1762 2.9325c0 1.0925-0.4025 2.0375-1.1975 2.84-0.8 0.80125-1.7388 1.2012-2.8238 1.2012h-9.425c-1.915 0-3.4988 0.5675-4.7612 1.695-1.2575 1.135-1.8888 2.5962-1.8888 4.3875v3.0638h8.0388c1.0825-0.03 2.0262 0.355 2.82 1.15 0.7975 0.7975 1.1988 1.7538 1.1988 2.8688 0 1.085-0.3975 2.0288-1.1862 2.8238-0.79375 0.7975-1.73 1.1975-2.8012 1.1975z" fill="#ed1f24"/>
<path d="m300.98 227.81v-38c0-1.1138 0.3925-2.0575 1.1875-2.8338 0.78875-0.7825 1.7488-1.1712 2.8812-1.1712 2.0975 0 3.4212 1.06 3.97 3.175 2.21-2.115 4.68-3.175 7.4025-3.175 3.1988 0 5.8212 1.3788 7.8775 4.1375 2.53-2.7588 5.3162-4.1375 8.3538-4.1375 2.4688 0 4.61 0.88125 6.4325 2.64 1.8162 1.7625 2.785 4.0038 2.9188 6.7338l1.2438 32.641c0 1.075-0.4025 2.0138-1.2012 2.8075-0.80375 0.795-1.7488 1.1862-2.84 1.1862-1.1162 0-2.0812-0.39125-2.8862-1.1862-0.8-0.78625-1.2175-1.7225-1.2475-2.7988l-0.97125-31.282c-0.0637-1.7075-0.58875-2.565-1.5788-2.565-0.54 0-1.1012 0.23875-1.6738 0.715l-4.7862 4.0012v29.218c0 1.0788-0.38875 1.9975-1.1725 2.76-0.78125 0.7625-1.7288 1.1388-2.8438 1.1388-1.0875 0-2.0262-0.38375-2.8238-1.1625-0.8-0.78125-1.1938-1.7188-1.1938-2.8312v-31.792c0-1.365-0.58625-2.0462-1.7488-2.0462-0.5675 0-1.0825 0.20875-1.555 0.61875l-5.7062 4.8588v28.372c0 1.0775-0.38375 2.01-1.1512 2.8025-0.76375 0.78875-1.6912 1.18-2.7738 1.18-1.1162 0-2.0788-0.39125-2.8938-1.1888-0.8175-0.795-1.22-1.735-1.22-2.815" fill="#ed1f24"/>
</svg>
