<?xml version="1.0" encoding="UTF-8"?>
<svg width="114.95mm" height="114.95mm" version="1.1" viewBox="0 0 407.29 407.29" xmlns="http://www.w3.org/2000/svg">
<defs>
<filter id="c" x="-8.3941" y="15.829" width="116.73" height="92.246" color-interpolation-filters="sRGB" filterUnits="userSpaceOnUse">
<feFlood flood-opacity="0" result="BackgroundImageFix"/>
<feColorMatrix in="SourceAlpha" values="0 0 0 0 0 0 0 0 0 0 0 0 0 0 0 0 0 0 127 0"/>
<feOffset/>
<feGaussianBlur stdDeviation="4.16667"/>
<feColorMatrix values="0 0 0 0 0 0 0 0 0 0 0 0 0 0 0 0 0 0 0.25 0"/>
<feBlend in2="BackgroundImageFix" mode="overlay" result="effect1_dropShadow"/>
<feBlend in="SourceGraphic" in2="effect1_dropShadow" result="shape"/>
</filter>
<filter id="b" x="60.417" y="-8.0756" width="47.917" height="116.15" color-interpolation-filters="sRGB" filterUnits="userSpaceOnUse">
<feFlood flood-opacity="0" result="BackgroundImageFix"/>
<feColorMatrix in="SourceAlpha" values="0 0 0 0 0 0 0 0 0 0 0 0 0 0 0 0 0 0 127 0"/>
<feOffset/>
<feGaussianBlur stdDeviation="4.16667"/>
<feColorMatrix values="0 0 0 0 0 0 0 0 0 0 0 0 0 0 0 0 0 0 0.25 0"/>
<feBlend in2="BackgroundImageFix" mode="overlay" result="effect1_dropShadow"/>
<feBlend in="SourceGraphic" in2="effect1_dropShadow" result="shape"/>
</filter>
<linearGradient id="a" x1="49.939" x2="49.939" y1=".25781" y2="99.742" gradientUnits="userSpaceOnUse">
<stop stop-color="#fff" offset="0"/>
<stop stop-color="#fff" stop-opacity="0" offset="1"/>
</linearGradient>
</defs>
<g transform="matrix(1 0 0 1 -2.2895 9.9417)" fill="#0b1819">
<rect x="2.2896" y="-9.9418" width="407.29" height="407.29" ry="36.843" fill="#0b1819" opacity=".998" stroke-linecap="square" stroke-width="2.8346" style="paint-order:stroke fill markers"/>
</g>
<g transform="matrix(2.5944 0 0 2.5959 65.952 73.854)" fill="none" stroke-width=".36125">
<g mask="url(#mask0)" stroke-width=".14202">
<path d="m96.461 10.796-20.604-9.9207c-2.385-1.1483-5.2352-0.66393-7.1069 1.2078l-67.451 61.5c-1.8143 1.6541-1.8122 4.5105 0.0045 6.162l5.5096 5.0088c1.4852 1.3502 3.722 1.4496 5.3211 0.2365l81.227-61.621c2.7251-2.0673 6.6391-0.1237 6.6391 3.2968v-0.2392c0-2.401-1.3754-4.5897-3.5386-5.6313z" fill="#0065a9"/>
<g filter="url(#c)">
<path d="m96.461 89.204-20.604 9.9207c-2.385 1.1485-5.2352 0.6639-7.1069-1.2078l-67.451-61.5c-1.8143-1.6542-1.8122-4.5106 0.0045-6.1621l5.5096-5.0088c1.4852-1.3502 3.722-1.4496 5.3211-0.2365l81.227 61.621c2.7251 2.0673 6.6391 0.1237 6.6391-3.2967v0.2392c0 2.4009-1.3754 4.5896-3.5386 5.6312z" fill="#007acc" stroke-width=".055834"/>
</g>
<g filter="url(#b)">
<path d="m75.858 99.126c-2.3857 1.1477-5.2359 0.6622-7.1078-1.2097 2.3064 2.3064 6.25 0.6729 6.25-2.5888v-90.656c0-3.2617-3.9436-4.8952-6.25-2.5888 1.8719-1.8719 4.7221-2.357 7.1078-1.2097l20.601 9.9071c2.1647 1.041 3.5413 3.2305 3.5413 5.6325v67.174c0 2.402-1.3766 4.5915-3.5414 5.6325z" fill="#1f9cf0" stroke-width=".055834"/>
</g>
<g opacity=".25" style="mix-blend-mode:overlay">
<path d="m70.851 99.317c1.575 0.6135 3.371 0.5742 4.9606-0.1907l20.588-9.9067c2.1634-1.041 3.5392-3.2305 3.5392-5.6326v-67.174c0-2.4021-1.3757-4.5916-3.5391-5.6326l-20.588-9.907c-2.0862-1.0039-4.5279-0.758-6.359 0.57318-0.2615 0.19017-0.5107 0.40249-0.7445 0.63647l-39.414 35.958-17.168-13.032c-1.5981-1.2132-3.8336-1.1137-5.3178 0.2364l-5.5063 5.0088c-1.8156 1.6516-1.8177 4.5079-0.0045 6.1621l14.889 13.583-14.889 13.583c-1.8132 1.6542-1.8111 4.5105 0.0045 6.162l5.5063 5.0088c1.4843 1.3502 3.7198 1.4496 5.3178 0.2365l17.168-13.032 39.414 35.958c0.6235 0.6238 1.3556 1.0937 2.1429 1.4004zm4.1033-72.018-29.906 22.701 29.906 22.701z" clip-rule="evenodd" fill="url(#a)" fill-rule="evenodd" stroke-width=".055834"/>
</g>
</g>
</g>
</svg>
