<?xml version="1.0" encoding="UTF-8" standalone="no"?>
<!-- Created with Inkscape (http://www.inkscape.org/) -->

<svg
   version="1.1"
   id="svg2"
   xml:space="preserve"
   width="48"
   height="47.999866"
   viewBox="0 0 47.999999 47.999866"
   sodipodi:docname="areena.svg"
   inkscape:version="1.3 (0e150ed6c4, 2023-07-21)"
   xmlns:inkscape="http://www.inkscape.org/namespaces/inkscape"
   xmlns:sodipodi="http://sodipodi.sourceforge.net/DTD/sodipodi-0.dtd"
   xmlns="http://www.w3.org/2000/svg"
   xmlns:svg="http://www.w3.org/2000/svg"
   xmlns:rdf="http://www.w3.org/1999/02/22-rdf-syntax-ns#"
   xmlns:cc="http://creativecommons.org/ns#"
   xmlns:dc="http://purl.org/dc/elements/1.1/"><sodipodi:namedview
     id="namedview1"
     pagecolor="#ffffff"
     bordercolor="#111111"
     borderopacity="1"
     inkscape:showpageshadow="0"
     inkscape:pageopacity="0"
     inkscape:pagecheckerboard="1"
     inkscape:deskcolor="#d1d1d1"
     inkscape:zoom="1.4249965"
     inkscape:cx="266.66733"
     inkscape:cy="266.66733"
     inkscape:window-width="1920"
     inkscape:window-height="1050"
     inkscape:window-x="0"
     inkscape:window-y="0"
     inkscape:window-maximized="1"
     inkscape:current-layer="svg2" /><metadata
     id="metadata8"><rdf:RDF><cc:Work
         rdf:about=""><dc:format>image/svg+xml</dc:format><dc:type
           rdf:resource="http://purl.org/dc/dcmitype/StillImage" /></cc:Work></rdf:RDF></metadata><defs
     id="defs6"><clipPath
       clipPathUnits="userSpaceOnUse"
       id="clipPath22"><path
         d="M 0,400 H 2670 V 0 H 0 Z"
         id="path20" /></clipPath><clipPath
       clipPathUnits="userSpaceOnUse"
       id="clipPath50"><path
         d="M 0,0 H 400.008 V 400 H 0 Z"
         id="path48" /></clipPath></defs><g
     id="g10"
     transform="matrix(0.1199997,0,0,-0.1199997,-4.0799898e-4,47.99988)"><g
       id="g44"><g
         id="g46"
         clip-path="url(#clipPath50)"><g
           id="g52"
           transform="translate(400.0044,381.4501)"><path
             d="m 0,0 v -362.887 c 0,-9.908 -8.565,-18.563 -17.966,-18.563 h -363.255 c -10.207,0 -18.78,8.655 -18.78,18.563 V 0 c 0,10.299 8.573,18.55 18.78,18.55 H -17.966 C -8.565,18.55 0,10.299 0,0"
             style="fill:#08a9bd;fill-opacity:1;fill-rule:nonzero;stroke:none"
             id="path54" /></g><g
           id="g56"
           transform="translate(163.7911,248.1521)"><path
             d="m 0,0 c 0,4.941 -3.205,8.127 -8.141,8.127 h -6.445 c -5.585,0 -8.094,-2.781 -9.983,-11.078 L -42.81,-82.208 h -4.061 c -6.151,0 -8.725,1.547 -10.904,10.227 l -18.223,69.094 -0.202,0.756 c -1.391,5.281 -2.704,10.258 -8.997,10.258 h -6.828 c -5.497,0 -8.522,-2.882 -8.522,-8.127 0,-3.189 0.866,-7.933 2.725,-14.981 l 19.366,-69.069 c 3.472,-13.034 10.544,-18.605 23.629,-18.605 h 7.767 c -0.82,-4.336 -2.574,-13.269 -3.669,-16.662 -3.551,-11.056 -9.053,-13.377 -18.528,-13.377 -7.823,0 -12.956,0.604 -16.704,1.041 -2.252,0.258 -4.047,0.473 -5.696,0.473 -4.451,0 -6.994,-2.688 -6.994,-7.375 v -4.553 c 0,-5.206 2.675,-6.801 5.379,-7.951 4.612,-2.092 10.405,-3.224 27.81,-3.224 17.458,0 30.415,9.356 34.641,25.057 7.671,28.482 28.27,114.976 28.473,115.818 0,0 2.348,9.15 2.348,13.408"
             style="fill:#ffffff;fill-opacity:1;fill-rule:nonzero;stroke:none"
             id="path58" /></g><g
           id="g60"
           transform="translate(215.4277,296.7362)"><path
             d="m 0,0 c 0,8.929 -0.92,17.629 -11.939,17.629 h -16.317 c -2.946,0 -10.793,0 -10.793,-7.753 v -7.22 c 0,-3.037 1.501,-8.125 11.543,-8.125 h 4.015 v -135.742 c 0,-7.249 1.478,-11.17 9.268,-11.17 h 5.317 c 7.391,0 8.906,4.462 8.906,11.17 z"
             style="fill:#ffffff;fill-opacity:1;fill-rule:nonzero;stroke:none"
             id="path62" /></g><g
           id="g64"
           transform="translate(316.6877,212.1161)"><path
             d="m 0,0 -49.486,-0.041 c 0.746,20.386 8.501,29.11 25.53,29.121 C -7.182,29.084 -0.497,19.158 0,0 m 21.594,-4.923 c 0,22.171 -5.097,52.134 -45.959,52.134 -34.241,0 -49.51,-18.675 -49.51,-60.528 0,-40.793 14.246,-55.958 52.549,-55.958 17.091,0 28.315,2.339 32.694,4.345 2.748,1.166 5.423,2.734 5.423,7.974 v 4.162 c 0,4.697 -2.545,7.377 -6.992,7.377 -1.561,0 -3.155,-0.314 -5.167,-0.709 -3.935,-0.774 -9.876,-1.948 -21.409,-1.948 -28.741,0 -32.336,5.186 -33.16,28.911 H 4.348 c 13.079,0 17.246,5.689 17.246,14.24"
             style="fill:#ffffff;fill-opacity:1;fill-rule:nonzero;stroke:none"
             id="path66" /></g></g></g></g></svg>
