<?xml version="1.0" encoding="UTF-8" standalone="no"?>
<!-- Created with Inkscape (http://www.inkscape.org/) -->

<svg
   width="114.947mm"
   height="114.947mm"
   viewBox="0 0 407.29252 407.29251"
   id="svg2"
   version="1.1"
   sodipodi:docname="mycourses.svg"
   inkscape:version="1.1.2 (0a00cf5339, 2022-02-04, custom)"
   xmlns:inkscape="http://www.inkscape.org/namespaces/inkscape"
   xmlns:sodipodi="http://sodipodi.sourceforge.net/DTD/sodipodi-0.dtd"
   xmlns:xlink="http://www.w3.org/1999/xlink"
   xmlns="http://www.w3.org/2000/svg"
   xmlns:svg="http://www.w3.org/2000/svg"
   xmlns:rdf="http://www.w3.org/1999/02/22-rdf-syntax-ns#"
   xmlns:cc="http://creativecommons.org/ns#"
   xmlns:dc="http://purl.org/dc/elements/1.1/">
  <sodipodi:namedview
     id="namedview25"
     pagecolor="#505050"
     bordercolor="#eeeeee"
     borderopacity="1"
     inkscape:pageshadow="0"
     inkscape:pageopacity="0"
     inkscape:pagecheckerboard="0"
     inkscape:document-units="mm"
     showgrid="false"
     inkscape:zoom="1.5283819"
     inkscape:cx="217.22319"
     inkscape:cy="216.89605"
     inkscape:window-width="1920"
     inkscape:window-height="1050"
     inkscape:window-x="0"
     inkscape:window-y="243"
     inkscape:window-maximized="1"
     inkscape:current-layer="svg2" />
  <title
     id="title5759">Netflix icon</title>
  <defs
     id="defs4">
    <rect
       id="SVGID_1_"
       width="252.03"
       height="238.7"
       x="0"
       y="0" />
    <rect
       id="SVGID_3_"
       width="252.03"
       height="238.7"
       x="0"
       y="0" />
  </defs>
  <metadata
     id="metadata7">
    <rdf:RDF>
      <cc:Work
         rdf:about="">
        <dc:title>Netflix icon</dc:title>
      </cc:Work>
    </rdf:RDF>
  </metadata>
  <g
     id="layer1"
     transform="matrix(0.99999763,0,0,0.99999763,-2.2895473,9.9417289)"
     style="fill:#ff671f;fill-opacity:1;stroke-width:1">
    <rect
       style="opacity:0.998;fill:#ff671f;fill-opacity:1;stroke-width:2.83464;stroke-linecap:square;paint-order:stroke fill markers"
       id="rect1159"
       width="407.29349"
       height="407.29349"
       x="2.2895527"
       y="-9.9417524"
       ry="36.842911" />
  </g>
  <style
     type="text/css"
     id="style10">
	.st0{clip-path:url(#SVGID_2_);}
	.st1{clip-path:url(#SVGID_4_);}
</style>
  <g
     id="g60"
     transform="matrix(2.592049,0,0,2.592049,-127.94881,-65.956349)"
     style="fill:#ffffff;fill-opacity:1;stroke-width:0.361683">
    <g
       id="g20"
       style="fill:#ffffff;fill-opacity:1;stroke-width:0.361683">
      <defs
         id="defs13">
        <rect
           id="rect44"
           width="252.03"
           height="238.7"
           x="0"
           y="0" />
      </defs>
      <clipPath
         id="SVGID_2_">
        <use
           xlink:href="#SVGID_1_"
           style="overflow:visible"
           id="use15"
           x="0"
           y="0"
           width="100%"
           height="100%" />
      </clipPath>
    </g>
    <path
       d="M 114.49,113.43 H 97.36 l 8.56,-24.74 z m 26.5,26.15 L 116.4,70.13 H 95.45 l -24.59,69.44 h 17.45 l 4.25,-12.29 h 26.72 l 4.25,12.29 h 17.46 z"
       id="path22"
       style="fill:#ffffff;fill-opacity:1;stroke-width:0.361683" />
    <g
       id="g32"
       style="fill:#ffffff;fill-opacity:1;stroke-width:0.361683">
      <defs
         id="defs25">
        <rect
           id="rect52"
           width="252.03"
           height="238.7"
           x="0"
           y="0" />
      </defs>
      <clipPath
         id="SVGID_4_">
        <use
           xlink:href="#SVGID_3_"
           style="overflow:visible"
           id="use27"
           x="0"
           y="0"
           width="100%"
           height="100%" />
      </clipPath>
      <path
         class="st1"
         d="m 185.06,89.22 c 0,-13.39 -10.66,-20.87 -25.93,-20.87 -14.77,0 -26.17,7.65 -26.17,21.19 v 2.18 h 15.62 c 0,-6.47 4.39,-9.36 10.36,-9.36 5.49,0 9.38,2.93 9.38,7.41 0,3.57 -2.04,5.99 -6.57,8.54 -6.57,3.7 -10.58,8.03 -10.58,18.38 v 1.54 h 15.7 v -0.63 c 0,-5.55 1.57,-7.67 7.35,-11.49 5.24,-3.47 10.84,-8.14 10.84,-16.89"
         clip-path="url(#SVGID_4_)"
         id="path30"
         style="fill:#ffffff;fill-opacity:1;stroke-width:0.361683" />
    </g>
    <rect
       x="151.14999"
       y="123.86"
       width="15.72"
       height="15.72"
       id="rect34"
       style="fill:#ffffff;fill-opacity:1;stroke-width:0.361683" />
  </g>
</svg>
