<?xml version="1.0" encoding="UTF-8" standalone="no"?>
<!-- Created with Inkscape (http://www.inkscape.org/) -->

<svg
   width="114.94727mm"
   height="114.94727mm"
   viewBox="0 0 407.29349 407.29348"
   id="svg2"
   version="1.1"
   xmlns:xlink="http://www.w3.org/1999/xlink"
   xmlns="http://www.w3.org/2000/svg"
   xmlns:svg="http://www.w3.org/2000/svg"
   xmlns:rdf="http://www.w3.org/1999/02/22-rdf-syntax-ns#"
   xmlns:cc="http://creativecommons.org/ns#"
   xmlns:dc="http://purl.org/dc/elements/1.1/">
  <title
     id="title5759">Netflix icon</title>
  <defs
     id="defs4">
    <linearGradient
       id="linearGradient4200">
      <stop
         style="stop-color:#620000;stop-opacity:1;"
         offset="0"
         id="stop4196" />
      <stop
         style="stop-color:#cc0000;stop-opacity:1;"
         offset="1"
         id="stop4198" />
    </linearGradient>
    <linearGradient
       xlink:href="#linearGradient4200"
       id="linearGradient4204"
       x1="-58.368347"
       y1="33.189915"
       x2="399.62604"
       y2="229.92863"
       gradientUnits="userSpaceOnUse" />
  </defs>
  <metadata
     id="metadata7">
    <rdf:RDF>
      <cc:Work
         rdf:about="">
        <dc:title>Netflix icon</dc:title>
      </cc:Work>
    </rdf:RDF>
  </metadata>
  <path
     id="rect5922"
     style="fill:url(#linearGradient4204);stroke-width:7.66416;paint-order:stroke fill markers;fill-opacity:1"
     d="M 36.842652 0 C 16.444116 -8.8763939e-15 0.021726614 16.412318 0.0018310547 36.806031 L 0.0018310547 370.48645 C 0.021714552 390.86781 16.424683 407.27077 36.806031 407.29065 L 370.48645 407.29065 C 390.88016 407.27076 407.29248 390.84838 407.29248 370.44983 L 407.29248 36.842652 C 407.29248 16.431749 390.86073 0 370.44983 0 L 36.842652 0 z " />
  <path
     id="path3963"
     style="fill:#ffffff;stroke-width:7.66416;paint-order:stroke fill markers"
     d="m 228.11619,84.841367 c 0,7.242438 -10.95534,3.516352 -24.46945,3.516352 -13.51411,0 -24.46945,3.726086 -24.46945,-3.516352 0,-7.242436 10.95534,-13.113585 24.46945,-13.113585 13.51411,0 24.46945,5.871149 24.46945,13.113585 z" />
  <rect
     style="fill:#a50000;fill-opacity:0.21466699;fill-rule:nonzero;stroke:#ffffff;stroke-width:7.66416;stroke-dasharray:none;stroke-opacity:1"
     id="rect3831"
     width="311.00723"
     height="233.25542"
     x="48.143124"
     y="87.018066"
     ry="23.323141" />
  <path
     style="fill:#ffffff;fill-opacity:1;stroke:none;stroke-width:8.72094;stroke-dasharray:none;stroke-opacity:1;paint-order:stroke fill markers"
     d="m 267.28061,285.56463 c -1.1036,-0.26662 -3.59991,-1.45053 -4.57847,-2.17141 -1.42291,-1.04821 -2.13905,-3.27526 -2.51658,-7.82618 -0.45044,-5.42967 -0.63719,-6.00222 -2.1786,-6.67972 -1.36565,-0.60022 -8.79593,-2.60577 -16.00916,-4.32115 -8.79672,-2.09193 -16.30122,-3.85492 -20.01556,-4.70213 -2.06927,-0.472 -6.423,-1.47636 -9.67496,-2.23195 -8.90173,-2.06828 -8.4189,-2.07432 -19.21967,0.24032 -8.99451,1.92756 -23.3901,5.0907 -32.95796,7.24185 -6.95371,1.56342 -11.60343,2.81329 -12.39477,3.33179 -1.17496,0.76986 -1.53194,1.67196 -2.17419,5.49402 -1.01847,6.06115 -2.67107,8.4933 -6.59441,9.70509 -2.84906,0.87997 -4.50472,0.78257 -7.10288,-0.41782 -3.87679,-1.79122 -5.87497,-4.21205 -5.88903,-7.1347 -0.008,-1.83615 0.64788,-3.94253 2.26504,-7.26515 1.90331,-3.91057 1.85878,-4.64246 -0.49727,-8.17156 l -1.83746,-2.75232 0.14476,-2.41958 c 0.1608,-2.68777 0.96849,-4.68309 2.57404,-6.35891 3.50258,-3.65588 10.38113,-4.15445 12.96894,-0.94003 0.39923,0.49591 1.0518,1.79958 1.45017,2.8971 0.39838,1.09749 0.8844,2.09726 1.08005,2.22168 1.06243,0.67564 7.97522,-0.0629 24.8861,-2.6583 5.42209,-0.83219 6.4137,-1.02638 6.22168,-1.21843 -0.0699,-0.0699 -1.73538,-0.46571 -3.70111,-0.87962 -19.97899,-4.20697 -31.77597,-6.34353 -36.68849,-6.64464 -2.75299,-0.16875 -3.13331,-0.12496 -4.36299,0.50237 -1.82751,0.93234 -2.79772,1.9709 -5.5701,5.96258 -1.30132,1.87365 -2.71257,3.64948 -3.13613,3.94628 -2.26072,1.58425 -6.05075,1.59296 -9.24336,0.0213 -2.25054,-1.10794 -3.77202,-2.7755 -4.64667,-5.09286 -1.24042,-3.28645 -0.36365,-5.92875 3.46739,-10.44941 3.63499,-4.28935 3.53148,-3.79279 1.81756,-8.71955 -1.21715,-3.49881 -1.45793,-4.5498 -1.47508,-6.43872 -0.0176,-1.94107 0.0996,-2.47409 0.83667,-3.80383 1.10032,-1.98506 2.92156,-3.73635 5.01205,-4.81949 1.46723,-0.76023 1.96337,-0.85662 4.36429,-0.84795 3.05472,0.0115 4.38547,0.51513 6.06252,2.29648 1.36479,1.44968 2.01866,2.9643 2.9674,6.87381 0.90432,3.72639 1.7788,5.77996 2.91061,6.83495 1.97659,1.84247 7.55182,3.52902 24.17778,7.31389 6.49751,1.47915 21.90679,4.76076 28.14217,5.99325 1.7382,0.34358 6.16674,1.22407 9.84122,1.95665 l 6.68086,1.33198 5.20807,-1.0147 c 2.86444,-0.5581 7.98468,-1.55383 11.37829,-2.21274 19.86766,-3.85754 45.88872,-9.70708 51.78238,-11.6407 3.61148,-1.18487 5.17674,-3.13257 7.02886,-8.74631 1.54294,-4.67659 2.95467,-6.06456 6.86008,-6.74465 5.02286,-0.87469 10.06099,1.579 11.21397,5.46148 0.743,2.50199 0.59961,3.90934 -0.73589,7.22174 -0.66217,1.64236 -1.20393,3.42555 -1.20393,3.9626 0,1.19731 0.78318,2.69779 2.7422,5.25375 2.41592,3.15204 2.97652,4.4993 2.97652,7.15325 0,2.55777 -0.58031,4.08245 -2.21458,5.81836 -1.57843,1.67658 -2.84426,2.15577 -5.69491,2.15577 -3.11593,0 -5.30667,-0.62108 -6.53957,-1.85396 -0.51557,-0.51557 -1.43278,-1.96852 -2.03822,-3.2288 -1.22563,-2.5511 -3.05256,-4.73865 -4.44718,-5.32494 -1.49032,-0.62655 -2.77763,-0.41767 -23.15995,3.75778 -21.32645,4.36883 -24.22936,4.98769 -24.22936,5.16522 0,0.18685 8.94028,1.77517 18.66112,3.31533 8.92246,1.41362 9.35701,1.46508 10.75599,1.27332 1.51055,-0.20704 1.70603,-0.43762 3.85393,-4.546 1.61412,-3.08737 3.29293,-4.97303 4.93265,-5.54034 1.69754,-0.58734 6.57806,-0.50052 7.84714,0.13958 1.25844,0.63473 2.6177,1.83955 3.51104,3.11214 1.45936,2.0789 2.23919,6.84952 1.61282,9.86663 -0.41681,2.00778 -1.51461,3.39076 -4.70978,5.93324 -1.95201,1.55326 -3.12297,3.08205 -3.12297,4.07733 0,0.31612 0.55877,2.33179 1.24172,4.47928 1.96192,6.16927 1.70225,8.78563 -1.11774,11.26161 -0.61351,0.53866 -1.72629,1.24122 -2.47288,1.56123 -1.36943,0.58702 -4.21446,0.95214 -5.32622,0.68356 z m -125.5258,-56.99696 c -3.41315,-0.3908 -6.49488,-2.55175 -7.96655,-5.58626 -0.65257,-1.34557 -0.74905,-2.06064 -0.95327,-7.06532 -0.12497,-3.06254 -0.14552,-8.95433 -0.0457,-13.09288 0.17359,-7.19645 0.21259,-7.57833 0.89378,-8.75503 l 0.71229,-1.23039 v -22.98096 -22.98096 l 0.9782,-1.95853 c 1.28897,-2.58073 2.97739,-4.3236 5.19201,-5.35943 l 1.80591,-0.84468 61.7021,-0.0876 61.70208,-0.0877 1.72831,0.9366 c 2.01225,1.09047 3.65649,2.6002 4.90731,4.50578 l 0.88903,1.35444 0.1878,23.47689 c 0.10332,12.9123 0.29169,23.81549 0.41867,24.22935 0.127,0.41387 0.44812,1.00295 0.71363,1.30909 0.56227,0.64833 0.88152,6.08897 0.89461,15.24513 0.0123,8.61924 -0.305,12.00415 -1.28151,13.67042 -1.06396,1.8155 -3.06128,3.6932 -5.04423,4.74212 l -1.60771,0.85042 -62.00306,-0.0411 c -34.1017,-0.0226 -62.82238,-0.13492 -63.82371,-0.24957 z m 30.55876,-3.54723 c 1.65015,-0.82906 2.49621,-2.32555 2.32897,-4.11941 -0.11502,-1.23348 -0.32358,-1.65581 -1.22635,-2.48313 -0.89917,-0.82403 -1.32598,-0.99688 -2.46157,-0.99688 -2.6329,0 -4.35049,1.64874 -4.35265,4.17816 -9e-4,1.15649 0.16068,1.48059 1.31371,2.63363 1.49493,1.49494 2.5972,1.69235 4.39789,0.78763 z m 67.69225,-0.60835 c 0.65654,-0.62457 1.28666,-1.50583 1.40023,-1.9584 0.52134,-2.07718 -0.86211,-4.39841 -2.96797,-4.97988 -2.61429,-0.72182 -5.03407,1.24522 -5.00771,4.07082 0.0125,1.33683 0.44817,2.2203 1.49427,3.02983 0.99321,0.76861 1.43812,0.92102 2.77143,0.94941 0.89667,0.0191 1.35066,-0.19942 2.30975,-1.11178 z m -51.12693,-2.17891 c 0.45616,-0.32483 1.05324,-1.15001 1.3268,-1.83373 0.41344,-1.03328 0.43692,-1.42768 0.13911,-2.33652 -0.75513,-2.30423 -1.79658,-3.04979 -4.26019,-3.04979 -0.98616,0 -1.39821,0.20375 -2.36298,1.16854 -1.01514,1.01515 -1.16854,1.34839 -1.16854,2.53877 0,2.37643 0.96946,3.92781 2.68914,4.30333 0.42472,0.0926 0.90766,0.20504 1.07318,0.24957 0.43491,0.11697 1.60545,-0.35801 2.56348,-1.04017 z m 34.8058,0.27555 c 1.43678,-0.88799 2.00934,-2.13563 1.83114,-3.9902 -0.12094,-1.25871 -0.32727,-1.67845 -1.23302,-2.50852 -0.91908,-0.84228 -1.31019,-0.99522 -2.52189,-0.98621 -1.61596,0.0119 -2.4718,0.39729 -3.31933,1.49426 -1.38054,1.78689 -1.05942,4.20547 0.75719,5.70286 1.36088,1.12175 2.96955,1.22497 4.48591,0.28781 z M 175.69808,191.3123 c 2.32509,-1.04385 3.77196,-2.41252 4.8332,-4.57196 0.90556,-1.84269 0.96805,-2.17567 0.96362,-5.13373 -0.004,-3.01477 -0.0524,-3.25139 -1.01833,-5.04104 -1.11321,-2.06229 -2.83187,-3.65146 -5.06334,-4.68179 -1.14579,-0.52905 -1.98902,-0.66408 -4.1471,-0.66408 -2.33488,0 -2.93771,0.11238 -4.36632,0.81403 -4.6392,2.27844 -7.30865,7.8964 -5.85847,12.32934 1.13993,3.48458 2.77502,5.37582 5.98998,6.92831 1.68578,0.81408 2.03619,0.87361 4.53581,0.77079 1.92309,-0.0792 3.12136,-0.2966 4.13095,-0.74987 z m 65.85752,-0.13141 c 1.59785,-0.93942 3.30957,-2.59458 4.61288,-4.46042 0.92136,-1.31905 0.94608,-1.44096 0.94608,-4.66527 0,-2.77884 -0.10674,-3.54196 -0.66408,-4.74909 -1.69557,-3.67221 -4.84198,-5.88264 -8.77403,-6.16397 -7.66248,-0.54825 -13.42495,7.11461 -10.66207,14.1783 1.13186,2.8938 3.26459,5.05651 6.20407,6.29129 0.96175,0.40399 1.92446,0.50755 4.12336,0.44354 2.46662,-0.0719 3.05715,-0.19437 4.21379,-0.87438 z m -23.45312,-7.51346 c 0.14229,-0.22456 0.26078,-2.94786 0.26333,-6.05179 l 0.004,-5.64348 h -14.29712 -14.29682 v 5.99878 c 0,5.97708 0.003,5.99932 0.67722,6.1447 0.37246,0.0803 6.68756,0.10409 14.03351,0.053 10.84021,-0.0754 13.40502,-0.16983 13.615,-0.50122 z"
     id="path293" />
  <path
     style="fill:#ffffff;fill-opacity:1;fill-rule:nonzero;stroke:#ffffff;stroke-width:7.66416;stroke-linecap:round;stroke-dasharray:none;stroke-opacity:1;paint-order:stroke fill markers"
     d="M 186.71266,80.151254 128.6311,35.368291"
     id="path5976" />
  <path
     style="fill:#ffffff;fill-opacity:1;fill-rule:nonzero;stroke:#ffffff;stroke-width:7.66416;stroke-linecap:round;stroke-dasharray:none;stroke-opacity:1;paint-order:stroke fill markers"
     d="M 219.95553,80.015664 278.24515,35.503883"
     id="path5978" />
  <path
     style="fill:#000000;fill-opacity:1;fill-rule:nonzero;stroke:#ffffff;stroke-width:8.02253;stroke-linecap:round;stroke-dasharray:none;stroke-opacity:1;paint-order:stroke fill markers"
     d="M 75.585886,346.32462 103.34465,320.49565"
     id="path6044" />
  <path
     style="fill:#000000;fill-opacity:1;fill-rule:nonzero;stroke:#ffffff;stroke-width:8.02253;stroke-linecap:round;stroke-dasharray:none;stroke-opacity:1;paint-order:stroke fill markers"
     d="M 331.70761,346.32462 303.94883,320.49565"
     id="path5980" />
</svg>
