<?xml version="1.0" encoding="UTF-8" standalone="no"?>
<!-- Created with Inkscape (http://www.inkscape.org/) -->

<svg
   width="114.94727mm"
   height="114.94727mm"
   viewBox="0 0 407.29349 407.29348"
   id="svg2"
   version="1.1"
   xmlns:xlink="http://www.w3.org/1999/xlink"
   xmlns="http://www.w3.org/2000/svg"
   xmlns:svg="http://www.w3.org/2000/svg"
   xmlns:rdf="http://www.w3.org/1999/02/22-rdf-syntax-ns#"
   xmlns:cc="http://creativecommons.org/ns#"
   xmlns:dc="http://purl.org/dc/elements/1.1/">
  <title
     id="title5759">Netflix icon</title>
  <defs
     id="defs4">
    <linearGradient
       id="linearGradient4200">
      <stop
         style="stop-color:#620000;stop-opacity:1;"
         offset="0"
         id="stop4196" />
      <stop
         style="stop-color:#cc0000;stop-opacity:1;"
         offset="1"
         id="stop4198" />
    </linearGradient>
    <linearGradient
       xlink:href="#linearGradient4200"
       id="linearGradient4204"
       x1="-58.368347"
       y1="33.189915"
       x2="399.62604"
       y2="229.92863"
       gradientUnits="userSpaceOnUse"
       gradientTransform="translate(-4.0998611e-4,0.00142054)" />
  </defs>
  <metadata
     id="metadata7">
    <rdf:RDF>
      <cc:Work
         rdf:about="">
        <dc:title>Netflix icon</dc:title>
      </cc:Work>
    </rdf:RDF>
  </metadata>
  <path
     d="m 335.66106,356.06376 c -2.28952,-0.55312 -7.46834,-3.00926 -9.49846,-4.50479 -2.95196,-2.1746 -4.43764,-6.79483 -5.22087,-16.23613 -0.93448,-11.26435 -1.32191,-12.45215 -4.5197,-13.85769 -2.83318,-1.24522 -18.24797,-5.40592 -33.21248,-8.96462 -18.24961,-4.33991 -33.81837,-7.99739 -41.52412,-9.755 -4.29289,-0.97921 -13.3251,-3.06284 -20.07159,-4.63039 -18.46746,-4.29084 -17.46578,-4.30337 -39.87298,0.49857 -18.65993,3.9989 -48.52491,10.56112 -68.37431,15.02389 -14.426116,3.24345 -24.072377,5.83641 -25.71409,6.91209 -2.437564,1.59715 -3.178148,3.46864 -4.510553,11.39785 -2.112917,12.57442 -5.54139,17.62013 -13.680728,20.1341 -5.910628,1.82558 -9.345439,1.62352 -14.735565,-0.8668 -8.042765,-3.71605 -12.188167,-8.73828 -12.217331,-14.8016 -0.01658,-3.80925 1.344078,-8.17913 4.699031,-15.07221 3.948592,-8.11285 3.856205,-9.63122 -1.03164,-16.95265 l -3.81197,-5.70995 0.30031,-5.01964 c 0.333592,-5.57602 2.00923,-9.7155 5.340087,-13.19214 7.266424,-7.58446 21.536602,-8.61879 26.905265,-1.95018 0.828238,1.02881 2.182051,3.7334 3.00851,6.0103 0.826473,2.27684 1.834766,4.35095 2.240661,4.60908 2.204114,1.40168 16.545328,-0.13052 51.628503,-5.51489 11.24862,-1.72645 13.30581,-2.12931 12.90745,-2.52775 -0.14502,-0.145 -3.60021,-0.96615 -7.6783,-1.82484 -41.448254,-8.72775 -65.922177,-13.16025 -76.113652,-13.78492 -5.711322,-0.35008 -6.50034,-0.25925 -9.051419,1.04221 -3.791337,1.93423 -5.804124,4.08882 -11.555683,12.36992 -2.699709,3.88706 -5.627479,7.57118 -6.506196,8.18692 -4.690072,3.28668 -12.552836,3.30474 -19.176199,0.0443 -4.6689439,-2.29852 -7.8254024,-5.75803 -9.6399358,-10.56561 -2.5733704,-6.81804 -0.7544242,-12.29973 7.1934128,-21.67826 7.541126,-8.89866 7.326385,-7.86849 3.770704,-18.08951 -2.525098,-7.2586 -3.02461,-9.43898 -3.060193,-13.35771 -0.03651,-4.02694 0.206624,-5.13273 1.735745,-7.89139 2.282715,-4.11819 6.061041,-7.7514 10.397957,-9.99848 3.043906,-1.57717 4.073193,-1.77714 9.05412,-1.75915 6.337308,0.0238 9.098061,1.06868 12.577254,4.76426 2.831384,3.00749 4.187898,6.14971 6.156143,14.26034 1.876098,7.73074 3.690284,11.99106 6.038335,14.17973 4.100619,3.82238 15.666941,7.32128 50.159027,15.17335 13.47968,3.06863 45.44765,9.87663 58.38353,12.43354 3.60605,0.7128 12.79346,2.53945 20.41651,4.05926 l 13.86006,2.76331 10.80461,-2.10509 c 5.94255,-1.15783 16.56496,-3.22357 23.60532,-4.59054 41.21727,-8.00281 95.20035,-20.13822 107.4273,-24.14969 7.49234,-2.45813 10.73962,-6.49882 14.58202,-18.14503 3.20097,-9.70202 6.12973,-12.58149 14.23187,-13.9924 10.42038,-1.81461 20.87244,3.27579 23.2644,11.33035 1.54143,5.1906 1.24395,8.11028 -1.52667,14.98216 -1.37374,3.40723 -2.49767,7.10662 -2.49767,8.22078 0,2.48392 1.62478,5.59681 5.68895,10.89938 5.01204,6.5392 6.17506,9.33422 6.17506,14.84008 0,5.30633 -1.20389,8.46942 -4.59435,12.07072 -3.27459,3.47822 -5.90067,4.47234 -11.81461,4.47234 -6.46428,0 -11.00918,-1.28848 -13.56694,-3.8462 -1.06959,-1.06961 -2.97243,-4.08388 -4.22847,-6.69845 -2.54268,-5.29248 -6.33281,-9.83077 -9.22608,-11.04708 -3.09181,-1.29983 -5.76245,-0.86649 -48.04744,7.79587 -44.24368,9.06353 -50.26604,10.34742 -50.26604,10.71571 0,0.38765 18.54743,3.68276 38.7142,6.87797 18.51046,2.93268 19.41198,3.03944 22.31429,2.64161 3.13378,-0.42953 3.53933,-0.90788 7.99533,-9.43109 3.34864,-6.40503 6.83149,-10.31701 10.23324,-11.49395 3.52171,-1.21848 13.64679,-1.03836 16.27962,0.28957 2.61074,1.31682 5.43065,3.81632 7.28396,6.45643 3.02758,4.31286 4.64541,14.20995 3.34596,20.46922 -0.86472,4.16533 -3.14221,7.03445 -9.77088,12.30905 -4.04963,3.22239 -6.47889,6.39401 -6.47889,8.4588 0,0.65582 1.15922,4.83751 2.57606,9.29268 4.07018,12.79872 3.53148,18.22661 -2.31885,23.36325 -1.27277,1.1175 -3.58135,2.57502 -5.13021,3.23891 -2.84101,1.21783 -8.74329,1.97531 -11.04974,1.41811 z M 75.246261,237.81832 c -7.080913,-0.81074 -13.474233,-5.29383 -16.527352,-11.5892 -1.353813,-2.79151 -1.553966,-4.27499 -1.977646,-14.65765 -0.259257,-6.35353 -0.301887,-18.57658 -0.09481,-27.16239 0.360136,-14.92969 0.441037,-15.72194 1.854235,-18.16312 l 1.477705,-2.55255 V 116.0173 68.341178 L 62.007761,64.27803 C 64.68185,58.924076 68.184614,55.308328 72.779062,53.1594 l 3.746527,-1.752367 128.006681,-0.181739 128.00663,-0.181941 3.58554,1.943066 c 4.1746,2.262283 7.58573,5.394364 10.18067,9.347663 l 1.84438,2.809906 0.3896,48.704972 c 0.21434,26.78775 0.60514,49.40741 0.86857,50.26601 0.26347,0.8586 0.92967,2.08071 1.48049,2.71582 1.16648,1.34503 1.8288,12.63213 1.85596,31.62743 0.0255,17.8814 -0.63275,24.9037 -2.65862,28.36054 -2.20728,3.76642 -6.35091,7.66189 -10.46472,9.83796 l -3.33534,1.76428 -128.63105,-0.0853 C 136.90727,238.2888 77.323579,238.0558 75.246232,237.81795 Z m 63.396949,-7.35905 c 3.42339,-1.71995 5.17862,-4.82457 4.83167,-8.54609 -0.23863,-2.55897 -0.67131,-3.43513 -2.54418,-5.15148 -1.86542,-1.70953 -2.75087,-2.06813 -5.10676,-2.06813 -5.46219,0 -9.02549,3.42047 -9.02997,8.66799 -0.001,2.39924 0.33335,3.07162 2.72541,5.4637 3.10138,3.10139 5.38813,3.51094 9.12383,1.63401 z M 279.077,229.19719 c 1.36205,-1.29572 2.6693,-3.12398 2.90491,-4.06287 1.08157,-4.3093 -1.78853,-9.12491 -6.15732,-10.33123 -5.42359,-1.49748 -10.44365,2.58333 -10.38896,8.44529 0.0259,2.77338 0.92977,4.60622 3.1,6.28567 2.0605,1.59455 2.98352,1.91074 5.74958,1.96963 1.86022,0.0396 2.80207,-0.4137 4.79179,-2.30649 z m -106.06751,-4.52034 c 0.94634,-0.6739 2.18505,-2.3858 2.75257,-3.80424 0.85772,-2.14363 0.90642,-2.96185 0.2886,-4.84733 -1.56659,-4.78033 -3.72718,-6.32707 -8.83817,-6.32707 -2.04587,0 -2.9007,0.4227 -4.90222,2.42424 -2.10599,2.10603 -2.42423,2.79737 -2.42423,5.26692 0,4.93012 2.01123,8.1486 5.57886,8.92766 0.88113,0.1921 1.88303,0.42536 2.22642,0.51775 0.90225,0.24266 3.33064,-0.74272 5.31817,-2.15793 z m 72.20783,0.57166 c 2.98073,-1.84223 4.16856,-4.43056 3.79886,-8.27805 -0.2509,-2.61131 -0.67895,-3.48209 -2.558,-5.20415 -1.90672,-1.74739 -2.71811,-2.06468 -5.2319,-2.04599 -3.35245,0.0247 -5.12798,0.82422 -6.88625,3.09999 -2.86406,3.70707 -2.19787,8.72463 1.57085,11.83111 2.82328,2.32716 6.16061,2.5413 9.30644,0.59709 z m -99.55264,-64.71987 c 4.82362,-2.16557 7.82528,-5.00499 10.02693,-9.48494 1.87866,-3.82284 2.0083,-4.51363 1.99912,-10.6504 -0.008,-6.25443 -0.10872,-6.74531 -2.11263,-10.4581 -2.30946,-4.27842 -5.87497,-7.57529 -10.50436,-9.7128 -2.37705,-1.09757 -4.12641,-1.3777 -8.60354,-1.3777 -4.84392,0 -6.09454,0.23314 -9.05834,1.68877 -9.62443,4.72685 -15.16245,16.38182 -12.15393,25.57836 2.3649,7.22908 5.75704,11.15262 12.42676,14.37341 3.49732,1.68888 4.22427,1.81239 9.40997,1.59907 3.98961,-0.1643 6.47555,-0.61532 8.57002,-1.55567 z m 136.62748,-0.27262 c 3.31489,-1.94891 6.86602,-5.38269 9.56984,-9.25355 1.91146,-2.7365 1.96274,-2.9894 1.96274,-9.67853 0,-5.76497 -0.22144,-7.34812 -1.3777,-9.85243 -3.51761,-7.61833 -10.04513,-12.20408 -18.20252,-12.78771 -15.89653,-1.1374 -27.8513,14.7599 -22.11946,29.41418 2.34815,6.00345 6.77271,10.49019 12.87092,13.05186 1.99524,0.83812 3.99247,1.05295 8.55429,0.92017 5.11723,-0.14917 6.34233,-0.40325 8.74189,-1.81399 z m -48.65565,-15.58737 c 0.2952,-0.46587 0.54102,-6.1156 0.5463,-12.55499 l 0.008,-11.70792 h -29.66068 -29.66007 v 12.44502 c 0,12.4 0.007,12.44614 1.40494,12.74775 0.77271,0.16658 13.87397,0.21594 29.11381,0.10991 22.48902,-0.15642 27.80996,-0.35232 28.24558,-1.03982 z"
     style="fill:#ffffff;fill-opacity:1;stroke:none;stroke-width:18.0924;stroke-dasharray:none;stroke-opacity:1;paint-order:stroke fill markers"
     id="path494" />
</svg>
