<?xml version="1.0" encoding="UTF-8" standalone="no"?>
<!-- Created with Inkscape (http://www.inkscape.org/) -->

<svg
   width="114.94727mm"
   height="114.94727mm"
   viewBox="0 0 407.29349 407.29348"
   id="svg2"
   version="1.1"
   sodipodi:docname="pirate.svg"
   inkscape:version="1.2.1 (9c6d41e410, 2022-07-14, custom)"
   xmlns:inkscape="http://www.inkscape.org/namespaces/inkscape"
   xmlns:sodipodi="http://sodipodi.sourceforge.net/DTD/sodipodi-0.dtd"
   xmlns:xlink="http://www.w3.org/1999/xlink"
   xmlns="http://www.w3.org/2000/svg"
   xmlns:svg="http://www.w3.org/2000/svg"
   xmlns:rdf="http://www.w3.org/1999/02/22-rdf-syntax-ns#"
   xmlns:cc="http://creativecommons.org/ns#"
   xmlns:dc="http://purl.org/dc/elements/1.1/">
  <sodipodi:namedview
     id="namedview92"
     pagecolor="#ffffff"
     bordercolor="#666666"
     borderopacity="1.0"
     inkscape:showpageshadow="2"
     inkscape:pageopacity="0.0"
     inkscape:pagecheckerboard="0"
     inkscape:deskcolor="#d1d1d1"
     inkscape:document-units="mm"
     showgrid="false"
     inkscape:zoom="0.71801726"
     inkscape:cx="153.19966"
     inkscape:cy="272.97394"
     inkscape:window-width="1920"
     inkscape:window-height="1055"
     inkscape:window-x="0"
     inkscape:window-y="1080"
     inkscape:window-maximized="1"
     inkscape:current-layer="svg2" />
  <title
     id="title5759">Netflix icon</title>
  <defs
     id="defs4">
    <linearGradient
       id="linearGradient4200">
      <stop
         style="stop-color:#620000;stop-opacity:1;"
         offset="0"
         id="stop4196" />
      <stop
         style="stop-color:#cc0000;stop-opacity:1;"
         offset="1"
         id="stop4198" />
    </linearGradient>
    <linearGradient
       xlink:href="#linearGradient4200"
       id="linearGradient4204"
       x1="-58.368347"
       y1="33.189915"
       x2="399.62604"
       y2="229.92863"
       gradientUnits="userSpaceOnUse" />
  </defs>
  <metadata
     id="metadata7">
    <rdf:RDF>
      <cc:Work
         rdf:about="">
        <dc:title>Netflix icon</dc:title>
      </cc:Work>
    </rdf:RDF>
  </metadata>
  <path
     id="rect5922"
     style="fill:url(#linearGradient4204);stroke-width:7.66416;paint-order:stroke fill markers;fill-opacity:1"
     d="M 36.842652 0 C 16.444116 -8.8763939e-15 0.021726614 16.412318 0.0018310547 36.806031 L 0.0018310547 370.48645 C 0.021714552 390.86781 16.424683 407.27077 36.806031 407.29065 L 370.48645 407.29065 C 390.88016 407.27076 407.29248 390.84838 407.29248 370.44983 L 407.29248 36.842652 C 407.29248 16.431749 390.86073 0 370.44983 0 L 36.842652 0 z " />
  <path
     style="fill:#ffffff;fill-opacity:1;stroke:none;stroke-width:13.53;stroke-dasharray:none;stroke-opacity:1;paint-order:stroke fill markers"
     d="m 302.37082,326.07801 c -1.71217,-0.41364 -5.58504,-2.25041 -7.10322,-3.36881 -2.20756,-1.62623 -3.3186,-5.08137 -3.90432,-12.14184 -0.69883,-8.42381 -0.98856,-9.31208 -3.37996,-10.36318 -2.11873,-0.93121 -13.64635,-4.0427 -24.83724,-6.704 -13.64758,-3.24551 -25.29035,-5.98068 -31.05293,-7.29507 -3.21034,-0.73228 -9.96489,-2.29048 -15.01011,-3.46274 -13.81049,-3.20881 -13.06141,-3.21818 -29.81815,0.37285 -13.95443,2.99049 -36.28832,7.89791 -51.13227,11.23529 -10.78826,2.42555 -18.00201,4.36464 -19.22973,5.16906 -1.82288,1.1944 -2.37671,2.59395 -3.37312,8.52364 -1.5801,9.40351 -4.14401,13.17684 -10.23083,15.05686 -4.420143,1.36522 -6.988798,1.21411 -11.019686,-0.64822 -6.014603,-2.77897 -9.114658,-6.53474 -9.136471,-11.06906 -0.01241,-2.84867 1.005146,-6.11659 3.514071,-11.27143 2.95287,-6.06702 2.883784,-7.2025 -0.771484,-12.67768 l -2.850707,-4.27006 0.224586,-3.75383 c 0.249472,-4.16991 1.502553,-7.26553 3.993467,-9.86546 5.434039,-5.67188 16.105694,-6.44538 20.120524,-1.4584 0.61938,0.76937 1.6318,2.79194 2.24985,4.49467 0.61806,1.70269 1.37209,3.25377 1.67563,3.4468 1.6483,1.04822 12.37307,-0.0976 38.60927,-4.12419 8.41204,-1.29109 9.95047,-1.59236 9.65256,-1.89032 -0.10845,-0.10844 -2.69234,-0.72252 -5.74205,-1.36467 -30.99619,-6.52686 -49.29848,-9.84161 -56.91996,-10.30876 -4.271096,-0.2618 -4.861139,-0.19387 -6.768913,0.7794 -2.835271,1.44647 -4.340493,3.05773 -8.641672,9.25058 -2.018918,2.90685 -4.208387,5.66194 -4.865514,6.12241 -3.50737,2.45787 -9.387371,2.47138 -14.340511,0.0331 -3.491576,-1.7189 -5.85206,-4.30602 -7.209026,-7.90127 -1.924436,-5.09872 -0.564181,-9.19809 5.379445,-16.21162 5.639465,-6.65467 5.478876,-5.88428 2.819833,-13.52785 -1.888334,-5.42819 -2.261889,-7.05874 -2.288497,-9.98928 -0.0273,-3.01146 0.154524,-3.8384 1.298043,-5.90141 1.70708,-3.0797 4.532623,-5.79672 7.775891,-7.47715 2.276318,-1.17945 3.046049,-1.32899 6.77093,-1.31554 4.739213,0.0178 6.80379,0.79919 9.405631,3.56285 2.117389,2.24909 3.131828,4.59893 4.603741,10.66429 1.402997,5.78127 2.7597,8.96726 4.515634,10.60401 3.066559,2.85848 11.716185,5.47506 37.510355,11.34706 10.08049,2.29481 33.98705,7.38603 43.66087,9.29816 2.69671,0.53305 9.56732,1.89907 15.26805,3.03563 l 10.36495,2.06648 8.08,-1.57424 c 4.44401,-0.86586 12.38775,-2.41068 17.65273,-3.43294 30.82346,-5.98473 71.19355,-15.05994 80.33721,-18.05983 5.60299,-1.83826 8.0314,-4.86 10.90485,-13.56937 2.39378,-7.25545 4.58399,-9.4088 10.643,-10.46392 7.79266,-1.35702 15.60901,2.44973 17.39779,8.47316 1.15272,3.88168 0.93026,6.0651 -1.14169,11.20409 -1.02732,2.54802 -1.86783,5.31453 -1.86783,6.14773 0,1.85755 1.21506,4.18546 4.25436,8.15087 3.74815,4.8902 4.61789,6.9804 4.61789,11.09784 0,3.96822 -0.90031,6.33367 -3.43579,9.02683 -2.44883,2.60111 -4.41269,3.34454 -8.8353,3.34454 -4.83418,0 -8.23298,-0.96356 -10.14575,-2.8763 -0.79987,-0.79988 -2.22287,-3.05404 -3.16217,-5.00929 -1.90149,-3.95787 -4.73586,-7.35173 -6.89953,-8.26132 -2.31214,-0.97205 -4.30932,-0.64799 -35.93125,5.82997 -33.08669,6.77797 -37.59038,7.7381 -37.59038,8.01352 0,0.28989 13.8703,2.75407 28.95159,5.14354 13.84265,2.19314 14.51683,2.27298 16.68726,1.97547 2.34353,-0.32121 2.64681,-0.67894 5.97914,-7.05284 2.50421,-4.78986 5.10878,-7.71535 7.65271,-8.5955 2.63363,-0.91122 10.20546,-0.77652 12.17436,0.21655 1.95239,0.98475 4.0612,2.85395 5.44716,4.8283 2.26411,3.22528 3.47397,10.62661 2.5022,15.30747 -0.64666,3.11495 -2.34983,5.26056 -7.30694,9.20506 -3.02843,2.40979 -4.8451,4.78162 -4.8451,6.32573 0,0.49044 0.8669,3.61763 1.92645,6.94933 3.0438,9.57125 2.64094,13.63038 -1.7341,17.47171 -0.95182,0.8357 -2.67824,1.92567 -3.83652,2.42215 -2.12459,0.91073 -6.53848,1.47719 -8.26331,1.0605 z M 107.62518,237.65069 c -5.2953,-0.6063 -10.076416,-3.95888 -12.359622,-8.66674 -1.012423,-2.08757 -1.162106,-3.19696 -1.478941,-10.96141 -0.193883,-4.75135 -0.225765,-13.8921 -0.0709,-20.31281 0.269315,-11.16485 0.329821,-11.75732 1.386646,-13.5829 l 1.105074,-1.90887 V 146.5644 110.91083 l 1.517618,-3.03854 c 1.999759,-4.00384 4.619235,-6.7078 8.055085,-8.314825 l 2.80176,-1.31047 95.72706,-0.135906 95.72702,-0.136061 2.68137,1.453078 c 3.12188,1.691794 5.67282,4.034054 7.61339,6.990444 l 1.37928,2.10133 0.29136,36.42297 c 0.16029,20.03265 0.45254,36.94828 0.64954,37.59036 0.19703,0.64209 0.69523,1.55602 1.10715,2.03097 0.87233,1.00585 1.36763,9.44667 1.38794,23.6519 0.0191,13.37222 -0.47319,18.6237 -1.98819,21.20882 -1.65067,2.81664 -4.74939,5.72978 -7.82582,7.35711 l -2.49426,1.31938 -96.19398,-0.0638 c -52.90671,-0.0351 -97.4651,-0.20932 -99.0186,-0.38719 z m 47.41005,-5.50331 c 2.56011,-1.28623 3.87272,-3.60795 3.61326,-6.39101 -0.17845,-1.91367 -0.50202,-2.56889 -1.90261,-3.85243 -1.39501,-1.27843 -2.05718,-1.5466 -3.81898,-1.5466 -4.08478,0 -6.74952,2.55792 -6.75287,6.48217 -10e-4,1.79422 0.24929,2.29704 2.03814,4.08591 2.3193,2.31931 4.0294,2.62558 6.82306,1.22196 z m 105.02041,-0.94382 c 1.01858,-0.96898 1.99618,-2.3362 2.17237,-3.03833 0.80883,-3.22262 -1.33751,-6.82387 -4.60462,-7.72599 -4.05591,-1.11986 -7.81006,1.93189 -7.76916,6.31563 0.0194,2.07401 0.69531,3.44466 2.31827,4.7006 1.5409,1.19245 2.23116,1.42891 4.2997,1.47295 1.39113,0.0296 2.09547,-0.30938 3.58344,-1.72486 z m -79.32032,-3.38044 c 0.7077,-0.50396 1.63404,-1.78417 2.05845,-2.84492 0.64143,-1.60307 0.67785,-2.21496 0.21582,-3.62497 -1.17154,-3.57487 -2.78729,-4.73157 -6.60943,-4.73157 -1.52996,0 -2.16923,0.31611 -3.66602,1.81292 -1.57492,1.57495 -1.81291,2.09195 -1.81291,3.93875 0,3.68689 1.50405,6.09376 4.17203,6.67636 0.65893,0.14366 1.40818,0.3181 1.66498,0.38719 0.67473,0.18147 2.49075,-0.55543 3.97708,-1.61376 z m 53.99908,0.4275 c 2.22908,-1.37767 3.11737,-3.3133 2.8409,-6.19056 -0.18763,-1.95281 -0.50774,-2.60401 -1.91295,-3.89181 -1.4259,-1.30675 -2.03268,-1.54403 -3.91256,-1.53005 -2.50706,0.0185 -3.83485,0.61637 -5.14974,2.31826 -2.14182,2.77225 -1.64363,6.52453 1.17473,8.84764 2.11133,1.74032 4.60708,1.90046 6.95962,0.44652 z m -74.44831,-48.39937 c 3.60724,-1.61947 5.85197,-3.74287 7.49842,-7.09311 1.40492,-2.85883 1.50187,-3.37542 1.495,-7.96467 -0.006,-4.67724 -0.0813,-5.04434 -1.57988,-7.82087 -1.72708,-3.19952 -4.39347,-5.66502 -7.85546,-7.26351 -1.77763,-0.82079 -3.08585,-1.03028 -6.43398,-1.03028 -3.62242,0 -4.55767,0.17435 -6.77408,1.26291 -7.19743,3.53487 -11.33892,12.25079 -9.08906,19.12823 1.76854,5.40611 4.30528,8.34025 9.29309,10.74885 2.61539,1.26299 3.15903,1.35535 7.03704,1.19583 2.98355,-0.12287 4.8426,-0.46016 6.40891,-1.16338 z m 102.17394,-0.20387 c 2.47897,-1.45745 5.1346,-4.02533 7.1566,-6.92007 1.42944,-2.04643 1.46779,-2.23556 1.46779,-7.23788 0,-4.31121 -0.1656,-5.49514 -1.03028,-7.36793 -2.63057,-5.69721 -7.51204,-9.12656 -13.61237,-9.56302 -11.88788,-0.85058 -20.828,11.03788 -16.54156,21.99677 1.75601,4.48955 5.06482,7.84486 9.62524,9.76055 1.4921,0.62677 2.98568,0.78743 6.39714,0.68813 3.82681,-0.11155 4.74298,-0.30156 6.53744,-1.35655 z M 226.07394,167.9907 c 0.22076,-0.34839 0.40459,-4.57342 0.40854,-9.38898 l 0.006,-8.75552 h -22.18111 -22.18065 v 9.30674 c 0,9.27308 0.005,9.30758 1.05066,9.53313 0.57785,0.12458 10.37535,0.16149 21.77214,0.0822 16.81793,-0.11698 20.79708,-0.26348 21.12285,-0.77761 z"
     id="path293" />
</svg>
