<?xml version="1.0" encoding="UTF-8" standalone="no"?>
<!-- Created with Inkscape (http://www.inkscape.org/) -->

<svg
   width="28.513922mm"
   height="32.812946mm"
   viewBox="0 0 28.513921 32.812946"
   version="1.1"
   id="svg5"
   xmlns="http://www.w3.org/2000/svg"
   xmlns:svg="http://www.w3.org/2000/svg">
  <defs
     id="defs2" />
  <g
     id="layer1"
     transform="translate(-81.956819,-110.77255)">
    <g
       id="path458">
      <path
         id="path341"
         style="color:#000000;fill:#ffffff;stroke-linecap:round;-inkscape-stroke:none;paint-order:stroke fill markers"
         d="m 85.559427,110.77301 c -0.29215,0.005 -0.584847,0.0449 -0.871781,0.12196 -0.917704,0.24582 -1.700351,0.84597 -2.175578,1.66863 -0.352138,0.60958 -0.503623,1.27984 -0.476973,1.93476 -0.01624,0.12645 -0.02629,0.25427 -0.02894,0.38293 l -0.04858,24.82742 c -0.0097,0.47412 0.07428,0.92804 0.233061,1.34565 0.07789,0.25231 0.183748,0.50013 0.321427,0.73846 0.989339,1.71455 3.181757,2.30172 4.895825,1.31155 L 108.6774,130.29792 c 1.12917,-0.65157 1.76938,-1.82477 1.79213,-3.03961 0.0331,-1.27103 -0.61338,-2.51964 -1.79213,-3.19981 L 87.407893,111.25205 c -0.566138,-0.32668 -1.205734,-0.48935 -1.848466,-0.47904 z" />
    </g>
    <g
       id="path348">
      <path
         style="color:#000000;fill:#a50000;fill-opacity:0.214667;stroke-width:7.166;stroke-linecap:round;-inkscape-stroke:none;paint-order:stroke fill markers"
         d="M 104.86589,131.01803 87.63556,148.24836"
         id="path1121" />
    </g>
  </g>
</svg>
