<?xml version="1.0" encoding="UTF-8" standalone="no"?>
<!-- Created with Inkscape (http://www.inkscape.org/) -->

<svg
   width="114.94727mm"
   height="114.94727mm"
   viewBox="0 0 407.29349 407.29348"
   id="svg2"
   version="1.1"
   xmlns="http://www.w3.org/2000/svg"
   xmlns:svg="http://www.w3.org/2000/svg"
   xmlns:rdf="http://www.w3.org/1999/02/22-rdf-syntax-ns#"
   xmlns:cc="http://creativecommons.org/ns#"
   xmlns:dc="http://purl.org/dc/elements/1.1/">
  <title
     id="title5759">Netflix icon</title>
  <defs
     id="defs4" />
  <metadata
     id="metadata7">
    <rdf:RDF>
      <cc:Work
         rdf:about="">
        <dc:title>Netflix icon</dc:title>
      </cc:Work>
    </rdf:RDF>
  </metadata>
  <g
     id="layer1"
     transform="matrix(0.99999763,0,0,0.99999763,-2.2895473,9.9417289)"
     style="stroke-width:1;fill:#23234b;fill-opacity:1">
    <rect
       style="opacity:0.998;fill:#23234b;fill-opacity:1;stroke-width:2.83464;stroke-linecap:square;paint-order:stroke fill markers"
       id="rect1159"
       width="407.29349"
       height="407.29349"
       x="2.2895527"
       y="-9.9417524"
       ry="36.842911" />
  </g>
  <style
     type="text/css"
     id="style825">
	.st0{fill:#00A8E1;}
</style>
  <g
     id="g856"
     transform="matrix(3.4857973,0,0,3.4857973,64.167659,116.53081)"
     style="stroke-width:0.268948">
    <path
       class="st0"
       d="M 1.15,29.2 C 0.935,29.21 0.724,29.139 0.56,29 0.42,28.833 0.355,28.616 0.38,28.4 V 8 C 0.355,7.784 0.42,7.567 0.56,7.4 0.726,7.274 0.932,7.214 1.14,7.23 H 3.36 C 3.78,7.188 4.158,7.483 4.22,7.9 L 4.44,8.7 C 5.079,8.083 5.834,7.597 6.66,7.27 7.505,6.928 8.408,6.751 9.32,6.75 11.138,6.69 12.876,7.499 14,8.93 c 1.238,1.706 1.853,3.785 1.74,5.89 0.034,1.528 -0.259,3.045 -0.86,4.45 -0.496,1.17 -1.302,2.183 -2.33,2.93 -0.994,0.678 -2.177,1.028 -3.38,1 C 8.353,23.204 7.541,23.069 6.77,22.8 6.061,22.562 5.406,22.188 4.84,21.7 v 6.72 c 0.022,0.214 -0.038,0.429 -0.17,0.6 -0.171,0.132 -0.386,0.192 -0.6,0.17 z m 6.73,-9.36 c 0.988,0.071 1.944,-0.371 2.53,-1.17 0.623,-1.118 0.905,-2.394 0.81,-3.67 0.096,-1.288 -0.182,-2.576 -0.8,-3.71 -0.588,-0.807 -1.554,-1.25 -2.55,-1.17 -1.057,0.001 -2.093,0.287 -3,0.83 V 19 c 0.9,0.56 1.94,0.854 3,0.85 z"
       id="path829"
       style="stroke-width:0.268948" />
    <path
       class="st0"
       d="m 19.54,22.88 c -0.358,0.067 -0.703,-0.169 -0.77,-0.528 -0.015,-0.08 -0.015,-0.162 0,-0.242 V 8 C 18.745,7.784 18.81,7.567 18.95,7.4 19.116,7.274 19.322,7.214 19.53,7.23 h 2.21 C 22.16,7.188 22.538,7.483 22.6,7.9 L 23,9.54 c 0.657,-0.769 1.442,-1.419 2.32,-1.92 0.716,-0.375 1.512,-0.57 2.32,-0.57 h 0.43 c 0.217,-0.019 0.434,0.041 0.61,0.17 0.14,0.167 0.205,0.384 0.18,0.6 v 2.58 c 0.017,0.208 -0.043,0.414 -0.17,0.58 -0.167,0.14 -0.384,0.205 -0.6,0.18 h -0.55 c -0.227,0 -0.513,0 -0.86,0 -0.578,0.012 -1.154,0.079 -1.72,0.2 -0.59,0.109 -1.166,0.28 -1.72,0.51 v 10.25 c 0.016,0.208 -0.044,0.414 -0.17,0.58 -0.167,0.14 -0.384,0.205 -0.6,0.18 z"
       id="path831"
       style="stroke-width:0.268948" />
    <path
       class="st0"
       d="M 33.29,4.79 C 32.608,4.824 31.939,4.595 31.42,4.15 30.938,3.699 30.679,3.059 30.71,2.4 30.676,1.737 30.935,1.093 31.42,0.64 c 1.096,-0.877 2.654,-0.877 3.75,0 0.482,0.451 0.741,1.091 0.71,1.75 0.031,0.659 -0.228,1.299 -0.71,1.75 -0.52,0.451 -1.193,0.684 -1.88,0.65 z m -1.47,18.1 c -0.358,0.067 -0.703,-0.169 -0.77,-0.528 -0.015,-0.08 -0.015,-0.162 0,-0.242 V 8 C 31.025,7.784 31.09,7.567 31.23,7.4 31.396,7.274 31.602,7.214 31.81,7.23 h 2.95 c 0.214,-0.022 0.429,0.038 0.6,0.17 0.132,0.171 0.192,0.386 0.17,0.6 v 14.12 c 0.017,0.208 -0.043,0.414 -0.17,0.58 -0.167,0.14 -0.384,0.205 -0.6,0.18 z"
       id="path833"
       style="stroke-width:0.268948" />
    <path
       class="st0"
       d="m 40.1,22.88 c -0.358,0.067 -0.703,-0.169 -0.77,-0.528 -0.015,-0.08 -0.015,-0.162 0,-0.242 V 8 C 39.305,7.784 39.37,7.567 39.51,7.4 39.676,7.274 39.882,7.214 40.09,7.23 h 2.21 c 0.42,-0.042 0.798,0.253 0.86,0.67 l 0.25,0.83 C 44.32,8.103 45.304,7.593 46.34,7.21 47.195,6.912 48.094,6.757 49,6.75 c 1.576,-0.135 3.09,0.642 3.9,2 0.913,-0.628 1.905,-1.132 2.95,-1.5 0.922,-0.307 1.888,-0.462 2.86,-0.46 1.228,-0.074 2.432,0.36 3.33,1.2 0.828,0.908 1.254,2.113 1.18,3.34 v 10.79 c 0.016,0.208 -0.044,0.414 -0.17,0.58 -0.167,0.14 -0.384,0.205 -0.6,0.18 h -2.91 c -0.358,0.067 -0.703,-0.169 -0.77,-0.528 -0.015,-0.08 -0.015,-0.162 0,-0.242 v -9.84 c 0,-1.393 -0.623,-2.09 -1.87,-2.09 -1.162,0.013 -2.307,0.287 -3.35,0.8 v 11.14 c 0.017,0.208 -0.043,0.414 -0.17,0.58 -0.167,0.14 -0.384,0.205 -0.6,0.18 h -2.94 c -0.358,0.067 -0.703,-0.169 -0.77,-0.528 -0.015,-0.08 -0.015,-0.162 0,-0.242 v -9.84 c 0,-1.393 -0.623,-2.09 -1.87,-2.09 -1.176,0.007 -2.334,0.292 -3.38,0.83 v 11.1 c 0.016,0.208 -0.044,0.414 -0.17,0.58 -0.167,0.14 -0.384,0.205 -0.6,0.18 z"
       id="path835"
       style="stroke-width:0.268948" />
    <path
       class="st0"
       d="m 73.92,23.34 c -2.155,0.141 -4.272,-0.615 -5.85,-2.09 -1.443,-1.652 -2.164,-3.813 -2,-6 -0.144,-2.267 0.586,-4.504 2.04,-6.25 1.515,-1.564 3.636,-2.393 5.81,-2.27 1.608,-0.096 3.196,0.395 4.47,1.38 1.078,0.92 1.672,2.285 1.61,3.7 0.073,1.385 -0.588,2.707 -1.74,3.48 -1.551,0.886 -3.328,1.296 -5.11,1.18 -1.01,0.012 -2.018,-0.102 -3,-0.34 0.006,1.106 0.452,2.164 1.24,2.94 0.933,0.662 2.069,0.977 3.21,0.89 0.558,0 1.116,-0.037 1.67,-0.11 0.762,-0.118 1.516,-0.279 2.26,-0.48 h 0.18 0.15 c 0.347,0 0.52,0.237 0.52,0.71 v 1.41 c 0.019,0.239 -0.029,0.478 -0.14,0.69 -0.142,0.167 -0.33,0.288 -0.54,0.35 -1.53,0.563 -3.15,0.838 -4.78,0.81 z m -1,-9.63 c 0.787,0.057 1.574,-0.109 2.27,-0.48 0.478,-0.327 0.748,-0.882 0.71,-1.46 0,-1.287 -0.767,-1.93 -2.3,-1.93 -1.967,0 -3.103,1.207 -3.41,3.62 0.893,0.171 1.801,0.255 2.71,0.25 z"
       id="path837"
       style="stroke-width:0.268948" />
    <path
       class="st0"
       d="M 72.31,40.11 C 63.55,46.57 50.85,50 39.92,50 25.314,50.078 11.204,44.705 0.35,34.93 -0.47,34.19 0.26,33.18 1.25,33.75 13.308,40.635 26.955,44.251 40.84,44.24 51.201,44.185 61.45,42.088 71,38.07 c 1.52,-0.63 2.76,0.93 1.31,2.04 z"
       id="path839"
       style="stroke-width:0.268948" />
    <path
       class="st0"
       d="m 76,36 c -1.12,-1.43 -7.4,-0.68 -10.23,-0.34 -0.86,0.1 -1,-0.64 -0.22,-1.18 5,-3.52 13.23,-2.5 14.18,-1.32 0.95,1.18 -0.25,9.41 -5,13.34 -0.72,0.6 -1.41,0.28 -1.09,-0.52 C 74.71,43.29 77.08,37.39 76,36 Z"
       id="path841"
       style="stroke-width:0.268948" />
  </g>
</svg>
