<?xml version="1.0" encoding="UTF-8" standalone="no"?>
<!-- Created with Inkscape (http://www.inkscape.org/) -->

<svg
   width="114.947mm"
   height="114.947mm"
   viewBox="0 0 407.29252 407.29251"
   id="svg2"
   version="1.1"
   sodipodi:docname="somafm.svg"
   inkscape:version="1.1.1 (3bf5ae0d25, 2021-09-20)"
   xmlns:inkscape="http://www.inkscape.org/namespaces/inkscape"
   xmlns:sodipodi="http://sodipodi.sourceforge.net/DTD/sodipodi-0.dtd"
   xmlns="http://www.w3.org/2000/svg"
   xmlns:svg="http://www.w3.org/2000/svg">
  <sodipodi:namedview
     id="namedview22"
     pagecolor="#505050"
     bordercolor="#eeeeee"
     borderopacity="1"
     inkscape:pageshadow="0"
     inkscape:pageopacity="0"
     inkscape:pagecheckerboard="0"
     inkscape:document-units="mm"
     showgrid="false"
     inkscape:zoom="2.2265679"
     inkscape:cx="214.23106"
     inkscape:cy="233.31873"
     inkscape:window-width="1680"
     inkscape:window-height="1050"
     inkscape:window-x="2001"
     inkscape:window-y="1160"
     inkscape:window-maximized="1"
     inkscape:current-layer="svg2" />
  <defs
     id="defs4">
    <clipPath
       clipPathUnits="userSpaceOnUse"
       id="clipPath20">
      <path
         d="M 0,792 H 612 V 0 H 0 Z"
         id="path18" />
    </clipPath>
  </defs>
  <g
     id="layer1"
     transform="matrix(0.99999763,0,0,0.99999763,-2.2895473,9.9417289)"
     style="fill:#010101;">
    <rect
       style="opacity:0.998;fill:#010101;fill-opacity:1;stroke-width:2.83464;stroke-linecap:square;paint-order:stroke fill markers"
       id="rect1159"
       width="407.29349"
       height="407.29349"
       x="2.2895527"
       y="-9.9417524"
       ry="36.842911" />
  </g>
  <path
     d="m 69.714214,185.80975 h 18.32 c 2.8525,0 5.3775,0.855 7.56625,2.5625 2.19,1.71125 3.285,3.3825 3.285,5.00875 0,1.15125 -0.405,2.09375 -1.21,2.82875 -0.80875,0.73875 -1.7025,1.1025 -2.68,1.1025 -1.26875,0 -2.42375,-0.57625 -3.46625,-1.7325 -1.04375,-1.1525 -2.135,-1.73 -3.27375,-1.73 h -18.03375 c -1.7725,0 -2.65625,0.7225 -2.65625,2.17125 0,1.015 0.57875,1.78375 1.73875,2.30875 l 21.2275,9.55875 c 2.16,0.9525 3.92875,2.48625 5.31125,4.59625 1.38125,2.11625 2.0725,4.46 2.0725,7.03375 0,3.435 -1.21625,6.34125 -3.64375,8.72375 -2.43125,2.38625 -5.1875,3.57625 -8.26875,3.57625 h -16.1975 c -2.7975,0 -5.39375,-0.8425 -7.79125,-2.5375 -2.4,-1.695 -3.59625,-3.3425 -3.59625,-4.93625 0,-1.055 0.3875,-1.98875 1.1625,-2.8025 0.77625,-0.815 1.78375,-1.22375 3.0175,-1.22375 1.01375,0 2.09875,0.5775 3.255,1.7325 1.1575,1.155 2.8275,1.7325 5.01625,1.7325 h 14.87375 c 1.1725,0 2.15375,-0.45 2.94625,-1.35625 0.79125,-0.9025 1.18875,-1.94125 1.18875,-3.11375 0,-1.8075 -0.8625,-3.11 -2.58375,-3.89875 l -21.4775,-9.67 c -2.065,-0.92375 -3.6525,-2.25625 -4.76375,-4.0075 -1.11,-1.7475 -1.66625,-3.52625 -1.66625,-5.34125 0,-2.86125 0.99,-5.34 2.975,-7.43875 1.9825,-2.0975 4.43375,-3.1475 7.3525,-3.1475"
     style="fill:#ed1f24;fill-opacity:1;fill-rule:nonzero;stroke:none;stroke-width:1.25"
     id="path24" />
  <path
     d="m 138.15784,190.24649 c -3.39,-3.05 -6.88,-4.5425 -10.47375,-4.48 h -9.4025 c -3.8175,0 -7.35625,1.55 -10.61875,4.6475 -3.26,3.10125 -4.89125,6.40125 -4.89125,9.895 v 16.9275 c 0,3.49625 1.67,6.7925 5.01125,9.89375 3.33875,3.09875 6.84,4.64875 10.49875,4.64875 h 9.4025 c 3.59375,0 7.08375,-1.52875 10.47375,-4.57875 3.3875,-3.05125 5.08125,-6.3725 5.08125,-9.96375 v -16.9275 c 0,-3.655 -1.69375,-7.0075 -5.08125,-10.0625 m -25.735,7.17375 2.71125,-2.33 c 0.9825,-0.8575 2.375,-1.28625 4.185,-1.28625 h 8.275 c 1.2675,0 2.37375,0.3975 3.32875,1.1875 l 2.80375,2.24 c 0.98375,0.76125 1.47625,1.93625 1.47625,3.52125 v 16.17875 c 0,1.36375 -0.4925,2.42875 -1.47625,3.19125 l -2.425,2.1425 c -1.1075,0.98375 -2.345,1.47625 -3.7075,1.47625 h -9.275 c -1.205,0 -2.14125,-0.2875 -2.805,-0.85875 l -2.99375,-2.56875 c -1.04875,-0.8575 -1.57125,-2.01875 -1.57125,-3.475 v -16.18125 c 0,-1.33125 0.49,-2.41 1.47375,-3.2375"
     style="fill:#ed1f24;fill-opacity:1;fill-rule:nonzero;stroke:none;stroke-width:1.25"
     id="path28" />
  <path
     d="m 149.92546,227.81425 v -38 c 0,-1.11375 0.39375,-2.0575 1.18625,-2.83375 0.79,-0.7825 1.75125,-1.17125 2.88,-1.17125 2.09875,0 3.42125,1.06 3.9725,3.175 2.2125,-2.115 4.68,-3.175 7.40375,-3.175 3.195,0 5.81875,1.37875 7.87625,4.1375 2.53,-2.75875 5.315,-4.1375 8.35375,-4.1375 2.46625,0 4.61,0.88125 6.43,2.64 1.81875,1.7625 2.7925,4.00375 2.91875,6.73375 l 1.2475,32.64125 c 0,1.075 -0.40375,2.01375 -1.2025,2.8075 -0.80375,0.795 -1.74875,1.18625 -2.83875,1.18625 -1.12,0 -2.08375,-0.39125 -2.885,-1.18625 -0.80125,-0.78625 -1.22,-1.7225 -1.25,-2.79875 l -0.97,-31.2825 c -0.0662,-1.7075 -0.59125,-2.565 -1.57875,-2.565 -0.54375,0 -1.10125,0.23875 -1.675,0.715 l -4.785,4.00125 v 29.2175 c 0,1.07875 -0.39,1.9975 -1.1725,2.76 -0.78125,0.7625 -1.73,1.13875 -2.845,1.13875 -1.08625,0 -2.02875,-0.38375 -2.825,-1.1625 -0.7975,-0.78125 -1.19625,-1.71875 -1.19625,-2.83125 v -31.7925 c 0,-1.365 -0.5825,-2.04625 -1.74625,-2.04625 -0.56625,0 -1.0825,0.20875 -1.55375,0.61875 l -5.70625,4.85875 v 28.3725 c 0,1.0775 -0.385,2.01 -1.15125,2.8025 -0.76625,0.78875 -1.69125,1.18 -2.7725,1.18 -1.11875,0 -2.08125,-0.39125 -2.89625,-1.18875 -0.81375,-0.795 -1.21875,-1.735 -1.21875,-2.815"
     style="fill:#ed1f24;fill-opacity:1;fill-rule:nonzero;stroke:none;stroke-width:1.25"
     id="path32" />
  <path
     d="m 201.00571,206.54287 c -2.375,2.36 -3.56625,5.20125 -3.56625,8.535 v 4.65875 c 0,3.36375 1.175,6.2175 3.52875,8.565 2.35125,2.34625 5.2175,3.51625 8.60125,3.51625 h 13.54375 l 6.77125,-4.0575 c 0,1.12875 0.4,2.0875 1.20125,2.8775 0.8,0.78875 1.7825,1.18 2.9325,1.18 1.09125,0 2.03625,-0.38375 2.83875,-1.165 0.8,-0.78125 1.2025,-1.72625 1.2025,-2.83875 l -0.96875,-29.9875 c -0.0962,-3.36875 -1.3175,-6.21375 -3.665,-8.53375 -2.34625,-2.32125 -5.17875,-3.4825 -8.49625,-3.4825 h -15.275 c -1.12125,0 -2.0725,0.39125 -2.86,1.175 -0.7875,0.78125 -1.1775,1.7275 -1.1775,2.8425 0,1.08625 0.4,2.02875 1.1975,2.82375 0.80375,0.7975 1.74625,1.1975 2.83375,1.1975 h 15.24875 c 1.1125,0 2.06375,0.38875 2.845,1.165 0.77875,0.77875 1.1725,1.72625 1.1725,2.83375 l 0.18375,5.67375 c -1.62875,-0.3525 -2.87125,-0.525 -3.735,-0.525 h -15.74875 c -3.3675,0 -6.23,1.1775 -8.60875,3.54625 m 19.88125,16.965 h -11.26375 c -1.07875,0 -2.02125,-0.3925 -2.81625,-1.165 -0.795,-0.77375 -1.19,-1.6925 -1.19,-2.75 v -4.375 c 0,-1.085 0.39,-2.0075 1.16625,-2.76375 0.78,-0.76375 1.73,-1.145 2.84,-1.145 h 15.73 c 1.10875,0 2.04125,0.37375 2.80125,1.12 0.7625,0.745 1.16,1.6775 1.1925,2.795 l 0.2375,3.305 z"
     style="fill:#ed1f24;fill-opacity:1;fill-rule:nonzero;stroke:none;stroke-width:1.25"
     id="path36" />
  <path
     d="m 283.52896,193.84937 v 33.97 c 0,1.11125 -0.40125,2.055 -1.205,2.83375 -0.80125,0.78 -1.745,1.165 -2.83625,1.165 -1.155,0 -2.13125,-0.385 -2.93375,-1.165 -0.8,-0.77875 -1.2025,-1.7225 -1.2025,-2.83375 v -33.97 h -4.0675 c -1.1025,0 -2.04,-0.4 -2.81,-1.1975 -0.77625,-0.795 -1.16,-1.73875 -1.16,-2.82375 0,-1.05125 0.3475,-1.9825 1.05125,-2.7975 0.7025,-0.81375 1.6575,-1.22125 2.87625,-1.22125 h 4.11 v -3.09375 c 0,-4.09375 1.415,-7.48625 4.24375,-10.18375 2.82375,-2.6975 6.34375,-4.04625 10.56625,-4.04625 h 9.4375 c 1.1175,0 2.06625,0.4025 2.85,1.20375 0.78375,0.80125 1.17625,1.78125 1.17625,2.9325 0,1.0925 -0.4025,2.0375 -1.1975,2.84 -0.8,0.80125 -1.73875,1.20125 -2.82375,1.20125 h -9.425 c -1.915,0 -3.49875,0.5675 -4.76125,1.695 -1.2575,1.135 -1.88875,2.59625 -1.88875,4.3875 v 3.06375 h 8.03875 c 1.0825,-0.03 2.02625,0.355 2.82,1.15 0.7975,0.7975 1.19875,1.75375 1.19875,2.86875 0,1.085 -0.3975,2.02875 -1.18625,2.82375 -0.79375,0.7975 -1.73,1.1975 -2.80125,1.1975 z"
     style="fill:#ed1f24;fill-opacity:1;fill-rule:nonzero;stroke:none;stroke-width:1.25"
     id="path40" />
  <path
     d="m 300.97521,227.81425 v -38 c 0,-1.11375 0.3925,-2.0575 1.1875,-2.83375 0.78875,-0.7825 1.74875,-1.17125 2.88125,-1.17125 2.0975,0 3.42125,1.06 3.97,3.175 2.21,-2.115 4.68,-3.175 7.4025,-3.175 3.19875,0 5.82125,1.37875 7.8775,4.1375 2.53,-2.75875 5.31625,-4.1375 8.35375,-4.1375 2.46875,0 4.61,0.88125 6.4325,2.64 1.81625,1.7625 2.785,4.00375 2.91875,6.73375 l 1.24375,32.64125 c 0,1.075 -0.4025,2.01375 -1.20125,2.8075 -0.80375,0.795 -1.74875,1.18625 -2.84,1.18625 -1.11625,0 -2.08125,-0.39125 -2.88625,-1.18625 -0.8,-0.78625 -1.2175,-1.7225 -1.2475,-2.79875 l -0.97125,-31.2825 c -0.0637,-1.7075 -0.58875,-2.565 -1.57875,-2.565 -0.54,0 -1.10125,0.23875 -1.67375,0.715 l -4.78625,4.00125 v 29.2175 c 0,1.07875 -0.38875,1.9975 -1.1725,2.76 -0.78125,0.7625 -1.72875,1.13875 -2.84375,1.13875 -1.0875,0 -2.02625,-0.38375 -2.82375,-1.1625 -0.8,-0.78125 -1.19375,-1.71875 -1.19375,-2.83125 v -31.7925 c 0,-1.365 -0.58625,-2.04625 -1.74875,-2.04625 -0.5675,0 -1.0825,0.20875 -1.555,0.61875 l -5.70625,4.85875 v 28.3725 c 0,1.0775 -0.38375,2.01 -1.15125,2.8025 -0.76375,0.78875 -1.69125,1.18 -2.77375,1.18 -1.11625,0 -2.07875,-0.39125 -2.89375,-1.18875 -0.8175,-0.795 -1.22,-1.735 -1.22,-2.815"
     style="fill:#ed1f24;fill-opacity:1;fill-rule:nonzero;stroke:none;stroke-width:1.25"
     id="path44" />
</svg>
