<?xml version="1.0" encoding="UTF-8" standalone="no"?>
<!-- Created with Inkscape (http://www.inkscape.org/) -->

<svg
   width="114.947mm"
   height="114.947mm"
   viewBox="0 0 407.29252 407.29251"
   id="svg2"
   version="1.1"
   xmlns="http://www.w3.org/2000/svg"
   xmlns:svg="http://www.w3.org/2000/svg"
   xmlns:rdf="http://www.w3.org/1999/02/22-rdf-syntax-ns#"
   xmlns:cc="http://creativecommons.org/ns#"
   xmlns:dc="http://purl.org/dc/elements/1.1/">
  <defs
     id="defs4" />
  <g
     id="layer1"
     transform="matrix(0.99999763,0,0,0.99999763,0.32025533,12.465804)"
     style="fill:#000000;fill-opacity:1;stroke-width:1">
    <rect
       style="opacity:0.998;fill:#000000;fill-opacity:1;stroke-width:2.83464;stroke-linecap:square;paint-order:stroke fill markers"
       id="rect1159"
       width="407.29349"
       height="407.29349"
       x="-0.32025608"
       y="-12.465834"
       ry="36.842911" />
  </g>
  <path
     fill="#1ed760"
     d="m 203.64549,68.244736 c -74.77989,0 -135.40402,60.622394 -135.40402,135.402354 0,74.78318 60.62413,135.4007 135.40402,135.4007 74.78799,0 135.40556,-60.61752 135.40556,-135.4007 0,-74.77511 -60.61757,-135.395886 -135.40711,-135.395886 z m 62.09529,195.289044 c -2.42526,3.97756 -7.63176,5.23875 -11.60925,2.79722 -31.79142,-19.41894 -71.8129,-23.81691 -118.94562,-13.04837 -4.5418,1.03482 -9.06912,-1.81092 -10.10394,-6.35442 -1.03964,-4.54348 1.79472,-9.07079 6.34791,-10.10561 51.57916,-11.78395 95.82233,-6.71012 131.5138,15.10184 3.97748,2.44151 5.23875,7.63176 2.7971,11.60934 z m 16.57326,-36.86852 c -3.05599,4.96711 -9.55583,6.5355 -14.51967,3.47957 -36.39651,-22.37141 -91.8771,-28.85034 -134.92696,-15.78256 -5.58318,1.68642 -11.48007,-1.46005 -13.17458,-7.03352 -1.68157,-5.58313 1.4665,-11.46864 7.04002,-13.1664 49.17476,-14.92074 110.30802,-7.69319 152.1049,17.99123 4.96383,3.05595 6.53227,9.55588 3.47629,14.51328 z m 1.42287,-38.39165 C 240.09685,162.3531 168.09631,159.9698 126.43052,172.61556 c -6.69078,2.02921 -13.76632,-1.74786 -15.79388,-8.4386 -2.02754,-6.69397 1.74626,-13.76465 8.44185,-15.79871 47.82951,-14.51976 127.3404,-11.71444 177.58395,18.11251 6.03108,3.57171 8.0036,11.34415 4.43022,17.35416 -3.55718,6.0181 -11.35054,8.00203 -17.3492,4.42869 z"
     id="path824"
     style="stroke-width:0.9375" />
</svg>
