<?xml version="1.0" encoding="UTF-8" standalone="no"?>
<!-- Created with Inkscape (http://www.inkscape.org/) -->

<svg
   width="114.94727mm"
   height="114.94727mm"
   viewBox="0 0 407.29349 407.29348"
   id="svg2"
   version="1.1"
   sodipodi:docname="template.svg"
   xml:space="preserve"
   xmlns:inkscape="http://www.inkscape.org/namespaces/inkscape"
   xmlns:sodipodi="http://sodipodi.sourceforge.net/DTD/sodipodi-0.dtd"
   xmlns="http://www.w3.org/2000/svg"
   xmlns:svg="http://www.w3.org/2000/svg"
   xmlns:rdf="http://www.w3.org/1999/02/22-rdf-syntax-ns#"
   xmlns:cc="http://creativecommons.org/ns#"
   xmlns:dc="http://purl.org/dc/elements/1.1/"><sodipodi:namedview
     id="namedview1"
     pagecolor="#ffffff"
     bordercolor="#000000"
     borderopacity="0.25"
     inkscape:showpageshadow="2"
     inkscape:pageopacity="0.0"
     inkscape:pagecheckerboard="0"
     inkscape:deskcolor="#d1d1d1"
     inkscape:document-units="mm"
     showgrid="false" /><title
     id="title5759">Netflix icon</title><defs
     id="defs4" /><metadata
     id="metadata7"><rdf:RDF><cc:Work
         rdf:about=""><dc:title>Netflix icon</dc:title></cc:Work></rdf:RDF></metadata><g
     id="layer1"
     transform="matrix(0.99999763,0,0,0.99999763,-2.2895473,9.9417289)"
     style="stroke-width:1"><rect
       style="opacity:0.998;fill:#7b7b7b;fill-opacity:0.620323;stroke-width:2.83464;stroke-linecap:square;paint-order:stroke fill markers"
       id="rect1159"
       width="407.29349"
       height="407.29349"
       x="2.2895527"
       y="-9.9417524"
       ry="36.842911" /></g><g
     fill="none"
     fill-rule="evenodd"
     id="g4"
     transform="matrix(0.93750001,0,0,0.93750001,33.637536,240.89118)"><path
       fill="#ffffff"
       d="m 24.052,26.3 c -0.832,-0.09 -0.841,-0.462 -0.832,-5.421 0,0 -0.083,-0.312 0.395,-0.582 0.477,-0.27 1.93,-2.679 1.037,-4.734 -0.892,-2.056 -0.248,-1.952 0.125,-1.744 0.374,0.208 0.554,-0.055 0.332,-1.183 C 24.652,10.311 23.939,9.523 22.258,8.474 21.154,7.784 21.554,6.534 23.124,6.626 23.89,6.671 23.89,6.672 23.986,6.071 24.138,5.124 23.836,3.506 22.659,3.283 21.849,3.129 20.842,3.996 19.644,3.392 18.446,2.788 16.466,4.296 15.656,4.646 14.846,4.996 14.177,5 13.253,4.977 c -0.925,-0.022 0.49,1.531 1.906,1.881 1.216,0.3 0.743,0.516 0.674,1.51 -0.078,1.113 0.24,1.59 -0.279,1.707 C 14.758,10.253 13.868,8.114 12.502,7.218 9.4,5.183 7.56,6.152 2.15,0.201 1.211,-0.83 1.592,2.36 2.17,4.063 c 1.543,4.55 4.532,5.153 5.942,5.29 1.18,0.116 1.984,-0.158 1.984,0.297 0,0.33 -1.391,0.48 -1.93,0.482 A 9.469,9.469 0 0 1 6.404,9.959 c -1.073,-0.2 0.569,2.535 1.624,3.402 1.78,1.465 3.818,2.014 5.456,2.18 0.473,0.048 1.146,0.04 1.146,0.41 0,0.352 -0.354,0.438 -0.773,0.441 -2.294,0.017 -3.612,1.849 -3.986,3.967 -0.237,1.346 -0.06,2.868 -0.035,4.005 l 0.09,0.812 C 10.106,26.602 4.978,27.151 4.299,24.854 3.556,22.344 7.608,21.017 7.682,18.622 7.729,17.113 6.349,16.428 6.349,16.428 V 14.224 H 4.76 V 12.637 H 3.174 V 11.05 H 1.587 v 4.761 H 3.174 V 17.4 h 2.613 c 0.594,0 1.07,0.392 1.015,1.24 -0.137,2.093 -4.589,3.379 -3.365,6.716 0.884,2.41 4.696,2.441 8.513,2.441 l 7.118,-0.006 c 0.222,0 0.534,-0.107 0.08,-1.255 -0.367,-0.927 -1.632,-0.276 -2.706,-0.276 -1.137,0 -1.176,-0.96 -0.446,-1.973 0.446,-0.618 1.014,-1.078 1.979,-1.527 1.486,-0.693 2.617,0.198 3.174,0.963 0.8,1.099 1.054,2.355 0.348,2.552 -0.851,0.238 -1.113,0.27 -1.141,1.08 -0.022,0.581 0.256,0.422 1.595,0.422 h 4.445 c 0.688,0 0.637,-0.53 -0.055,-1.45 -0.491,-0.653 -1.028,0.11 -2.289,-0.027 z"
       id="path1" /><path
       fill="#ffffff"
       d="M 0,10.827 H 1.587 V 9.24 H 0 Z"
       id="path2"
       sodipodi:nodetypes="ccccc" /></g></svg>
