<?xml version="1.0" encoding="UTF-8" standalone="no"?>
<!-- Created with Inkscape (http://www.inkscape.org/) -->

<svg
   width="114.94727mm"
   height="114.94727mm"
   viewBox="0 0 407.29349 407.29348"
   id="svg2"
   version="1.1"
   xmlns="http://www.w3.org/2000/svg"
   xmlns:svg="http://www.w3.org/2000/svg"
   xmlns:rdf="http://www.w3.org/1999/02/22-rdf-syntax-ns#"
   xmlns:cc="http://creativecommons.org/ns#"
   xmlns:dc="http://purl.org/dc/elements/1.1/">
  <title
     id="title5759">Netflix icon</title>
  <defs
     id="defs4" />
  <metadata
     id="metadata7">
    <rdf:RDF>
      <cc:Work
         rdf:about="">
        <dc:title>Netflix icon</dc:title>
      </cc:Work>
    </rdf:RDF>
  </metadata>
  <g
     id="layer1"
     style="fill:#010101;fill-opacity:1;stroke-width:1"
     transform="translate(-2.2895527,9.9417524)">
    <rect
       style="opacity:0.998;fill:#010101;fill-opacity:1;stroke-width:2.83464;stroke-linecap:square;paint-order:stroke fill markers"
       id="rect1159"
       width="407.29349"
       height="407.29349"
       x="2.2895527"
       y="-9.9417524"
       ry="36.842911" />
  </g>
  <path
     d="m 199.45508,69.893646 c -82.42391,0 -145.474943,62.575614 -145.474943,144.999534 0,65.90347 41.479374,122.29878 100.727133,142.14707 7.60654,1.36681 10.28071,-3.32785 10.28071,-7.19054 0,-3.68442 -0.17829,-24.00812 -0.17829,-36.48759 0,0 -41.59822,8.9139 -50.33384,-17.70896 0,0 -6.77457,-17.29297 -16.520443,-21.74993 0,0 -13.608564,-9.32988 0.95082,-9.15161 0,0 14.797073,1.18852 22.938453,15.33192 13.01429,22.93845 34.82365,16.34216 43.32157,12.42004 1.3668,-9.50817 5.2295,-16.10445 9.50817,-20.02658 -33.21916,-3.68441 -66.73544,-8.49791 -66.73544,-65.66577 0,-16.34216 4.51638,-24.54295 14.02454,-35.00193 -1.54507,-3.8627 -6.59628,-19.78888 1.54508,-40.35029 12.42005,-3.86269 41.00396,16.04504 41.00396,16.04504 11.88522,-3.32787 24.66181,-5.05122 37.31955,-5.05122 12.65775,0 25.43435,1.72335 37.31956,5.05122 0,0 28.58392,-19.96715 41.00396,-16.04504 8.14138,20.62084 3.09016,36.48759 1.54508,40.35029 9.50817,10.51841 15.33192,18.7192 15.33192,35.00193 0,57.34613 -35.00194,61.92194 -68.22109,65.66577 5.46719,4.69466 10.10243,13.60857 10.10243,27.57369 0,20.02658 -0.17828,44.80723 -0.17828,49.68017 0,3.86269 2.7336,8.55734 10.2807,7.19054 59.42604,-19.72944 99.71689,-76.12475 99.71689,-142.02822 0,-82.42392 -66.85429,-144.999534 -149.2782,-144.999534 z"
     id="path2"
     style="fill:#f8f8ff" />
</svg>
