<?xml version="1.0" encoding="UTF-8" standalone="no"?>
<svg
   width="114.94727mm"
   height="114.94727mm"
   viewBox="0 0 407.29349 407.29348"
   id="svg2"
   version="1.1"
   xmlns:xlink="http://www.w3.org/1999/xlink"
   xmlns="http://www.w3.org/2000/svg"
   xmlns:svg="http://www.w3.org/2000/svg"
   xmlns:rdf="http://www.w3.org/1999/02/22-rdf-syntax-ns#"
   xmlns:cc="http://creativecommons.org/ns#"
   xmlns:dc="http://purl.org/dc/elements/1.1/">
  <defs
     id="defs4">
    <linearGradient
       id="linearGradient1753">
      <stop
         style="stop-color:#b047fb;stop-opacity:1"
         offset="0"
         id="stop1749" />
      <stop
         style="stop-color:#5002c9;stop-opacity:1"
         offset="0.49836379"
         id="stop2659" />
      <stop
         style="stop-color:#3e7edc;stop-opacity:1"
         offset="1"
         id="stop1751" />
    </linearGradient>
    <linearGradient
       xlink:href="#linearGradient1753"
       id="linearGradient1755"
       x1="2.2895527"
       y1="-9.9417524"
       x2="409.58304"
       y2="397.35175"
       gradientUnits="userSpaceOnUse"
       gradientTransform="translate(0,-2.9567385)" />
  </defs>
  <g
     id="layer1"
     transform="translate(-2.2895527,12.898491)">
    <rect
       style="opacity:0.998;fill:url(#linearGradient1755);fill-opacity:1;stroke-width:2.83464;stroke-linecap:square;paint-order:stroke fill markers"
       id="rect1159"
       width="407.29349"
       height="407.29349"
       x="2.2895527"
       y="-12.898491"
       ry="36.842911" />
    <path
       style="fill:#ffffff;fill-opacity:1;fill-rule:nonzero;stroke:none;stroke-width:0.39541"
       d="m 156.61764,186.14833 h -26.14435 v -37.34109 h -16.96944 v 37.34109 H 86.662326 l -0.09063,-96.246028 h 26.932164 v 35.800318 h 16.96943 V 89.902302 h 26.14435 z m 119.78987,0.45316 c 26.96003,-0.014 48.90039,-22.40744 48.89339,-49.37445 -0.007,-27.53174 -21.93336,-48.914308 -48.89339,-48.935238 -26.92516,-0.0211 -40.6876,19.799988 -44.08283,27.803648 0.0277,-12.01247 -11.81026,-26.186168 -25.65635,-26.207098 h -44.61269 v 96.225118 l 41.59393,0.014 c 16.77419,0 28.70297,-14.52926 28.7239,-26.98793 3.8275,7.8433 17.10888,27.46901 44.03404,27.46202 z m -76.24389,-39.15375 c 3.84843,0 6.88119,3.79962 6.88119,8.12914 0,4.32949 -3.03276,8.13612 -6.88119,8.13612 H 186.9381 v -16.26526 z m 0.0488,-36.128 c 3.84844,0 6.88119,3.79964 6.88119,8.12914 0,4.32951 -3.03275,8.12916 -6.88119,8.12916 h -13.22558 v -16.2583 z m 17.61081,25.92821 c 3.03275,-0.38345 8.08034,-3.84844 9.86514,-6.06547 -0.62744,2.74689 -0.67623,10.6878 0.0555,13.42772 -2.02883,-3.13034 -6.83939,-6.97879 -9.92093,-7.36225 z m 34.10617,0 c 0,-13.52534 10.96671,-24.49201 24.49205,-24.49201 13.53228,0 24.49893,10.96667 24.49893,24.49201 0,13.52534 -10.96665,24.49201 -24.49893,24.49201 -13.52534,0 -24.49205,-10.96667 -24.49205,-24.49201 z m 24.49205,19.25618 c 10.63897,0 19.25617,-8.62414 19.25617,-19.25618 0,-10.63203 -8.6172,-19.25617 -19.25617,-19.25617 -10.63209,0 -19.25622,8.62414 -19.25622,19.25617 0,10.63204 8.62413,19.25618 19.25622,19.25618"
       id="path9056" />
    <path
       style="fill:#fefefe;fill-opacity:1;stroke-width:0.999995"
       d="m 220.02696,291.05301 c -16.87041,-1.77934 -29.6091,-12.0113 -34.85917,-27.9995 -2.02992,-6.18177 -2.74289,-11.20312 -2.73152,-19.23703 0.009,-6.09814 0.21378,-8.31316 1.21427,-13.11061 4.12217,-19.766 18.39184,-32.45011 37.84701,-33.64171 10.36852,-0.63505 19.76681,1.66795 27.32814,6.69665 l 1.88831,1.25582 0.32218,-1.00942 c 0.40894,-1.28137 1.75619,-3.07083 3.06161,-4.06649 1.69882,-1.29573 2.81637,-1.49344 8.44152,-1.49344 4.54471,0 5.03658,0.0395 5.39197,0.43212 0.36104,0.39895 0.39106,3.91668 0.39106,45.80519 0,43.65655 -0.0163,45.38781 -0.43212,45.7641 -0.37487,0.33924 -1.11852,0.39033 -5.61207,0.38546 -4.88053,-0.005 -5.25751,-0.0376 -6.52174,-0.55749 -2.50068,-1.02854 -4.2912,-2.97115 -4.92596,-5.34436 -0.15645,-0.58483 -0.32139,-1.19441 -0.36661,-1.35459 -0.0512,-0.1815 -0.81089,0.1965 -2.01558,1.00284 -7.61617,5.0978 -18.32737,7.53708 -28.4213,6.47246 z m 11.23807,-18.13087 c 8.44359,-2.25918 14.52876,-8.2429 17.29822,-17.00986 2.25488,-7.13798 2.21265,-16.8193 -0.10478,-24.02885 -1.33254,-4.14546 -3.3431,-7.50638 -6.23613,-10.42451 -3.06904,-3.09566 -6.56879,-5.10028 -10.95731,-6.27624 -2.32726,-0.62363 -8.00718,-0.85648 -10.63254,-0.43589 -3.68592,0.59051 -7.4465,2.09823 -10.32127,4.13813 -1.7455,1.23856 -4.65448,4.26131 -5.86963,6.09919 -2.13511,3.22919 -3.78818,7.63853 -4.57877,12.21321 -0.5567,3.22147 -0.53952,10.65302 0.032,13.82624 2.20126,12.22213 9.15374,19.98373 19.89791,22.21365 2.44524,0.5075 9.07889,0.32531 11.47226,-0.31507 z M 57.841663,290.33895 c -1.540913,-0.59223 -3.690257,-2.52237 -4.417828,-3.96716 -0.30052,-0.59677 -0.665944,-1.64851 -0.812079,-2.33723 -0.354892,-1.67265 -0.367039,-51.64178 -0.01336,-55.6956 1.121372,-12.8594 7.581264,-22.69125 18.24552,-27.76941 13.728924,-6.53748 32.483744,-4.30027 42.404324,5.05832 0.91096,0.85933 1.73383,1.56243 1.82865,1.56243 0.0948,0 0.92606,-0.69779 1.84724,-1.55064 11.70779,-10.83965 33.74749,-11.86781 47.26532,-2.20495 6.70221,4.79088 10.72003,11.25201 12.74962,20.50282 0.49181,2.24163 0.50025,2.73971 0.58012,34.2091 0.0737,29.07124 0.047,31.9684 -0.29835,32.31375 -0.32522,0.32522 -1.1187,0.37938 -5.55851,0.37938 -4.56492,0 -5.32314,-0.0547 -6.3933,-0.46135 -2.38927,-0.90786 -4.03017,-2.51634 -5.07378,-4.97351 -0.43371,-1.02116 -0.45652,-2.17883 -0.57518,-29.18279 l -0.12356,-28.11944 -0.54239,-1.76838 c -1.89008,-6.16236 -6.37664,-10.17746 -12.83472,-11.48603 -2.3785,-0.48195 -7.63163,-0.3553 -9.76925,0.23552 -6.02308,1.66476 -10.0094,5.68179 -11.74694,11.8374 l -0.53359,1.89037 -0.12162,30.78648 c -0.10674,27.01549 -0.16506,30.81475 -0.4761,31.01729 -0.21197,0.13804 -2.53883,0.20579 -5.78928,0.16854 -5.40763,-0.0619 -5.44158,-0.0655 -6.77319,-0.71947 -1.7813,-0.87477 -3.18322,-2.31546 -4.0742,-4.18689 l -0.7312,-1.53594 -0.12326,-28.11945 c -0.13807,-31.51624 0.009,-28.99347 -1.92138,-32.96356 -1.86813,-3.84208 -5.779537,-6.93459 -10.361015,-8.19182 -2.178554,-0.59783 -8.682912,-0.60878 -10.869706,-0.0184 -6.021804,1.62599 -10.169279,5.7745 -11.869788,11.87278 l -0.527143,1.89037 -0.122498,30.78647 c -0.107524,27.01896 -0.165899,30.8139 -0.476952,31.01048 -0.196752,0.12435 -2.667535,0.22015 -5.55299,0.21532 -4.631364,-0.008 -5.333757,-0.0607 -6.437483,-0.48488 z m 215.490187,0.21724 c -0.15595,-0.15595 -0.28356,-0.47822 -0.28356,-0.71617 0,-0.23792 6.17996,-9.58027 13.73322,-20.76078 7.81425,-11.56675 13.9341,-20.85673 14.19923,-21.5545 0.62206,-1.63718 0.52114,-4.75059 -0.20449,-6.30754 -0.27254,-0.58484 -6.62287,-10.14668 -14.11176,-21.24854 -7.48892,-11.10184 -13.6162,-20.35823 -13.6162,-20.56972 0,-0.91642 0.31591,-0.95166 8.5291,-0.95166 7.24625,0 8.09697,0.0418 9.46374,0.46412 1.74984,0.54079 3.35097,1.50222 4.61845,2.77327 0.49519,0.49657 4.26784,5.89942 8.38363,12.00634 4.11582,6.10692 7.80882,11.55159 8.20668,12.09927 1.69308,2.33052 5.03044,2.74778 7.09064,0.8865 0.47738,-0.43129 4.31962,-5.91988 8.53825,-12.19686 4.7871,-7.12275 8.17585,-11.92764 9.01521,-12.78258 0.93463,-0.952 1.90772,-1.63859 3.19001,-2.25088 l 1.84514,-0.88104 8.46899,-0.0703 c 8.54191,-0.0709 9.13519,-0.0212 9.13519,0.76578 0,0.15575 -6.12834,9.36721 -13.61854,20.46991 -7.49021,11.1027 -13.89455,20.77157 -14.23182,21.48637 -0.87915,1.86304 -0.87994,4.74344 -0.003,6.63146 0.33631,0.72315 6.7039,10.34638 14.15018,21.38496 7.44627,11.03861 13.58366,20.24043 13.63866,20.44849 0.0551,0.20807 -0.0753,0.55365 -0.28969,0.76797 -0.34571,0.34576 -1.23905,0.38968 -7.92267,0.38968 -4.57039,0 -8.02551,-0.10239 -8.78524,-0.26033 -1.99075,-0.41387 -4.12822,-1.58393 -5.54573,-3.03575 -0.74675,-0.76483 -4.56336,-6.18859 -9.15377,-13.00847 -5.84354,-8.68164 -8.10974,-11.86405 -8.79144,-12.34577 -1.81317,-1.28125 -4.39266,-1.07168 -6.00725,0.48806 -0.49523,0.47842 -4.42547,6.10399 -8.73385,12.50128 -8.15405,12.10751 -8.99732,13.17266 -11.38752,14.38386 -2.31275,1.17196 -3.2627,1.27712 -11.53652,1.27712 -5.67455,0 -7.77555,-0.0746 -7.98448,-0.28356 z"
       id="path1432" />
  </g>
</svg>
