<?xml version="1.0" encoding="UTF-8" standalone="no"?>
<!-- Created with Inkscape (http://www.inkscape.org/) -->

<svg
   width="114.94727mm"
   height="114.94727mm"
   viewBox="0 0 407.29349 407.29348"
   id="svg2"
   version="1.1"
   xmlns:xlink="http://www.w3.org/1999/xlink"
   xmlns="http://www.w3.org/2000/svg"
   xmlns:svg="http://www.w3.org/2000/svg"
   xmlns:rdf="http://www.w3.org/1999/02/22-rdf-syntax-ns#"
   xmlns:cc="http://creativecommons.org/ns#"
   xmlns:dc="http://purl.org/dc/elements/1.1/">
  <title
     id="title5759">Netflix icon</title>
  <defs
     id="defs4">
    <linearGradient
       id="linearGradient871">
      <stop
         style="stop-color:#0a0e36;stop-opacity:1"
         offset="0"
         id="stop867" />
      <stop
         style="stop-color:#1d3d8c;stop-opacity:1"
         offset="1"
         id="stop869" />
    </linearGradient>
    <linearGradient
       xlink:href="#linearGradient980"
       id="linearGradient982"
       x1="-496.53412"
       y1="1010.311"
       x2="-820.2652"
       y2="966.40393"
       gradientUnits="userSpaceOnUse"
       gradientTransform="matrix(0.18450196,0,0,0.18450196,176.95954,-162.35001)" />
    <linearGradient
       id="linearGradient980">
      <stop
         style="stop-color:#0cffff;stop-opacity:0.99607843"
         offset="0"
         id="stop976" />
      <stop
         id="stop986"
         offset="0.47445449"
         style="stop-color:#0069e3;stop-opacity:0.61176473" />
      <stop
         style="stop-color:#0066e2;stop-opacity:0;"
         offset="1"
         id="stop978" />
    </linearGradient>
    <linearGradient
       xlink:href="#linearGradient871"
       id="linearGradient873"
       x1="216.04695"
       y1="-7.4650416"
       x2="217.44759"
       y2="432.21777"
       gradientUnits="userSpaceOnUse" />
  </defs>
  <metadata
     id="metadata7">
    <rdf:RDF>
      <cc:Work
         rdf:about="">
        <dc:format>image/svg+xml</dc:format>
        <dc:type
           rdf:resource="http://purl.org/dc/dcmitype/StillImage" />
        <dc:title>Netflix icon</dc:title>
        <cc:license
           rdf:resource="http://creativecommons.org/licenses/by-sa/4.0/" />
        <dc:date>17/11/2016</dc:date>
        <dc:creator>
          <cc:Agent>
            <dc:title>CMetalCore</dc:title>
          </cc:Agent>
        </dc:creator>
        <dc:publisher>
          <cc:Agent>
            <dc:title>CMetalCore</dc:title>
          </cc:Agent>
        </dc:publisher>
      </cc:Work>
      <cc:License
         rdf:about="http://creativecommons.org/licenses/by-sa/4.0/">
        <cc:permits
           rdf:resource="http://creativecommons.org/ns#Reproduction" />
        <cc:permits
           rdf:resource="http://creativecommons.org/ns#Distribution" />
        <cc:requires
           rdf:resource="http://creativecommons.org/ns#Notice" />
        <cc:requires
           rdf:resource="http://creativecommons.org/ns#Attribution" />
        <cc:permits
           rdf:resource="http://creativecommons.org/ns#DerivativeWorks" />
        <cc:requires
           rdf:resource="http://creativecommons.org/ns#ShareAlike" />
      </cc:License>
    </rdf:RDF>
  </metadata>
  <g
     id="layer1"
     transform="translate(-2.2895527,9.9417524)"
     style="fill-opacity:1;fill:url(#linearGradient873)">
    <rect
       style="opacity:0.998;fill:url(#linearGradient873);fill-opacity:1.0;stroke-width:2.83464;stroke-linecap:square;paint-order:stroke fill markers"
       id="rect1159"
       width="407.29349"
       height="407.29349"
       x="2.2895527"
       y="-9.9417524"
       ry="36.842911" />
  </g>
  <g
     id="g865"
     transform="matrix(3.5476467,0,0,3.6989561,25.745859,96.629259)"
     style="stroke-width:0.258778">
    <path
       d="m 69.414956,35.70106 c -1.25575,0.29452 -4.57222,0.45813 -4.57222,0.45813 l -0.40785,1.33076 c 0,0 1.64214,-0.14181 2.84422,-0.0218 0,0 0.38638,-0.0327 0.42932,0.43632 0.0215,0.47995 -0.0322,0.9817 -0.0322,0.9817 0,0 -0.0322,0.29452 -0.42932,0.37087 -0.46152,0.0764 -3.57406,0.21817 -3.57406,0.21817 l -0.50444,1.72348 c 0,0 -0.18246,0.39265 0.23612,0.28357 0.38638,-0.10905 3.64918,-0.74173 4.0785,-0.65446 0.45078,0.10907 0.96597,0.74175 0.8157,1.30895 -0.17173,0.68721 -3.43453,2.80336 -5.40938,2.66155 0,0 -1.04109,0.0654 -1.91046,-1.36351 -0.83716,-1.36349 0.28979,-3.92686 0.28979,-3.92686 0,0 -0.50445,-1.19987 -0.1288,-1.63618 0,0 0.21466,-0.18545 0.85864,-0.23999 l 0.80496,-1.67983 c 0,0 -0.91229,0.0546 -1.44894,-0.62174 -0.49371,-0.65446 -0.53664,-0.93808 -0.15026,-1.11262 0.40786,-0.21816 4.18583,-0.90535 6.7832,-0.81808 0,0 0.91229,-0.10909 1.71726,1.49437 0,0 0.36492,0.65449 -0.27905,0.8072 m -9.79914,6.4575 c -0.32199,0.79629 -1.21282,1.63622 -2.28611,1.12354 -1.09476,-0.5236 -2.82276,-4.10141 -2.82276,-4.10141 0,0 -0.643965,-1.33077 -0.772764,-1.28714 0,0 -0.139527,-0.26179 -0.214654,1.19989 -0.10733,1.45076 0.02148,4.27591 -0.568842,4.72312 -0.536654,0.43633 -1.180623,0.25089 -1.545544,-0.26178 -0.300523,-0.51267 -0.429315,-1.74526 -0.257592,-3.89412 0.193198,-2.14888 0.676178,-4.43954 1.287951,-5.14857 0.643978,-0.71992 1.159154,-0.19634 1.352346,0 0,0 0.826429,0.76357 2.221719,3.0215 l 0.23612,0.4145 c 0,0 1.26648,2.14887 1.39527,2.13795 0,0 0.10733,0.10908 0.1932,0.0219 0.12879,-0.0327 0.0859,-0.73083 0.0859,-0.73083 0,0 -0.23613,-2.3234 -1.41675,-6.25027 0,0 -0.17172,-0.50175 -0.0536,-0.98171 0.10733,-0.43634 0.56885,-0.21816 0.56885,-0.21816 0,0 1.78165,0.87264 2.65102,3.81779 0.85863,2.94513 0.27906,5.61758 -0.043,6.41386 m -8.747318,-7.5592 c -0.171729,0.30543 -0.246857,0.73083 -0.987428,0.85082 0,0 -7.191041,0.51268 -7.545229,1.02535 0,0 -0.236123,0.30541 0.150261,0.38177 0.407847,0.0873 2.039251,0.30543 2.812019,0.34906 0.837167,0 3.649191,0.0218 4.679545,1.30895 0,0 0.59031,0.61085 0.568841,1.99614 -0.02148,1.41805 -0.268319,1.91982 -0.815698,2.4325 -0.568842,0.47996 -5.441579,2.70516 -8.586323,-0.69812 0,0 -1.438205,-1.63618 0.504449,-2.87969 0,0 1.395275,-0.87264 4.969333,0.14179 0,0 1.07329,0.39269 1.030359,0.79629 -0.0644,0.43631 -0.890832,0.87264 -2.092915,0.85082 -1.159158,-0.0327 -2.017788,-0.59993 -1.846058,-0.50177 0.160989,0.0545 -1.255755,-0.69811 -1.695804,-0.18543 -0.429308,0.47997 -0.321984,0.76356 0.107331,1.05806 1.07329,0.63266 5.291324,0.4036 6.547072,-1.02533 0,0 0.504448,-0.57812 -0.257592,-1.04718 -0.751299,-0.43631 -2.940811,-0.70902 -3.788712,-0.74174 -0.804971,-0.0436 -3.82091,0 -4.271693,-0.79629 0,0 -0.429321,-0.56721 0.04296,-2.11612 0.493714,-1.63618 4.003367,-2.26886 5.527447,-2.39975 0,0 4.185831,-0.17453 4.969327,0.69811 0,0 0.10733,0.19634 -0.02148,0.49086 m -11.870593,9.59897 c -0.504442,0.3818 -1.577732,0.21818 -1.888989,-0.21813 -0.300516,-0.38179 -0.407846,-1.88707 -0.354187,-4.25412 0.07513,-2.42157 0.10733,-5.38852 0.643981,-5.86847 0.536639,-0.46904 0.85863,-0.0545 1.073291,0.26179 0.214654,0.32723 0.493708,0.68722 0.536638,1.43985 0.0644,0.76357 0.246858,4.69043 0.246858,4.69043 0,0 0.236122,3.57779 -0.246858,3.94865 M 40.092697,31.4252 c -1.481136,0.51267 -2.490027,0.34906 -3.348663,-0.0327 -0.37565,0.68722 -0.601044,0.89447 -0.880098,0.9381 -0.429315,0.0436 -0.804971,-0.65448 -0.85863,-0.87264 -0.08586,-0.16361 -0.289788,-0.45811 -0.04296,-1.12352 -0.837161,-0.76356 -0.901561,-1.78891 -0.751299,-2.47611 0.193192,-0.80718 1.609935,-3.8396 5.903096,-4.19954 0,0 2.10365,-0.15272 2.468565,0.98169 h 0.0644 c 0,0 2.03925,0 1.996319,1.85436 0,1.85434 -2.253911,4.16685 -4.550752,4.96312 m 1.910457,-5.31218 c -1.352344,0.21818 -3.434525,2.0507 -4.432688,3.5669 1.534808,0.2836 4.218034,0.17452 5.420117,-2.29066 0,0 0.568841,-1.54893 -0.987429,-1.27624 m -5.935293,1.19987 c -0.429315,0.70903 -0.450783,1.13443 -0.246857,1.41805 0.504449,-0.76356 1.395275,-1.96343 2.736891,-2.90151 -1.03036,0.10907 -1.899724,0.54538 -2.490034,1.48346 M 72.634836,44.1112 c -0.98743,2.46519 -1.82459,4.9631 -2.30757,8.70452 0,0 -0.10733,0.73085 -0.69764,0.49089 -0.59031,-0.21817 -1.55628,-1.19989 -1.77094,-2.5852 -0.21465,-1.81072 0.57959,-4.86495 2.20025,-8.37729 -0.47225,-0.76357 -0.80496,-1.898 -0.53664,-3.49056 0,0 0.42932,-2.94515 3.3272,-5.6067 0,0 0.34345,-0.29451 0.53664,-0.19633 0.23613,0.10906 0.13953,1.04716 -0.0536,1.5271 -0.17172,0.45814 -1.45967,2.727 -1.45967,2.727 0,0 -0.80497,1.54893 -0.57958,2.75972 1.52407,-2.37795 4.9908,-7.19926 7.13738,-5.67214 1.36308,0.98171 1.36308,4.14502 0.34346,5.97755 -0.80497,1.45076 -3.08035,4.45045 -6.11776,3.75234 m 4.46489,-7.4174 c -0.79424,0.87262 -2.21098,2.53065 -3.3272,4.77766 1.18062,-0.13089 2.32904,-0.79626 2.68322,-1.13441 0.56885,-0.51268 1.87826,-1.89799 1.67434,-3.73052 0,0 -0.1288,-0.95991 -1.03036,0.0873 m -48.083404,8.69362 c -3.799447,1.17807 -7.384233,0.63266 -9.337622,0.1091 -0.05364,0.80717 -0.139526,1.14533 -0.268325,1.27623 -0.150261,0.17453 -1.395281,0.89443 -2.082188,-0.1309 -0.300516,-0.49087 -0.450771,-1.37441 -0.536639,-2.1816 -4.400485,-2.02888 -6.439747,-5.01766 -6.504141,-5.12674 -0.107324,-0.10906 -1.1054802,-1.16716 -0.107324,-2.47611 0.93377,-1.17805 4.024842,-2.36703 6.793936,-2.83605 0.107324,-2.39975 0.364909,-4.25411 0.69764,-5.0722 0.397106,-0.98174 0.901555,-0.1091 1.352332,0.54538 0.364921,0.49085 0.59031,2.59609 0.611779,4.27593 1.803127,-0.0873 2.89788,0.0436 4.904933,0.43631 2.640295,0.45816 4.400492,1.83254 4.260965,3.38146 -0.128799,1.52712 -1.502605,2.15978 -2.039257,2.20344 -0.536639,0.0436 -1.395275,-0.35999 -1.395275,-0.35999 -0.601044,-0.2836 -0.05364,-0.54538 0.643976,-0.85081 0.772768,-0.38177 0.601044,-0.76356 0.601044,-0.76356 -0.27906,-0.87263 -3.702857,-1.45076 -7.105185,-1.45076 0,1.90889 0.07513,5.0722 0.128799,6.91565 2.382703,0.45812 4.164362,0.35996 4.164362,0.35996 0,0 8.693652,-0.25088 8.94051,-5.89029 C 33.030491,32.11248 24.068519,26.70212 17.467801,25.00048 10.877779,23.2443 7.1427376,24.4878 6.8207466,24.65144 c -0.354187,0.17452 -0.03222,0.23996 -0.03222,0.23996 0,0 0.354187,0.0545 0.998156,0.27271 0.643969,0.21814 0.128799,0.54539 0.128799,0.54539 -1.126955,0.3927 -2.382691,0.16362 -2.629554,-0.35996 -0.24687,-0.51267 0.160995,-0.98172 0.643963,-1.66892 0.450777,-0.70901 0.96596,-0.68719 0.96596,-0.68719 8.1570014,-2.89063 18.1171424,2.29067 18.1171424,2.29067 9.316159,4.77767 10.904626,10.39528 10.732903,12.57685 -0.150262,2.14887 -0.96596,5.78122 -6.708068,7.5483 m -17.92395,-7.81009 c -0.923023,0.43634 -0.279041,1.13445 -0.279041,1.13445 1.738728,1.88706 3.86384,3.07603 5.90309,3.81777 0.236123,-3.27239 0.214648,-4.43954 0.214648,-6.08665 -3.155465,0.21817 -4.980042,0.74176 -5.838697,1.13443"
       id="path2"
       style="fill:#ffffff;fill-opacity:1;stroke:none;stroke-width:0;stroke-miterlimit:4;stroke-dasharray:none;stroke-opacity:1" />
    <path
       style="fill:#ffffff;fill-opacity:1;fill-rule:evenodd;stroke:none;stroke-width:0.0715957;stroke-miterlimit:4;stroke-dasharray:none;stroke-opacity:1"
       d="m 87.623747,30.70574 c -0.34894,0 -0.65886,0.27762 -0.62985,0.6198 0.15848,1.87027 0.3031,3.58409 0.40349,5.26827 h -4.87149 c -0.34894,0 -0.62986,0.27644 -0.62986,0.6198 v 1.08466 c 0,0.34336 0.28092,0.61978 0.62986,0.61978 h 4.97975 c 0.0513,1.63929 0.0523,3.29187 -0.0393,5.06493 -0.0177,0.34292 0.28092,0.6198 0.62985,0.6198 h 1.14161 c 0.34893,0 0.60497,-0.27731 0.62985,-0.6198 0.12237,-1.68437 0.17355,-3.37624 0.14762,-5.06493 h 5.186429 c 0.34893,0 0.62985,-0.27642 0.62985,-0.61978 v -1.08466 c 0,-0.34336 -0.28092,-0.6198 -0.62985,-0.6198 h -5.284849 c -0.11111,-1.76665 -0.30823,-3.52395 -0.63969,-5.26827 -0.0641,-0.33751 -0.28091,-0.6198 -0.62985,-0.6198 z"
       id="rect3085" />
    <path
       style="fill:url(#linearGradient982);fill-opacity:1;fill-rule:evenodd;stroke:#000000;stroke-width:0;stroke-miterlimit:4;stroke-dasharray:none;stroke-opacity:1"
       d="m 53.735404,2.4659237 c -15.047177,0 -27.784985,7.7422103 -32.079039,18.4185623 l 2.402055,1.57098 C 26.480089,13.058815 38.779834,4.5962937 53.834444,4.5962937 c 16.41604,0 29.18063,13.7697423 31.66038,22.7734723 l 2.11148,-0.0202 c -0.9897,-7.39305 -14.41413,-24.8836923 -33.8709,-24.8836923 z"
       id="path3050" />
  </g>
</svg>
