<?xml version="1.0" encoding="UTF-8" standalone="no"?>
<!-- Created with Inkscape (http://www.inkscape.org/) -->

<svg
   width="114.94727mm"
   height="114.94727mm"
   viewBox="0 0 407.29349 407.29348"
   id="svg2"
   version="1.1"
   xmlns="http://www.w3.org/2000/svg"
   xmlns:svg="http://www.w3.org/2000/svg"
   xmlns:rdf="http://www.w3.org/1999/02/22-rdf-syntax-ns#"
   xmlns:cc="http://creativecommons.org/ns#"
   xmlns:dc="http://purl.org/dc/elements/1.1/">
  <title
     id="title5759">Netflix icon</title>
  <defs
     id="defs4" />
  <metadata
     id="metadata7">
    <rdf:RDF>
      <cc:Work
         rdf:about="">
        <dc:format>image/svg+xml</dc:format>
        <dc:type
           rdf:resource="http://purl.org/dc/dcmitype/StillImage" />
        <dc:title>Netflix icon</dc:title>
        <cc:license
           rdf:resource="http://creativecommons.org/licenses/by-sa/4.0/" />
        <dc:date>17/11/2016</dc:date>
        <dc:creator>
          <cc:Agent>
            <dc:title>CMetalCore</dc:title>
          </cc:Agent>
        </dc:creator>
        <dc:publisher>
          <cc:Agent>
            <dc:title>CMetalCore</dc:title>
          </cc:Agent>
        </dc:publisher>
      </cc:Work>
      <cc:License
         rdf:about="http://creativecommons.org/licenses/by-sa/4.0/">
        <cc:permits
           rdf:resource="http://creativecommons.org/ns#Reproduction" />
        <cc:permits
           rdf:resource="http://creativecommons.org/ns#Distribution" />
        <cc:requires
           rdf:resource="http://creativecommons.org/ns#Notice" />
        <cc:requires
           rdf:resource="http://creativecommons.org/ns#Attribution" />
        <cc:permits
           rdf:resource="http://creativecommons.org/ns#DerivativeWorks" />
        <cc:requires
           rdf:resource="http://creativecommons.org/ns#ShareAlike" />
      </cc:License>
    </rdf:RDF>
  </metadata>
  <g
     id="layer1"
     transform="translate(-2.2895527,9.9417524)"
     style="fill:#161616;fill-opacity:1">
    <rect
       style="opacity:0.998;fill:#161616;fill-opacity:1;stroke-width:2.83464;stroke-linecap:square;paint-order:stroke fill markers"
       id="rect1159"
       width="407.29349"
       height="407.29349"
       x="2.2895527"
       y="-9.9417524"
       ry="36.842911" />
  </g>
  <g
     id="g1075"
     transform="matrix(0.26362372,0,0,0.26362372,68.539587,108.59721)"
     style="stroke-width:3.55621">
    <path
       id="Triangle"
       fill="#ffffff"
       d="M 407,493 683,350 407,206 Z"
       style="stroke-width:9.85647" />
    <path
       id="The_Sharpness"
       opacity="0.12"
       fill="#420000"
       d="M 407,206 649,367.6 683,350 Z"
       style="stroke-width:9.85647" />
    <g
       id="Lozenge"
       style="stroke-width:3.55621">
	<g
   id="g1059"
   style="stroke-width:3.55621">
		
			<linearGradient
   id="SVGID_1_"
   gradientUnits="userSpaceOnUse"
   x1="512.5"
   y1="719.70001"
   x2="512.5"
   y2="1.2"
   gradientTransform="matrix(1,0,0,-1,0,721)">
			<stop
   offset="0"
   style="stop-color:#E52D27"
   id="stop1052" />

			<stop
   offset="1"
   style="stop-color:#BF171D"
   id="stop1054" />

		</linearGradient>

		<path
   fill="url(#SVGID_1_)"
   d="m 1013,156.3 c 0,0 -10,-70.4 -40.6,-101.4 C 933.6,14.2 890,14 870.1,11.6 727.1,1.3 512.7,1.3 512.7,1.3 h -0.4 c 0,0 -214.4,0 -357.4,10.3 C 135,14 91.4,14.2 52.6,54.9 22,85.9 12,156.3 12,156.3 c 0,0 -10.2,82.6 -10.2,165.3 v 77.5 c 0,82.7 10.2,165.3 10.2,165.3 0,0 10,70.4 40.6,101.4 38.9,40.7 89.9,39.4 112.6,43.7 81.7,7.8 347.3,10.3 347.3,10.3 0,0 214.6,-0.3 357.6,-10.7 20,-2.4 63.5,-2.6 102.3,-43.3 30.6,-31 40.6,-101.4 40.6,-101.4 0,0 10.2,-82.7 10.2,-165.3 v -77.5 c 0,-82.7 -10.2,-165.3 -10.2,-165.3 z M 407,493 V 206 l 276,144 z"
   id="path1057"
   style="fill:url(#SVGID_1_);stroke-width:9.85647" />

	</g>

</g>
  </g>
</svg>
